SplineFontDB: 3.2
FontName: IRDavat
FullName: IRDavat
FamilyName: IRDavat
Weight: Book
Copyright: Copyright (c) 2022, Information Technology Organization of Iran (ito.gov.ir)
Version: 1.001
ItalicAngle: 0
UnderlinePosition: -100
UnderlineWidth: 60
Ascent: 1638
Descent: 410
InvalidEm: 0
sfntRevision: 0x00010042
LayerCount: 2
Layer: 0 1 "Back" 1
Layer: 1 1 "Fore" 0
XUID: [1021 420 722297922 8065869]
StyleMap: 0x0040
FSType: 0
OS2Version: 3
OS2_WeightWidthSlopeOnly: 0
OS2_UseTypoMetrics: 0
CreationTime: 1356327119
ModificationTime: 1662614890
PfmFamily: 17
TTFWeight: 400
TTFWidth: 5
LineGap: 100
VLineGap: 0
Panose: 2 0 5 3 0 0 0 2 0 2
OS2TypoAscent: 1843
OS2TypoAOffset: 0
OS2TypoDescent: -1168
OS2TypoDOffset: 0
OS2TypoLinegap: 1500
OS2WinAscent: 1843
OS2WinAOffset: 0
OS2WinDescent: 1168
OS2WinDOffset: 0
HheadAscent: 1843
HheadAOffset: 0
HheadDescent: -1168
HheadDOffset: 0
OS2SubXSize: 1434
OS2SubYSize: 1331
OS2SubXOff: 0
OS2SubYOff: 293
OS2SupXSize: 1434
OS2SupYSize: 1331
OS2SupXOff: 0
OS2SupYOff: 930
OS2StrikeYSize: 50
OS2StrikeYPos: 250
OS2CapHeight: 1837
OS2XHeight: 679
OS2FamilyClass: 2048
OS2Vendor: 'PARS'
OS2CodePages: 20000041.00000000
OS2UnicodeRanges: 00002003.00000000.00000000.00000000
Lookup: 1 1 0 "'isol' Isolated Forms in Arabic lookup 0" { "'isol' Isolated Forms in Arabic lookup 0 subtable"  } ['isol' ('arab' <'dflt' > ) ]
Lookup: 1 1 0 "'init' Initial Forms in Arabic lookup 1" { "'init' Initial Forms in Arabic lookup 1 subtable"  } ['init' ('arab' <'dflt' > ) ]
Lookup: 1 1 0 "'fina' Terminal Forms in Arabic lookup 2" { "'fina' Terminal Forms in Arabic lookup 2 subtable"  } ['fina' ('arab' <'dflt' > ) ]
Lookup: 1 1 0 "'medi' Medial Forms in Arabic lookup 3" { "'medi' Medial Forms in Arabic lookup 3 subtable"  } ['medi' ('arab' <'dflt' > ) ]
Lookup: 4 1 0 "'ccmp' Glyph Composition/Decomposition in Arabic lookup 4" { "'ccmp' Glyph Composition/Decomposition in Arabic lookup 4 subtable"  } ['ccmp' ('arab' <'dflt' > ) ]

StartChar: quotedbl
Encoding: 34 34 4
Width: 480
Flags: W
LayerCount: 2
Fore
SplineSet
78 1325 m 1,0,-1
 180 1325 l 1,1,-1
 158 1003 l 1,2,-1
 90 1003 l 1,3,-1
 78 1325 l 1,0,-1
291 1325 m 1,4,-1
 392 1325 l 1,5,-1
 370 1003 l 1,6,-1
 303 1003 l 1,7,-1
 291 1325 l 1,4,-1
EndSplineSet
EndChar

StartChar: quotesingle
Encoding: 39 39 5
Width: 384
Flags: W
LayerCount: 2
Fore
SplineSet
142 1325 m 1,0,-1
 243 1325 l 1,1,-1
 221 1003 l 1,2,-1
 154 1003 l 1,3,-1
 142 1325 l 1,0,-1
EndSplineSet
EndChar

StartChar: asterisk
Encoding: 42 42 6
Width: 1126
Flags: W
LayerCount: 2
Fore
SplineSet
568 347 m 1,0,-1
 574 687 l 1,1,-1
 355 467 l 1,2,-1
 250 467 l 1,3,-1
 527 746 l 1,4,-1
 203 746 l 1,5,-1
 223 839 l 1,6,-1
 547 839 l 1,7,-1
 277 1104 l 1,8,-1
 370 1104 l 1,9,-1
 579 899 l 1,10,-1
 585 1199 l 1,11,-1
 704 1239 l 1,12,-1
 699 912 l 1,13,-1
 905 1104 l 1,14,-1
 1013 1104 l 1,15,-1
 730 839 l 1,16,-1
 1065 839 l 1,17,-1
 1043 746 l 1,18,-1
 729 746 l 1,19,-1
 1002 467 l 1,20,-1
 910 467 l 1,21,-1
 696 687 l 1,22,-1
 688 386 l 1,23,-1
 568 347 l 1,0,-1
EndSplineSet
EndChar

StartChar: plus
Encoding: 43 43 7
Width: 1253
GlyphClass: 2
Flags: W
LayerCount: 2
Fore
SplineSet
1051 437 m 1,0,-1
 729 437 l 1,1,-1
 729 117 l 1,2,-1
 593 117 l 1,3,-1
 593 437 l 1,4,-1
 273 437 l 1,5,-1
 273 567 l 1,6,-1
 593 567 l 1,7,-1
 593 889 l 1,8,-1
 729 889 l 1,9,-1
 729 567 l 1,10,-1
 1051 567 l 1,11,-1
 1051 437 l 1,0,-1
EndSplineSet
EndChar

StartChar: hyphen
Encoding: 45 45 8
Width: 1243
Flags: W
LayerCount: 2
Fore
SplineSet
1064 435 m 1,0,-1
 224 435 l 1,1,-1
 224 576 l 1,2,-1
 1064 576 l 1,3,-1
 1064 435 l 1,0,-1
EndSplineSet
EndChar

StartChar: period
Encoding: 46 46 9
Width: 411
GlyphClass: 2
Flags: W
LayerCount: 2
Fore
SplineSet
366 115 m 0,0,1
 366 92 366 92 358 72.5 c 128,-1,2
 350 53 350 53 335.5 39 c 128,-1,3
 321 25 321 25 302 16.5 c 128,-1,4
 283 8 283 8 261 8 c 256,5,6
 239 8 239 8 219.5 16.5 c 128,-1,7
 200 25 200 25 185.5 39 c 128,-1,8
 171 53 171 53 162.5 72.5 c 128,-1,9
 154 92 154 92 154 115 c 0,10,11
 154 137 154 137 162.5 156 c 128,-1,12
 171 175 171 175 185.5 189 c 128,-1,13
 200 203 200 203 219.5 211.5 c 128,-1,14
 239 220 239 220 261 220 c 256,15,16
 283 220 283 220 302 211.5 c 128,-1,17
 321 203 321 203 335.5 189 c 128,-1,18
 350 175 350 175 358 156 c 128,-1,19
 366 137 366 137 366 115 c 0,0,1
EndSplineSet
EndChar

StartChar: slash
Encoding: 47 47 10
Width: 656
Flags: W
LayerCount: 2
Fore
SplineSet
529 1253 m 1,0,-1
 241 -107 l 1,1,-1
 134 -107 l 1,2,-1
 421 1253 l 1,3,-1
 529 1253 l 1,0,-1
EndSplineSet
EndChar

StartChar: less
Encoding: 60 60 11
Width: 1117
Flags: W
LayerCount: 2
Fore
SplineSet
955 58 m 1,0,-1
 150 444 l 1,1,-1
 150 534 l 1,2,-1
 955 918 l 1,3,-1
 955 784 l 1,4,-1
 331 489 l 1,5,-1
 955 192 l 1,6,-1
 955 58 l 1,0,-1
EndSplineSet
EndChar

StartChar: equal
Encoding: 61 61 12
Width: 1032
Flags: W
LayerCount: 2
Fore
SplineSet
873 588 m 1,0,-1
 144 588 l 1,1,-1
 144 708 l 1,2,-1
 873 708 l 1,3,-1
 873 588 l 1,0,-1
873 323 m 1,4,-1
 144 323 l 1,5,-1
 144 443 l 1,6,-1
 873 443 l 1,7,-1
 873 323 l 1,4,-1
EndSplineSet
EndChar

StartChar: greater
Encoding: 62 62 13
Width: 1117
Flags: W
LayerCount: 2
Fore
SplineSet
966 444 m 1,0,-1
 160 58 l 1,1,-1
 160 192 l 1,2,-1
 786 489 l 1,3,-1
 160 784 l 1,4,-1
 160 918 l 1,5,-1
 966 534 l 1,6,-1
 966 444 l 1,0,-1
EndSplineSet
EndChar

StartChar: bracketleft
Encoding: 91 91 14
Width: 649
GlyphClass: 2
Flags: W
LayerCount: 2
Fore
SplineSet
564 -233 m 1,0,-1
 191 -233 l 1,1,-1
 191 1693 l 1,2,-1
 564 1693 l 1,3,-1
 564 1595 l 1,4,-1
 331 1595 l 1,5,-1
 331 -137 l 1,6,-1
 564 -137 l 1,7,-1
 564 -233 l 1,0,-1
EndSplineSet
EndChar

StartChar: bracketright
Encoding: 93 93 15
Width: 649
GlyphClass: 2
Flags: W
LayerCount: 2
Fore
SplineSet
212 -137 m 1,0,-1
 445 -137 l 1,1,-1
 445 1595 l 1,2,-1
 212 1595 l 1,3,-1
 212 1693 l 1,4,-1
 585 1693 l 1,5,-1
 585 -233 l 1,6,-1
 212 -233 l 1,7,-1
 212 -137 l 1,0,-1
EndSplineSet
EndChar

StartChar: grave
Encoding: 96 96 16
Width: 615
Flags: W
LayerCount: 2
Fore
SplineSet
373 935 m 1,0,-1
 88 1114 l 2,1,2
 64 1132 64 1132 49.5 1151.5 c 128,-1,3
 35 1171 35 1171 35 1194 c 0,4,5
 35 1220 35 1220 52 1236 c 128,-1,6
 69 1252 69 1252 99 1252 c 0,7,8
 118 1252 118 1252 134.5 1242.5 c 128,-1,9
 151 1233 151 1233 176 1208 c 2,10,-1
 447 935 l 1,11,-1
 373 935 l 1,0,-1
EndSplineSet
EndChar

StartChar: braceleft
Encoding: 123 123 17
Width: 685
GlyphClass: 2
Flags: W
LayerCount: 2
Fore
SplineSet
611 1177 m 1,0,-1
 611 1138 l 1,1,2
 526 1121 526 1121 485.5 1078 c 128,-1,3
 445 1035 445 1035 445 978 c 0,4,5
 445 922 445 922 465 837.5 c 128,-1,6
 485 753 485 753 485 690 c 0,7,8
 485 633 485 633 451.5 573 c 128,-1,9
 418 513 418 513 353 471 c 0,10,11
 307 441 307 441 210 414 c 1,12,13
 315 382 315 382 363 350 c 0,14,15
 425 306 425 306 456.5 247.5 c 128,-1,16
 488 189 488 189 488 137 c 0,17,18
 488 86 488 86 467 1 c 128,-1,19
 446 -84 446 -84 446 -146 c 0,20,21
 446 -207 446 -207 485 -251 c 128,-1,22
 524 -295 524 -295 611 -312 c 1,23,-1
 611 -351 l 1,24,-1
 581 -351 l 2,25,26
 494 -352 494 -352 416.5 -311 c 128,-1,27
 339 -270 339 -270 300 -206 c 128,-1,28
 261 -142 261 -142 261 -83 c 0,29,30
 261 -23 261 -23 286 78 c 0,31,32
 306 154 306 154 306 213 c 0,33,34
 306 280 306 280 264 327 c 128,-1,35
 222 374 222 374 140 388 c 1,36,-1
 140 439 l 1,37,38
 222 453 222 453 264 502 c 128,-1,39
 306 551 306 551 306 621 c 0,40,41
 306 679 306 679 287 752 c 0,42,43
 261 852 261 852 261 905 c 0,44,45
 261 960 261 960 294.5 1017 c 128,-1,46
 328 1074 328 1074 377.5 1109.5 c 128,-1,47
 427 1145 427 1145 487 1161 c 0,48,49
 532 1173 532 1173 611 1177 c 1,0,-1
EndSplineSet
EndChar

StartChar: bar
Encoding: 124 124 18
Width: 383
Flags: W
LayerCount: 2
Fore
SplineSet
135 -375 m 1,0,-1
 135 1177 l 1,1,-1
 245 1177 l 1,2,-1
 245 -375 l 1,3,-1
 135 -375 l 1,0,-1
EndSplineSet
EndChar

StartChar: asciitilde
Encoding: 126 126 19
Width: 903
Flags: W
LayerCount: 2
Fore
SplineSet
885 601 m 1,0,-1
 934 601 l 1,1,2
 929 466 929 466 864 397 c 128,-1,3
 799 328 799 328 706 328 c 0,4,5
 660 328 660 328 610 342 c 128,-1,6
 560 356 560 356 388 428 c 0,7,8
 264 480 264 480 209 480 c 0,9,10
 151 480 151 480 112.5 444.5 c 128,-1,11
 74 409 74 409 59 329 c 1,12,-1
 11 329 l 1,13,14
 17 467 17 467 79.5 534.5 c 128,-1,15
 142 602 142 602 231 602 c 0,16,17
 276 602 276 602 319 590 c 0,18,19
 405 566 405 566 555 501 c 0,20,21
 637 465 637 465 681 454 c 0,22,23
 706 447 706 447 736 447 c 0,24,25
 795 447 795 447 836.5 487 c 128,-1,26
 878 527 878 527 885 601 c 1,0,-1
EndSplineSet
EndChar

StartChar: agrave
Encoding: 224 224 20
Width: 1075
Flags: W
LayerCount: 2
Fore
SplineSet
741 331 m 1,0,1
 720 266 720 266 690.5 213 c 128,-1,2
 661 160 661 160 626 114 c 0,3,4
 519 -19 519 -19 400 -19 c 0,5,6
 208 -19 208 -19 159 214 c 0,7,8
 133 334 133 334 157 451 c 128,-1,9
 181 568 181 568 252 683 c 0,10,11
 325 801 325 801 433 860 c 128,-1,12
 541 919 541 919 684 919 c 0,13,14
 712 919 712 919 746 918.5 c 128,-1,15
 780 918 780 918 815.5 916 c 128,-1,16
 851 914 851 914 886 912 c 128,-1,17
 921 910 921 910 952 908 c 1,18,-1
 946 646 l 1,19,-1
 946 647 l 1,20,-1
 950 254 l 2,21,22
 952 209 952 209 954.5 179.5 c 128,-1,23
 957 150 957 150 958 139 c 0,24,25
 961 114 961 114 985 114 c 0,26,27
 1053 114 1053 114 1214 346 c 1,28,-1
 1218 179 l 1,29,30
 1073 -19 1073 -19 925 -19 c 0,31,32
 785 -19 785 -19 753 126 c 0,33,34
 749 146 749 146 747 182 c 128,-1,35
 745 218 745 218 745 264 c 2,36,-1
 741 331 l 1,0,1
737 758 m 1,37,38
 688 775 688 775 647 783.5 c 128,-1,39
 606 792 606 792 561 792 c 0,40,41
 497 792 497 792 453.5 749.5 c 128,-1,42
 410 707 410 707 387 625 c 0,43,44
 362 522 362 522 357 425 c 128,-1,45
 352 328 352 328 368 248 c 0,46,47
 388 146 388 146 437 146 c 0,48,49
 493 146 493 146 589 280 c 0,50,51
 637 352 637 352 674 430 c 128,-1,52
 711 508 711 508 739 599 c 1,53,-1
 737 758 l 1,37,38
662 590 m 1,54,-1
 377 769 l 2,55,56
 353 787 353 787 338.5 806.5 c 128,-1,57
 324 826 324 826 324 849 c 0,58,59
 324 875 324 875 341 891 c 128,-1,60
 358 907 358 907 388 907 c 0,61,62
 407 907 407 907 423.5 897.5 c 128,-1,63
 440 888 440 888 465 863 c 2,64,-1
 736 590 l 1,65,-1
 662 590 l 1,54,-1
EndSplineSet
EndChar

StartChar: ocircumflex.001
Encoding: 65539 -1 26
Width: 1112
Flags: W
LayerCount: 2
Fore
SplineSet
416 -19 m 0,0,1
 301 -19 301 -19 205 70 c 0,2,3
 110 160 110 160 85 288 c 0,4,5
 32 528 32 528 170 726 c 0,6,7
 307 928 307 928 522 928 c 0,8,9
 643 928 643 928 742 842 c 1,10,11
 837 753 837 753 864 626 c 0,12,13
 890 499 890 499 869 388.5 c 128,-1,14
 848 278 848 278 781 179 c 0,15,16
 711 79 711 79 619.5 30 c 128,-1,17
 528 -19 528 -19 416 -19 c 0,0,1
483 98 m 0,18,19
 536 98 536 98 573.5 133 c 128,-1,20
 611 168 611 168 637 236 c 0,21,22
 665 310 665 310 668.5 393.5 c 128,-1,23
 672 477 672 477 652 574 c 0,24,25
 602 813 602 813 466 813 c 0,26,27
 365 813 365 813 313 670 c 0,28,29
 284 595 284 595 281 510.5 c 128,-1,30
 278 426 278 426 298 332 c 0,31,32
 324 213 324 213 370 155.5 c 128,-1,33
 416 98 416 98 483 98 c 0,18,19
EndSplineSet
EndChar

StartChar: dagger
Encoding: 8224 8224 30
Width: 932
Flags: W
LayerCount: 2
Fore
SplineSet
347 -231 m 1,0,-1
 567 622 l 1,1,-1
 248 592 l 1,2,-1
 297 700 l 1,3,-1
 576 668 l 1,4,-1
 607 1066 l 1,5,-1
 755 1093 l 1,6,-1
 621 668 l 1,7,-1
 941 700 l 1,8,-1
 895 592 l 1,9,-1
 612 622 l 1,10,-1
 496 -213 l 1,11,-1
 347 -231 l 1,0,-1
EndSplineSet
EndChar

StartChar: degree
Encoding: 176 176 31
Width: 409
Flags: W
LayerCount: 2
Fore
SplineSet
395 844 m 0,0,1
 344 844 344 844 307.5 880 c 128,-1,2
 271 916 271 916 271 968 c 0,3,4
 271 1021 271 1021 307.5 1057 c 128,-1,5
 344 1093 344 1093 395 1093 c 0,6,7
 447 1093 447 1093 483 1057 c 128,-1,8
 519 1021 519 1021 519 968 c 0,9,10
 519 916 519 916 483 880 c 128,-1,11
 447 844 447 844 395 844 c 0,0,1
395 888 m 256,12,13
 427 888 427 888 450.5 912 c 128,-1,14
 474 936 474 936 474 968 c 256,15,16
 474 1000 474 1000 450.5 1024 c 128,-1,17
 427 1048 427 1048 395 1048 c 256,18,19
 363 1048 363 1048 339 1024 c 128,-1,20
 315 1000 315 1000 315 968 c 256,21,22
 315 936 315 936 339 912 c 128,-1,23
 363 888 363 888 395 888 c 256,12,13
EndSplineSet
EndChar

StartChar: bullet
Encoding: 8226 8226 32
Width: 931
Flags: W
LayerCount: 2
Fore
SplineSet
817 662 m 256,0,1
 817 517 817 517 713.5 414 c 128,-1,2
 610 311 610 311 465 311 c 256,3,4
 320 311 320 311 217 414 c 128,-1,5
 114 517 114 517 114 662 c 256,6,7
 114 807 114 807 217 910 c 128,-1,8
 320 1013 320 1013 465 1013 c 256,9,10
 610 1013 610 1013 713.5 910 c 128,-1,11
 817 807 817 807 817 662 c 256,0,1
EndSplineSet
EndChar

StartChar: registered
Encoding: 174 174 33
Width: 897
Flags: W
LayerCount: 2
Fore
SplineSet
580 445 m 0,0,1
 448 445 448 445 354.5 538.5 c 128,-1,2
 261 632 261 632 261 764 c 256,3,4
 261 896 261 896 354.5 990 c 128,-1,5
 448 1084 448 1084 580 1084 c 0,6,7
 714 1084 714 1084 807 990 c 128,-1,8
 900 896 900 896 900 764 c 256,9,10
 900 632 900 632 806.5 538.5 c 128,-1,11
 713 445 713 445 580 445 c 0,0,1
580 484 m 0,12,13
 695 484 695 484 777.5 567 c 128,-1,14
 860 650 860 650 860 764 c 256,15,16
 860 878 860 878 777.5 961 c 128,-1,17
 695 1044 695 1044 580 1044 c 0,18,19
 466 1044 466 1044 383.5 961 c 128,-1,20
 301 878 301 878 301 764 c 256,21,22
 301 650 301 650 383.5 567 c 128,-1,23
 466 484 466 484 580 484 c 0,12,13
529 737 m 1,24,-1
 501 596 l 1,25,-1
 394 596 l 1,26,-1
 403 639 l 1,27,-1
 456 639 l 1,28,-1
 511 915 l 1,29,-1
 458 915 l 1,30,-1
 466 959 l 1,31,-1
 598 959 l 2,32,33
 751 959 751 959 751 875 c 0,34,35
 751 800 751 800 650 750 c 1,36,-1
 685 639 l 1,37,-1
 747 639 l 1,38,-1
 738 596 l 1,39,-1
 641 596 l 1,40,-1
 591 737 l 1,41,-1
 529 737 l 1,24,-1
538 782 m 1,42,-1
 574 782 l 2,43,44
 697 782 697 782 697 866 c 0,45,46
 697 915 697 915 607 915 c 2,47,-1
 564 915 l 1,48,-1
 538 782 l 1,42,-1
EndSplineSet
EndChar

StartChar: copyright
Encoding: 169 169 34
Width: 1244
Flags: W
LayerCount: 2
Fore
SplineSet
725 -27 m 0,0,1
 495 -27 495 -27 330.5 137 c 128,-1,2
 166 301 166 301 166 533 c 256,3,4
 166 765 166 765 330.5 929 c 128,-1,5
 495 1093 495 1093 725 1093 c 0,6,7
 958 1093 958 1093 1122 929 c 128,-1,8
 1286 765 1286 765 1286 533 c 256,9,10
 1286 301 1286 301 1122 137 c 128,-1,11
 958 -27 958 -27 725 -27 c 0,0,1
725 18 m 0,12,13
 939 18 939 18 1090 169 c 128,-1,14
 1241 320 1241 320 1241 533 c 256,15,16
 1241 746 1241 746 1090 897 c 128,-1,17
 939 1048 939 1048 725 1048 c 0,18,19
 513 1048 513 1048 362 897 c 128,-1,20
 211 746 211 746 211 533 c 256,21,22
 211 320 211 320 362 169 c 128,-1,23
 513 18 513 18 725 18 c 0,12,13
890 246 m 1,24,25
 785 213 785 213 704 213 c 0,26,27
 580 213 580 213 508 279.5 c 128,-1,28
 436 346 436 346 436 462 c 0,29,30
 436 625 436 625 541 734.5 c 128,-1,31
 646 844 646 844 805 844 c 0,32,33
 896 844 896 844 1003 814 c 1,34,-1
 967 675 l 1,35,-1
 915 684 l 1,36,-1
 923 766 l 1,37,38
 854 798 854 798 792 798 c 0,39,40
 688 798 688 798 616 700 c 128,-1,41
 544 602 544 602 544 462 c 0,42,43
 544 271 544 271 722 271 c 0,44,45
 823 271 823 271 902 307 c 1,46,-1
 890 246 l 1,24,25
EndSplineSet
EndChar

StartChar: trademark
Encoding: 8482 8482 35
Width: 1333
Flags: W
LayerCount: 2
Fore
SplineSet
440 1021 m 1,0,-1
 307 1021 l 1,1,-1
 288 923 l 1,2,-1
 225 923 l 1,3,-1
 254 1066 l 1,4,-1
 751 1066 l 1,5,-1
 723 923 l 1,6,-1
 661 923 l 1,7,-1
 679 1021 l 1,8,-1
 546 1021 l 1,9,-1
 456 569 l 1,10,-1
 554 569 l 1,11,-1
 545 524 l 1,12,-1
 243 524 l 1,13,-1
 253 569 l 1,14,-1
 350 569 l 1,15,-1
 440 1021 l 1,0,-1
1011 569 m 1,16,-1
 942 956 l 1,17,-1
 857 524 l 1,18,-1
 688 524 l 1,19,-1
 697 569 l 1,20,-1
 794 569 l 1,21,-1
 884 1021 l 1,22,-1
 787 1021 l 1,23,-1
 796 1066 l 1,24,-1
 1036 1066 l 1,25,-1
 1092 747 l 1,26,-1
 1265 1066 l 1,27,-1
 1481 1066 l 1,28,-1
 1473 1021 l 1,29,-1
 1375 1021 l 1,30,-1
 1285 569 l 1,31,-1
 1383 569 l 1,32,-1
 1373 524 l 1,33,-1
 1178 524 l 1,34,-1
 1270 985 l 1,35,-1
 1041 569 l 1,36,-1
 1011 569 l 1,16,-1
EndSplineSet
EndChar

StartChar: logicalnot
Encoding: 172 172 39
Width: 932
Flags: W
LayerCount: 2
Fore
SplineSet
177 510 m 1,0,-1
 193 590 l 1,1,-1
 975 590 l 1,2,-1
 906 248 l 1,3,-1
 814 248 l 1,4,-1
 866 510 l 1,5,-1
 177 510 l 1,0,-1
EndSplineSet
EndChar

StartChar: florin
Encoding: 402 402 40
Width: 679
Flags: W
LayerCount: 2
Fore
SplineSet
158 -231 m 1,0,-1
 210 -18 l 1,1,-1
 286 364 l 1,2,-1
 108 364 l 1,3,-1
 117 409 l 1,4,-1
 294 409 l 1,5,-1
 298 427 l 2,6,7
 330 586 330 586 463 692.5 c 128,-1,8
 596 799 596 799 761 799 c 0,9,10
 818 799 818 799 860 784 c 1,11,-1
 764 678 l 1,12,13
 712 729 712 729 643 729 c 0,14,15
 500 729 500 729 457 512 c 2,16,-1
 436 409 l 1,17,-1
 623 409 l 1,18,-1
 614 364 l 1,19,-1
 427 364 l 1,20,-1
 313 -213 l 1,21,-1
 158 -231 l 1,0,-1
EndSplineSet
EndChar

StartChar: ellipsis
Encoding: 8230 8230 41
Width: 1827
Flags: W
LayerCount: 2
Fore
SplineSet
758 113 m 0,0,1
 758 144 758 144 809.5 245.5 c 128,-1,2
 861 347 861 347 876 355 c 0,3,4
 907 369 907 369 964.5 307.5 c 128,-1,5
 1022 246 1022 246 1026 211 c 1,6,7
 1026 166 1026 166 977.5 79.5 c 128,-1,8
 929 -7 929 -7 908 -7 c 0,9,10
 899 -7 899 -7 851 26.5 c 128,-1,11
 803 60 803 60 778 79 c 0,12,13
 758 96 758 96 758 113 c 0,0,1
1308 113 m 0,14,15
 1308 144 1308 144 1359 245.5 c 128,-1,16
 1410 347 1410 347 1426 355 c 0,17,18
 1457 369 1457 369 1514.5 307.5 c 128,-1,19
 1572 246 1572 246 1575 211 c 0,20,21
 1575 166 1575 166 1527 79.5 c 128,-1,22
 1479 -7 1479 -7 1458 -7 c 0,23,24
 1449 -7 1449 -7 1401 26.5 c 128,-1,25
 1353 60 1353 60 1328 79 c 0,26,27
 1308 96 1308 96 1308 113 c 0,14,15
211 113 m 0,28,29
 211 144 211 144 262 245.5 c 128,-1,30
 313 347 313 347 329 355 c 0,31,32
 360 369 360 369 417.5 307.5 c 128,-1,33
 475 246 475 246 478 211 c 0,34,35
 478 166 478 166 430 79.5 c 128,-1,36
 382 -7 382 -7 361 -7 c 0,37,38
 352 -7 352 -7 304 26.5 c 128,-1,39
 256 60 256 60 231 79 c 0,40,41
 211 96 211 96 211 113 c 0,28,29
EndSplineSet
EndChar

StartChar: endash
Encoding: 8211 8211 42
Width: 434
Flags: W
LayerCount: 2
Fore
SplineSet
434 154 m 1,0,-1
 0 154 l 1,1,-1
 0 234 l 1,2,-1
 434 234 l 1,3,-1
 434 154 l 1,0,-1
EndSplineSet
EndChar

StartChar: emdash
Encoding: 8212 8212 43
Width: 1862
Flags: W
LayerCount: 2
Fore
SplineSet
1866 572 m 1,0,-1
 -4 572 l 1,1,-1
 -4 732 l 1,2,-1
 1866 732 l 1,3,-1
 1866 572 l 1,0,-1
EndSplineSet
EndChar

StartChar: quotedblleft
Encoding: 8220 8220 44
Width: 613
Flags: W
LayerCount: 2
Fore
SplineSet
340 993 m 0,0,1
 341 1058 341 1058 385 1121.5 c 128,-1,2
 429 1185 429 1185 483 1211 c 1,3,-1
 514 1153 l 1,4,5
 498 1144 498 1144 476 1120 c 128,-1,6
 454 1096 454 1096 444 1058 c 1,7,8
 510 1030 510 1030 507 975 c 0,9,10
 507 959 507 959 500.5 944.5 c 128,-1,11
 494 930 494 930 483.5 919 c 128,-1,12
 473 908 473 908 458 901.5 c 128,-1,13
 443 895 443 895 427 895 c 0,14,15
 406 895 406 895 390 903.5 c 128,-1,16
 374 912 374 912 363 925.5 c 128,-1,17
 352 939 352 939 346 957 c 128,-1,18
 340 975 340 975 340 993 c 0,0,1
121 993 m 0,19,20
 122 1058 122 1058 166 1121.5 c 128,-1,21
 210 1185 210 1185 265 1211 c 1,22,-1
 296 1153 l 1,23,24
 280 1144 280 1144 258 1120 c 128,-1,25
 236 1096 236 1096 226 1058 c 1,26,27
 292 1030 292 1030 289 975 c 0,28,29
 289 959 289 959 282.5 944.5 c 128,-1,30
 276 930 276 930 265 919 c 128,-1,31
 254 908 254 908 239 901.5 c 128,-1,32
 224 895 224 895 208 895 c 0,33,34
 188 895 188 895 171.5 903.5 c 128,-1,35
 155 912 155 912 144 925.5 c 128,-1,36
 133 939 133 939 127 957 c 128,-1,37
 121 975 121 975 121 993 c 0,19,20
EndSplineSet
EndChar

StartChar: quotedblright
Encoding: 8221 8221 45
Width: 597
Flags: W
LayerCount: 2
Fore
SplineSet
295 1113 m 0,0,1
 294 1048 294 1048 250 984.5 c 128,-1,2
 206 921 206 921 152 895 c 1,3,-1
 121 953 l 1,4,5
 137 962 137 962 159 986 c 128,-1,6
 181 1010 181 1010 191 1048 c 1,7,8
 125 1076 125 1076 128 1131 c 0,9,10
 128 1147 128 1147 134.5 1161.5 c 128,-1,11
 141 1176 141 1176 151.5 1187 c 128,-1,12
 162 1198 162 1198 176.5 1204.5 c 128,-1,13
 191 1211 191 1211 208 1211 c 0,14,15
 229 1211 229 1211 245 1202.5 c 128,-1,16
 261 1194 261 1194 272 1180.5 c 128,-1,17
 283 1167 283 1167 289 1149 c 128,-1,18
 295 1131 295 1131 295 1113 c 0,0,1
514 1113 m 0,19,20
 513 1048 513 1048 469 984.5 c 128,-1,21
 425 921 425 921 370 895 c 1,22,-1
 339 953 l 1,23,24
 355 962 355 962 377 986 c 128,-1,25
 399 1010 399 1010 409 1048 c 1,26,27
 343 1076 343 1076 346 1131 c 0,28,29
 346 1147 346 1147 352.5 1161.5 c 128,-1,30
 359 1176 359 1176 370 1187 c 128,-1,31
 381 1198 381 1198 395.5 1204.5 c 128,-1,32
 410 1211 410 1211 427 1211 c 0,33,34
 447 1211 447 1211 463 1202.5 c 128,-1,35
 479 1194 479 1194 490.5 1180.5 c 128,-1,36
 502 1167 502 1167 508 1149 c 128,-1,37
 514 1131 514 1131 514 1113 c 0,19,20
EndSplineSet
EndChar

StartChar: divide
Encoding: 247 247 46
Width: 1184
Flags: W
LayerCount: 2
Fore
SplineSet
681 844 m 1,0,-1
 608 709 l 1,1,-1
 429 812 l 1,2,-1
 499 951 l 1,3,-1
 681 844 l 1,0,-1
1000 468 m 1,4,-1
 155 468 l 1,5,-1
 155 575 l 1,6,-1
 1000 575 l 1,7,-1
 1000 468 l 1,4,-1
727 223 m 1,8,-1
 656 88 l 1,9,-1
 477 191 l 1,10,-1
 546 329 l 1,11,-1
 727 223 l 1,8,-1
EndSplineSet
EndChar

StartChar: lozenge
Encoding: 9674 9674 47
Width: 1118
Flags: W
LayerCount: 2
Fore
SplineSet
1003 699 m 1,0,-1
 560 197 l 1,1,-1
 117 699 l 1,2,-1
 560 1202 l 1,3,-1
 1003 699 l 1,0,-1
848 699 m 1,4,-1
 560 1036 l 1,5,-1
 271 699 l 1,6,-1
 560 364 l 1,7,-1
 848 699 l 1,4,-1
EndSplineSet
EndChar

StartChar: fraction
Encoding: 8260 8260 48
Width: 742
Flags: W
LayerCount: 2
Fore
SplineSet
740 1101 m 1,0,-1
 101 -82 l 1,1,-1
 -9 -82 l 1,2,-1
 629 1101 l 1,3,-1
 740 1101 l 1,0,-1
EndSplineSet
EndChar

StartChar: guilsinglleft
Encoding: 8249 8249 49
Width: 1117
Flags: W
LayerCount: 2
Fore
SplineSet
955 58 m 1,0,-1
 150 444 l 1,1,-1
 150 534 l 1,2,-1
 955 918 l 1,3,-1
 955 784 l 1,4,-1
 331 489 l 1,5,-1
 955 192 l 1,6,-1
 955 58 l 1,0,-1
EndSplineSet
EndChar

StartChar: daggerdbl
Encoding: 8225 8225 52
Width: 932
Flags: W
LayerCount: 2
Fore
SplineSet
349 -231 m 1,0,-1
 481 185 l 1,1,-1
 161 154 l 1,2,-1
 211 261 l 1,3,-1
 490 229 l 1,4,-1
 567 616 l 1,5,-1
 247 586 l 1,6,-1
 297 693 l 1,7,-1
 575 661 l 1,8,-1
 608 1066 l 1,9,-1
 758 1093 l 1,10,-1
 620 661 l 1,11,-1
 940 693 l 1,12,-1
 889 586 l 1,13,-1
 611 616 l 1,14,-1
 535 229 l 1,15,-1
 855 261 l 1,16,-1
 804 154 l 1,17,-1
 525 185 l 1,18,-1
 499 -213 l 1,19,-1
 349 -231 l 1,0,-1
EndSplineSet
EndChar

StartChar: middot.001
Encoding: 8729 8729 53
Width: 620
Flags: W
LayerCount: 2
Fore
SplineSet
429 516 m 1,0,-1
 190 516 l 1,1,-1
 190 789 l 1,2,-1
 429 789 l 1,3,-1
 429 516 l 1,0,-1
EndSplineSet
EndChar

StartChar: quotesinglbase
Encoding: 8218 8218 54
Width: 418
Flags: W
LayerCount: 2
Fore
SplineSet
103 128 m 1,0,-1
 247 231 l 1,1,-1
 353 90 l 1,2,3
 345 -56 345 -56 262.5 -134.5 c 128,-1,4
 180 -213 180 -213 36 -213 c 1,5,-1
 76 -168 l 1,6,7
 189 -158 189 -158 211 -18 c 1,8,-1
 103 128 l 1,0,-1
EndSplineSet
EndChar

StartChar: quotedblbase
Encoding: 8222 8222 55
Width: 684
Flags: W
LayerCount: 2
Fore
SplineSet
91 92 m 1,0,-1
 204 178 l 1,1,-1
 292 64 l 1,2,3
 270 -213 270 -213 31 -213 c 1,4,-1
 60 -168 l 1,5,6
 166 -148 166 -148 179 -16 c 1,7,-1
 91 92 l 1,0,-1
401 92 m 1,8,-1
 516 178 l 1,9,-1
 602 64 l 1,10,11
 581 -213 581 -213 341 -213 c 1,12,-1
 372 -168 l 1,13,14
 476 -148 476 -148 490 -16 c 1,15,-1
 401 92 l 1,8,-1
EndSplineSet
EndChar

StartChar: perthousand
Encoding: 8240 8240 56
Width: 1571
Flags: W
LayerCount: 2
Fore
SplineSet
385 533 m 0,0,1
 304 533 304 533 254.5 584.5 c 128,-1,2
 205 636 205 636 205 722 c 0,3,4
 205 865 205 865 286.5 965.5 c 128,-1,5
 368 1066 368 1066 483 1066 c 0,6,7
 567 1066 567 1066 617.5 1014.5 c 128,-1,8
 668 963 668 963 668 877 c 0,9,10
 668 733 668 733 585.5 633 c 128,-1,11
 503 533 503 533 385 533 c 0,0,1
311 715 m 0,12,13
 311 578 311 578 398 578 c 0,14,15
 463 578 463 578 517 671.5 c 128,-1,16
 571 765 571 765 571 881 c 0,17,18
 571 1022 571 1022 483 1022 c 0,19,20
 416 1022 416 1022 363.5 928 c 128,-1,21
 311 834 311 834 311 715 c 0,12,13
850 0 m 0,22,23
 769 0 769 0 719.5 51.5 c 128,-1,24
 670 103 670 103 670 189 c 0,25,26
 670 331 670 331 751 432 c 128,-1,27
 832 533 832 533 947 533 c 0,28,29
 1031 533 1031 533 1081.5 481.5 c 128,-1,30
 1132 430 1132 430 1132 344 c 0,31,32
 1132 200 1132 200 1049.5 100 c 128,-1,33
 967 0 967 0 850 0 c 0,22,23
776 182 m 0,34,35
 776 44 776 44 862 44 c 0,36,37
 929 44 929 44 982 138 c 128,-1,38
 1035 232 1035 232 1035 348 c 0,39,40
 1035 490 1035 490 948 490 c 0,41,42
 880 490 880 490 828 395.5 c 128,-1,43
 776 301 776 301 776 182 c 0,34,35
131 -27 m 1,44,-1
 1111 1093 l 1,45,-1
 1206 1093 l 1,46,-1
 225 -27 l 1,47,-1
 131 -27 l 1,44,-1
1376 0 m 0,48,49
 1294 0 1294 0 1244.5 51.5 c 128,-1,50
 1195 103 1195 103 1195 189 c 0,51,52
 1195 331 1195 331 1276.5 432 c 128,-1,53
 1358 533 1358 533 1473 533 c 0,54,55
 1557 533 1557 533 1607.5 481.5 c 128,-1,56
 1658 430 1658 430 1658 344 c 0,57,58
 1658 200 1658 200 1575.5 100 c 128,-1,59
 1493 0 1493 0 1376 0 c 0,48,49
1301 183 m 0,60,61
 1301 44 1301 44 1389 44 c 0,62,63
 1453 44 1453 44 1507 138 c 128,-1,64
 1561 232 1561 232 1561 347 c 0,65,66
 1561 490 1561 490 1473 490 c 0,67,68
 1406 490 1406 490 1353.5 395.5 c 128,-1,69
 1301 301 1301 301 1301 183 c 0,60,61
EndSplineSet
EndChar

StartChar: multiply
Encoding: 215 215 60
Width: 957
Flags: W
LayerCount: 2
Fore
SplineSet
803 731 m 1,0,-1
 575 504 l 1,1,-1
 801 277 l 1,2,-1
 705 181 l 1,3,-1
 479 408 l 1,4,-1
 253 181 l 1,5,-1
 161 273 l 1,6,-1
 387 499 l 1,7,-1
 159 727 l 1,8,-1
 255 823 l 1,9,-1
 483 596 l 1,10,-1
 711 823 l 1,11,-1
 803 731 l 1,0,-1
EndSplineSet
EndChar

StartChar: macron
Encoding: 175 175 61
Width: 1118
Flags: W
LayerCount: 2
Fore
SplineSet
1134 1259 m 1,0,-1
 -16 1259 l 1,1,-1
 -16 1389 l 1,2,-1
 1134 1389 l 1,3,-1
 1134 1259 l 1,0,-1
EndSplineSet
EndChar

StartChar: periodcentered
Encoding: 183 183 62
Width: 724
Flags: W
LayerCount: 2
Fore
SplineSet
482 832 m 1,0,-1
 243 832 l 1,1,-1
 243 1117 l 1,2,-1
 482 1117 l 1,3,-1
 482 832 l 1,0,-1
EndSplineSet
EndChar

StartChar: H22073
Encoding: 9633 9633 63
Width: 1237
Flags: W
LayerCount: 2
Fore
SplineSet
146 944 m 1,0,-1
 1090 944 l 1,1,-1
 1090 0 l 1,2,-1
 146 0 l 1,3,-1
 146 944 l 1,0,-1
222 868 m 1,4,-1
 222 76 l 1,5,-1
 1014 76 l 1,6,-1
 1014 868 l 1,7,-1
 222 868 l 1,4,-1
EndSplineSet
EndChar

StartChar: H18543
Encoding: 9642 9642 64
Width: 1089
Flags: W
LayerCount: 2
Fore
SplineSet
886 894 m 1,0,-1
 886 200 l 1,1,-1
 192 200 l 1,2,-1
 192 894 l 1,3,-1
 886 894 l 1,0,-1
EndSplineSet
EndChar

StartChar: H18551
Encoding: 9643 9643 65
Width: 1089
Flags: W
LayerCount: 2
Fore
SplineSet
888 930 m 1,0,-1
 888 235 l 1,1,-1
 193 235 l 1,2,-1
 193 930 l 1,3,-1
 888 930 l 1,0,-1
774 816 m 1,4,-1
 307 816 l 1,5,-1
 307 349 l 1,6,-1
 774 349 l 1,7,-1
 774 816 l 1,4,-1
EndSplineSet
EndChar

StartChar: H18533
Encoding: 9679 9679 66
Width: 1339
Flags: W
LayerCount: 2
Fore
SplineSet
204 775 m 0,0,1
 204 976 204 976 345 1117 c 128,-1,2
 486 1258 486 1258 685 1258 c 0,3,4
 885 1258 885 1258 1026 1117 c 128,-1,5
 1167 976 1167 976 1167 775 c 0,6,7
 1167 577 1167 577 1026 436 c 128,-1,8
 885 295 885 295 685 295 c 0,9,10
 486 295 486 295 345 436 c 128,-1,11
 204 577 204 577 204 775 c 0,0,1
EndSplineSet
EndChar

StartChar: openbullet
Encoding: 9702 9702 67
Width: 1089
Flags: W
LayerCount: 2
Fore
SplineSet
544 1392 m 0,0,1
 700 1392 700 1392 810.5 1281.5 c 128,-1,2
 921 1171 921 1171 921 1015 c 256,3,4
 921 859 921 859 810.5 749 c 128,-1,5
 700 639 700 639 544 639 c 256,6,7
 388 639 388 639 278 749 c 128,-1,8
 168 859 168 859 168 1015 c 256,9,10
 168 1171 168 1171 277.5 1281.5 c 128,-1,11
 387 1392 387 1392 544 1392 c 0,0,1
544 1278 m 0,12,13
 435 1278 435 1278 358.5 1200.5 c 128,-1,14
 282 1123 282 1123 282 1015 c 0,15,16
 282 906 282 906 359 829.5 c 128,-1,17
 436 753 436 753 544 753 c 256,18,19
 652 753 652 753 729.5 829.5 c 128,-1,20
 807 906 807 906 807 1015 c 0,21,22
 807 1123 807 1123 730.5 1200.5 c 128,-1,23
 654 1278 654 1278 544 1278 c 0,12,13
EndSplineSet
EndChar

StartChar: uniFFFC
Encoding: 65532 65532 68
Width: 2048
Flags: W
LayerCount: 2
Fore
SplineSet
2048 1150 m 1,0,-1
 1948 1150 l 1,1,-1
 1948 1373 l 1,2,-1
 1725 1373 l 1,3,-1
 1725 1473 l 1,4,-1
 2048 1473 l 1,5,-1
 2048 1150 l 1,0,-1
1473 1373 m 1,6,-1
 1150 1373 l 1,7,-1
 1150 1473 l 1,8,-1
 1473 1473 l 1,9,-1
 1473 1373 l 1,6,-1
2048 575 m 1,10,-1
 1948 575 l 1,11,-1
 1948 898 l 1,12,-1
 2048 898 l 1,13,-1
 2048 575 l 1,10,-1
1782 611 m 2,14,15
 1782 370 1782 370 1571 370 c 0,16,17
 1485 370 1485 370 1433 415 c 1,18,-1
 1506 494 l 1,19,20
 1531 468 1531 468 1571 468 c 0,21,22
 1666 468 1666 468 1666 606 c 2,23,-1
 1666 1090 l 1,24,-1
 1782 1090 l 1,25,-1
 1782 611 l 2,14,15
898 1373 m 1,26,-1
 575 1373 l 1,27,-1
 575 1473 l 1,28,-1
 898 1473 l 1,29,-1
 898 1373 l 1,26,-1
2048 0 m 1,30,-1
 1725 0 l 1,31,-1
 1725 100 l 1,32,-1
 1948 100 l 1,33,-1
 1948 323 l 1,34,-1
 2048 323 l 1,35,-1
 2048 0 l 1,30,-1
1423 591 m 0,36,37
 1423 382 1423 382 1149 382 c 2,38,-1
 909 382 l 1,39,-1
 909 1090 l 1,40,-1
 1144 1090 l 2,41,42
 1393 1090 1393 1090 1393 904 c 0,43,44
 1393 813 1393 813 1304 759 c 1,45,46
 1423 713 1423 713 1423 591 c 0,36,37
323 1373 m 1,47,-1
 100 1373 l 1,48,-1
 100 1150 l 1,49,-1
 0 1150 l 1,50,-1
 0 1473 l 1,51,-1
 323 1473 l 1,52,-1
 323 1373 l 1,47,-1
1473 0 m 1,53,-1
 1150 0 l 1,54,-1
 1150 100 l 1,55,-1
 1473 100 l 1,56,-1
 1473 0 l 1,53,-1
854 735 m 0,57,58
 854 562 854 562 772 466 c 128,-1,59
 690 370 690 370 537 370 c 256,60,61
 384 370 384 370 303.5 466 c 128,-1,62
 223 562 223 562 223 735 c 0,63,64
 223 910 223 910 303.5 1006 c 128,-1,65
 384 1102 384 1102 537 1102 c 256,66,67
 690 1102 690 1102 772 1006 c 128,-1,68
 854 910 854 910 854 735 c 0,57,58
100 575 m 1,69,-1
 0 575 l 1,70,-1
 0 898 l 1,71,-1
 100 898 l 1,72,-1
 100 575 l 1,69,-1
898 0 m 1,73,-1
 575 0 l 1,74,-1
 575 100 l 1,75,-1
 898 100 l 1,76,-1
 898 0 l 1,73,-1
323 0 m 1,77,-1
 0 0 l 1,78,-1
 0 323 l 1,79,-1
 100 323 l 1,80,-1
 100 100 l 1,81,-1
 323 100 l 1,82,-1
 323 0 l 1,77,-1
1277 893 m 0,83,84
 1277 992 1277 992 1114 992 c 2,85,-1
 1025 992 l 1,86,-1
 1025 798 l 1,87,-1
 1126 798 l 2,88,89
 1277 798 1277 798 1277 893 c 0,83,84
1307 591 m 0,90,91
 1307 700 1307 700 1136 700 c 2,92,-1
 1025 700 l 1,93,-1
 1025 480 l 1,94,-1
 1149 480 l 2,95,96
 1307 480 1307 480 1307 591 c 0,90,91
738 735 m 0,97,98
 738 1004 738 1004 537 1004 c 0,99,100
 339 1004 339 1004 339 735 c 0,101,102
 339 468 339 468 537 468 c 0,103,104
 738 468 738 468 738 735 c 0,97,98
EndSplineSet
EndChar

StartChar: zerowidthnonjoiner
Encoding: 8204 8204 88
Width: 0
GlyphClass: 2
Flags: W
LayerCount: 2
Fore
SplineSet
36 1289 m 1,0,-1
 36 -275 l 1,1,-1
 -36 -275 l 1,2,-1
 -36 1289 l 1,3,-1
 36 1289 l 1,0,-1
EndSplineSet
EndChar

StartChar: zerowidthjoiner
Encoding: 8205 8205 89
Width: 0
GlyphClass: 2
Flags: W
LayerCount: 2
Fore
SplineSet
36 -275 m 1,0,-1
 -36 -275 l 1,1,-1
 -36 1114 l 1,2,-1
 -170 978 l 1,3,-1
 -219 1027 l 1,4,-1
 -48 1196 l 1,5,-1
 -219 1364 l 1,6,-1
 -170 1413 l 1,7,-1
 0 1242 l 1,8,-1
 170 1413 l 1,9,-1
 219 1364 l 1,10,-1
 48 1196 l 1,11,-1
 219 1027 l 1,12,-1
 170 978 l 1,13,-1
 36 1114 l 1,14,-1
 36 -275 l 1,0,-1
EndSplineSet
EndChar

StartChar: lefttorightmark
Encoding: 8206 8206 90
Width: 0
GlyphClass: 2
Flags: W
LayerCount: 2
Fore
SplineSet
430 1198 m 1,0,-1
 213 984 l 1,1,-1
 164 1033 l 1,2,-1
 301 1163 l 1,3,-1
 35 1163 l 1,4,-1
 35 -275 l 1,5,-1
 -36 -275 l 1,6,-1
 -36 1234 l 1,7,-1
 301 1234 l 1,8,-1
 164 1364 l 1,9,-1
 213 1413 l 1,10,-1
 430 1198 l 1,0,-1
EndSplineSet
EndChar

StartChar: righttoleftmark
Encoding: 8207 8207 91
Width: 0
GlyphClass: 2
Flags: W
LayerCount: 2
Fore
SplineSet
35 -275 m 1,0,-1
 -36 -275 l 1,1,-1
 -36 1163 l 1,2,-1
 -302 1163 l 1,3,-1
 -165 1033 l 1,4,-1
 -214 984 l 1,5,-1
 -431 1198 l 1,6,-1
 -214 1413 l 1,7,-1
 -165 1364 l 1,8,-1
 -302 1234 l 1,9,-1
 35 1234 l 1,10,-1
 35 -275 l 1,0,-1
EndSplineSet
EndChar

StartChar: afii57388.001
Encoding: 1644 1644 92
Width: 353
GlyphClass: 2
Flags: W
LayerCount: 2
Fore
SplineSet
210 654 m 0,0,1
 200 627 200 627 185 603 c 0,2,3
 180 597 180 597 173.5 593.5 c 128,-1,4
 167 590 167 590 162 590 c 128,-1,5
 157 590 157 590 154.5 593 c 128,-1,6
 152 596 152 596 155 603 c 0,7,8
 187 660 187 660 202.5 713.5 c 128,-1,9
 218 767 218 767 218 800 c 1,10,11
 194 806 194 806 179 816 c 128,-1,12
 164 826 164 826 155 837.5 c 128,-1,13
 146 849 146 849 143 859 c 128,-1,14
 140 869 140 869 140 874 c 0,15,16
 140 890 140 890 145.5 907 c 128,-1,17
 151 924 151 924 160.5 937.5 c 128,-1,18
 170 951 170 951 183.5 959.5 c 128,-1,19
 197 968 197 968 213 968 c 0,20,21
 272 968 272 968 272 874 c 0,22,23
 272 859 272 859 268 835 c 128,-1,24
 264 811 264 811 256 781.5 c 128,-1,25
 248 752 248 752 236.5 719.5 c 128,-1,26
 225 687 225 687 210 654 c 0,0,1
EndSplineSet
EndChar

StartChar: afii57409
Encoding: 1569 1569 93
Width: 581
GlyphClass: 2
Flags: W
AnchorPoint: "Anchor-3" 390 -315 basechar 0
AnchorPoint: "Anchor-2" 285 585 basechar 0
LayerCount: 2
Fore
SplineSet
569 262 m 1,0,1
 569 232 569 232 542 184.5 c 128,-1,2
 515 137 515 137 490 122 c 0,3,4
 460 104 460 104 401 68 c 2,5,-1
 212 -46 l 1,6,7
 202 -46 202 -46 182 -30 c 1,8,-1
 174 -6 l 1,9,-1
 176 6 l 1,10,11
 207 35 207 35 244 93 c 1,12,13
 187 105 187 105 174 111 c 0,14,15
 111 136 111 136 111 215 c 0,16,17
 111 283 111 283 176 349 c 0,18,19
 236 410 236 410 306 428 c 0,20,21
 370 445 370 445 376 445 c 0,22,23
 402 445 402 445 415 432 c 1,24,-1
 420 421 l 1,25,26
 387 278 387 278 352 278 c 0,27,28
 343 278 343 278 312 314 c 0,29,30
 307 315 307 315 301 317 c 0,31,32
 242 317 242 317 206 253 c 1,33,34
 212 209 212 209 317 209 c 0,35,36
 347 209 347 209 537 267 c 0,37,38
 549 270 549 270 555 270 c 0,39,40
 563 270 563 270 569 262 c 1,0,1
EndSplineSet
EndChar

StartChar: afii57440
Encoding: 1600 1600 94
Width: 345
GlyphClass: 2
Flags: W
LayerCount: 2
Fore
SplineSet
371 0 m 1,0,-1
 -23 0 l 1,1,-1
 -23 167 l 1,2,-1
 371 167 l 1,3,-1
 371 0 l 1,0,-1
EndSplineSet
EndChar

StartChar: afii57453
Encoding: 1613 1613 95
Width: 0
GlyphClass: 4
Flags: W
AnchorPoint: "Anchor-3" 0 0 mark 0
AnchorPoint: "Anchor-1" 0 0 mark 0
LayerCount: 2
Fore
SplineSet
193 45 m 1,0,-1
 171 -48 l 1,1,-1
 -189 -160 l 1,2,-1
 -175 -67 l 1,3,-1
 193 45 l 1,0,-1
193 208 m 1,4,-1
 171 115 l 1,5,-1
 -189 3 l 1,6,-1
 -175 96 l 1,7,-1
 193 208 l 1,4,-1
EndSplineSet
EndChar

StartChar: afii57381
Encoding: 1642 1642 96
Width: 1322
GlyphClass: 2
Flags: W
LayerCount: 2
Fore
SplineSet
431 1128 m 1,0,-1
 347 970 l 1,1,-1
 140 1090 l 1,2,-1
 220 1251 l 1,3,-1
 431 1128 l 1,0,-1
1015 1322 m 1,4,-1
 286 12 l 1,5,-1
 233 81 l 1,6,-1
 965 1389 l 1,7,-1
 1015 1322 l 1,4,-1
1058 248 m 1,8,-1
 976 90 l 1,9,-1
 768 211 l 1,10,-1
 847 371 l 1,11,-1
 1058 248 l 1,8,-1
EndSplineSet
EndChar

StartChar: afii57461
Encoding: 1643 1643 97
Width: 536
GlyphClass: 2
Flags: W
LayerCount: 2
Fore
SplineSet
518 521 m 1,0,-1
 115 -382 l 1,1,-1
 19 -352 l 1,2,-1
 425 551 l 1,3,-1
 518 521 l 1,0,-1
EndSplineSet
EndChar

StartChar: afii63167
Encoding: 1645 1645 98
Width: 1118
GlyphClass: 2
Flags: W
LayerCount: 2
Fore
SplineSet
694 729 m 1,0,-1
 1057 733 l 1,1,-1
 1057 610 l 1,2,-1
 702 612 l 1,3,-1
 971 352 l 1,4,-1
 883 264 l 1,5,-1
 616 539 l 1,6,-1
 623 168 l 1,7,-1
 498 168 l 1,8,-1
 502 539 l 1,9,-1
 236 264 l 1,10,-1
 147 352 l 1,11,-1
 422 614 l 1,12,-1
 63 610 l 1,13,-1
 63 733 l 1,14,-1
 420 729 l 1,15,-1
 170 975 l 1,16,-1
 258 1065 l 1,17,-1
 502 817 l 1,18,-1
 498 1176 l 1,19,-1
 623 1176 l 1,20,-1
 616 813 l 1,21,-1
 860 1065 l 1,22,-1
 948 975 l 1,23,-1
 694 729 l 1,0,-1
EndSplineSet
EndChar

StartChar: afii57459
Encoding: 65543 -1 99
Width: 600
GlyphClass: 2
Flags: W
LayerCount: 2
Fore
SplineSet
584 352 m 2,0,1
 584 213 584 213 528 148 c 0,2,3
 477 87 477 87 329 41 c 0,4,5
 197 0 197 0 101 0 c 2,6,-1
 -12 0 l 1,7,-1
 -12 167 l 1,8,9
 152 167 152 167 223 176 c 0,10,11
 345 193 345 193 445 250 c 0,12,13
 489 275 489 275 489 288 c 0,14,15
 489 367 489 367 433 428 c 1,16,-1
 420 428 l 2,17,18
 415 428 415 428 409 426 c 0,19,20
 332 334 332 334 236 313 c 0,21,22
 214 308 214 308 206 308 c 0,23,24
 148 308 148 308 148 431 c 0,25,26
 148 432 148 432 151 450 c 0,27,28
 198 711 198 711 340 772 c 1,29,30
 397 771 397 771 493 612 c 0,31,32
 584 459 584 459 584 394 c 2,33,-1
 584 352 l 2,0,1
381 538 m 1,34,35
 378 549 378 549 345 575.5 c 128,-1,36
 312 602 312 602 301 602 c 0,37,38
 280 602 280 602 261 563 c 0,39,40
 244 529 244 529 244 505 c 0,41,42
 244 495 244 495 245 488 c 1,43,44
 262 482 262 482 275 482 c 0,45,46
 367 482 367 482 381 538 c 1,34,35
EndSplineSet
EndChar

StartChar: afii57543
Encoding: 65544 -1 100
Width: 532
Flags: W
LayerCount: 2
Fore
SplineSet
571 0 m 1,0,-1
 457 0 l 2,1,2
 347 0 347 0 311 44 c 2,3,-1
 262 102 l 1,4,5
 193 0 193 0 -12 0 c 1,6,-1
 -12 167 l 1,7,8
 167 167 167 167 218 218 c 0,9,10
 227 227 227 227 244 308 c 0,11,12
 263 402 263 402 267 411 c 0,13,14
 274 428 274 428 299 438 c 1,15,16
 318 435 318 435 322.5 423.5 c 128,-1,17
 327 412 327 412 324 387 c 0,18,19
 324 365 324 365 321.5 322 c 128,-1,20
 319 279 319 279 319 257 c 1,21,22
 346 215 346 215 429 189 c 0,23,24
 501 167 501 167 571 167 c 1,25,-1
 571 0 l 1,0,-1
EndSplineSet
EndChar

StartChar: afii57534
Encoding: 1749 1749 101
Width: 540
GlyphClass: 2
Flags: W
LayerCount: 2
Fore
SplineSet
481 297 m 0,0,1
 481 263 481 263 465 213 c 0,2,3
 425 82 425 82 296 21 c 0,4,5
 221 -14 221 -14 169 -14 c 0,6,7
 81 -14 81 -14 81 112 c 0,8,9
 81 125 81 125 96 195 c 0,10,11
 121 308 121 308 218 445 c 1,12,13
 221 486 221 486 252 502 c 1,14,15
 342 502 342 502 401 455 c 0,16,17
 481 391 481 391 481 297 c 0,0,1
386 243 m 0,18,19
 386 273 386 273 327 307 c 0,20,21
 274 338 274 338 240 338 c 0,22,23
 227 338 227 338 194.5 278 c 128,-1,24
 162 218 162 218 162 200 c 0,25,26
 162 178 162 178 188 162 c 128,-1,27
 214 146 214 146 237 146 c 0,28,29
 271 146 271 146 326 178 c 0,30,31
 386 212 386 212 386 243 c 0,18,19
EndSplineSet
EndChar

StartChar: afii64240
Encoding: 65546 -1 103
Width: 333
Flags: W
LayerCount: 2
Fore
SplineSet
279 -104 m 1,0,-1
 211 -235 l 1,1,-1
 38 -135 l 1,2,-1
 107 -1 l 1,3,-1
 279 -104 l 1,0,-1
EndSplineSet
EndChar

StartChar: afii64241
Encoding: 65547 -1 104
Width: 549
Flags: W
LayerCount: 2
Fore
SplineSet
504 135 m 1,0,-1
 438 3 l 1,1,-1
 261 103 l 1,2,-1
 330 237 l 1,3,-1
 504 135 l 1,0,-1
266 135 m 1,4,-1
 197 3 l 1,5,-1
 25 103 l 1,6,-1
 90 237 l 1,7,-1
 266 135 l 1,4,-1
EndSplineSet
EndChar

StartChar: afii63954
Encoding: 65548 -1 105
Width: 571
Flags: W
LayerCount: 2
Fore
SplineSet
522 137 m 1,0,-1
 456 6 l 1,1,-1
 280 105 l 1,2,-1
 350 240 l 1,3,-1
 522 137 l 1,0,-1
331 342 m 1,4,-1
 262 210 l 1,5,-1
 88 310 l 1,6,-1
 157 444 l 1,7,-1
 331 342 l 1,4,-1
284 137 m 1,8,-1
 215 6 l 1,9,-1
 42 105 l 1,10,-1
 107 240 l 1,11,-1
 284 137 l 1,8,-1
EndSplineSet
EndChar

StartChar: afii57382
Encoding: 65549 -1 106
Width: 553
Flags: W
LayerCount: 2
Fore
SplineSet
515 -102 m 1,0,-1
 446 -239 l 1,1,-1
 272 -137 l 1,2,-1
 341 -4 l 1,3,-1
 515 -102 l 1,0,-1
468 -311 m 1,4,-1
 399 -444 l 1,5,-1
 225 -342 l 1,6,-1
 294 -211 l 1,7,-1
 468 -311 l 1,4,-1
274 -102 m 1,8,-1
 208 -239 l 1,9,-1
 32 -137 l 1,10,-1
 99 -4 l 1,11,-1
 274 -102 l 1,8,-1
EndSplineSet
EndChar

StartChar: afii64242
Encoding: 65550 -1 107
Width: 401
Flags: W
LayerCount: 2
Fore
SplineSet
394 351 m 0,0,1
 394 307 394 307 333 140 c 0,2,3
 321 107 321 107 244 61 c 0,4,5
 133 -6 133 -6 -12 0 c 1,6,-1
 -12 167 l 1,7,8
 105 167 105 167 115 174 c 1,9,10
 137 176 137 176 195 199 c 0,11,12
 290 236 290 236 290 276 c 0,13,14
 290 308 290 308 162 431 c 1,15,16
 162 459 162 459 174 506 c 0,17,18
 188 562 188 562 202 569 c 1,19,20
 225 569 225 569 269 540 c 0,21,22
 394 459 394 459 394 351 c 0,0,1
EndSplineSet
EndChar

StartChar: afii57373
Encoding: 65551 -1 112
Width: 444
Flags: W
LayerCount: 2
Fore
SplineSet
410 1501 m 0,0,1
 410 1478 410 1478 390 1441 c 128,-1,2
 370 1404 370 1404 351 1393 c 2,3,-1
 282 1352 l 1,4,5
 228 1314 228 1314 134 1262 c 0,6,7
 116 1256 116 1256 106 1291 c 1,8,9
 131 1320 131 1320 159 1370 c 1,10,-1
 99 1387 l 2,11,12
 53 1399 53 1399 53 1476 c 0,13,14
 53 1532 53 1532 130 1591 c 0,15,16
 203 1646 203 1646 262 1646 c 0,17,18
 275 1646 275 1646 291 1635 c 0,19,20
 294 1631 294 1631 295 1623 c 0,21,22
 295 1597 295 1597 275 1562 c 0,23,24
 254 1524 254 1524 231 1516 c 0,25,26
 219 1516 219 1516 206 1533 c 1,27,28
 172 1527 172 1527 162 1524 c 0,29,30
 137 1515 137 1515 127 1496 c 1,31,32
 135 1462 135 1462 214 1462 c 0,33,34
 243 1462 243 1462 306 1485 c 128,-1,35
 369 1508 369 1508 397 1508 c 0,36,37
 410 1508 410 1508 410 1501 c 0,0,1
EndSplineSet
EndChar

StartChar: afii57374
Encoding: 65552 -1 113
Width: 486
GlyphClass: 2
Flags: W
LayerCount: 2
Fore
SplineSet
501 0 m 1,0,-1
 362 0 l 2,1,2
 321 0 321 0 183 19 c 1,3,4
 127 0 127 0 45 0 c 2,5,-1
 -12 0 l 1,6,-1
 -12 167 l 1,7,-1
 95 167 l 1,8,9
 95 280 95 280 111 337 c 0,10,11
 133 421 133 421 202 477 c 0,12,13
 253 519 253 519 283 519 c 0,14,15
 406 519 406 519 409 243 c 0,16,17
 410 171 410 171 409 167 c 1,18,-1
 501 167 l 1,19,-1
 501 0 l 1,0,-1
332 251 m 0,20,21
 332 276 332 276 304.5 311.5 c 128,-1,22
 277 347 277 347 252 347 c 0,23,24
 229 347 229 347 194 311 c 128,-1,25
 159 275 159 275 159 252 c 1,26,27
 188 195 188 195 262 195 c 0,28,29
 332 195 332 195 332 251 c 0,20,21
EndSplineSet
EndChar

StartChar: afii57375
Encoding: 1619 1619 114
Width: 659
GlyphClass: 2
Flags: W
LayerCount: 2
Fore
SplineSet
649 1372 m 1,0,1
 637 1338 637 1338 593 1300 c 0,2,3
 544 1257 544 1257 486.5 1235 c 128,-1,4
 429 1213 429 1213 381 1224 c 0,5,6
 270 1255 270 1255 208 1257 c 0,7,8
 152 1262 152 1262 35 1160 c 0,9,10
 33 1157 33 1157 30 1157 c 0,11,12
 25 1157 25 1157 22 1160 c 2,13,-1
 17 1176 l 1,14,15
 88 1369 88 1369 249 1369 c 0,16,17
 279 1369 279 1369 338 1350 c 128,-1,18
 397 1331 397 1331 427 1331 c 0,19,20
 469 1331 469 1331 598 1382 c 0,21,22
 611 1389 611 1389 636 1398 c 1,23,24
 650 1392 650 1392 649 1372 c 1,0,1
EndSplineSet
EndChar

StartChar: afii57391
Encoding: 59450 59450 115
Width: 1024
GlyphClass: 2
Flags: W
LayerCount: 2
Fore
SplineSet
1024 0 m 1,0,-1
 -70 0 l 1,1,-1
 -70 188 l 1,2,-1
 1024 188 l 1,3,-1
 1024 0 l 1,0,-1
EndSplineSet
EndChar

StartChar: afii57471
Encoding: 65553 -1 116
Width: 1234
Flags: W
LayerCount: 2
Fore
SplineSet
1253 0 m 1,0,-1
 1153 0 l 2,1,2
 1098 0 1098 0 1060 39 c 128,-1,3
 1022 78 1022 78 1005 95 c 1,4,5
 817 -34 817 -34 324 -10 c 0,6,7
 71 0 71 0 66 221 c 0,8,9
 63 276 63 276 77 338.5 c 128,-1,10
 91 401 91 401 130.5 477.5 c 128,-1,11
 170 554 170 554 241 633 c 0,12,13
 252 643 252 643 262 643 c 0,14,15
 287 643 287 643 287 602 c 0,16,17
 287 601 287 601 220.5 504 c 128,-1,18
 154 407 154 407 148 333 c 1,19,20
 148 233 148 233 226 193 c 0,21,22
 286 162 286 162 497 166 c 0,23,24
 763 167 763 167 853 191.5 c 128,-1,25
 943 216 943 216 962 233 c 0,26,27
 973 243 973 243 990 342 c 0,28,29
 1005 428 1005 428 1038 430 c 1,30,31
 1059 425 1059 425 1063.5 404.5 c 128,-1,32
 1068 384 1068 384 1066 336 c 128,-1,33
 1064 288 1064 288 1062 257 c 1,34,35
 1104 167 1104 167 1209 167 c 2,36,-1
 1253 167 l 1,37,-1
 1253 0 l 1,0,-1
EndSplineSet
EndChar

StartChar: afii52258
Encoding: 65554 -1 117
Width: 1053
GlyphClass: 2
Flags: W
LayerCount: 2
Fore
SplineSet
1071 0 m 1,0,-1
 972 0 l 2,1,2
 875 0 875 0 829 5 c 1,3,4
 534 -95 534 -95 340 -95 c 0,5,6
 48 -95 48 -95 48 108 c 0,7,8
 48 160 48 160 68 253 c 0,9,10
 89 352 89 352 114 390 c 2,11,-1
 154 450 l 2,12,13
 194 512 194 512 239 530 c 1,14,15
 264 530 264 530 264 489 c 0,16,17
 264 487 264 487 194.5 378 c 128,-1,18
 125 269 125 269 125 220 c 0,19,20
 125 79 125 79 334 79 c 0,21,22
 395 79 395 79 474 86 c 0,23,24
 538 92 538 92 558 96 c 0,25,26
 602 107 602 107 631 138 c 1,27,-1
 626 183 l 1,28,29
 626 229 626 229 638 269 c 0,30,31
 661 346 661 346 672 368 c 0,32,33
 687 396 687 396 741 450 c 0,34,35
 785 494 785 494 821 494 c 0,36,37
 891 494 891 494 938 414 c 0,38,39
 976 349 976 349 976 271 c 2,40,-1
 976 203 l 2,41,42
 976 175 976 175 967 167 c 1,43,-1
 1071 167 l 1,44,-1
 1071 0 l 1,0,-1
872 223 m 0,45,46
 872 252 872 252 845 288 c 128,-1,47
 818 324 818 324 790 324 c 1,48,49
 702 288 702 288 700 226 c 1,50,51
 731 169 731 169 806 169 c 0,52,53
 828 169 828 169 850 185 c 128,-1,54
 872 201 872 201 872 223 c 0,45,46
EndSplineSet
EndChar

StartChar: afii62889
Encoding: 65555 -1 123
Width: 960
Flags: W
LayerCount: 2
Fore
SplineSet
982 0 m 1,0,-1
 881 0 l 1,1,2
 881 -181 881 -181 823 -261 c 0,3,4
 796 -298 796 -298 670 -352 c 0,5,6
 489 -430 489 -430 309 -430 c 0,7,8
 191 -430 191 -430 114 -367 c 0,9,10
 32 -300 32 -300 32 -183 c 0,11,12
 32 -113 32 -113 55 -30 c 0,13,14
 99 132 99 132 198 218 c 0,15,16
 207 226 207 226 220 227 c 1,17,18
 226 223 226 223 237 213 c 1,19,20
 242 200 242 200 245 186 c 0,21,22
 245 183 245 183 173.5 70.5 c 128,-1,23
 102 -42 102 -42 102 -83 c 0,24,25
 102 -159 102 -159 178 -206 c 0,26,27
 237 -242 237 -242 359 -242 c 0,28,29
 382 -242 382 -242 513 -220 c 0,30,31
 810 -171 810 -171 810 -38 c 0,32,33
 810 -13 810 -13 804 -2 c 1,34,35
 734 -10 734 -10 695 -10 c 0,36,37
 502 -10 502 -10 502 105 c 0,38,39
 502 312 502 312 610 433 c 0,40,41
 667 496 667 496 697 496 c 0,42,43
 771 496 771 496 831 364 c 0,44,45
 881 253 881 253 881 167 c 1,46,-1
 982 167 l 1,47,-1
 982 0 l 1,0,-1
762 171 m 1,48,49
 762 212 762 212 726.5 260 c 128,-1,50
 691 308 691 308 652 311 c 1,51,52
 609 293 609 293 597 228 c 1,53,54
 619 169 619 169 712 169 c 2,55,-1
 758 169 l 1,56,-1
 762 171 l 1,48,49
EndSplineSet
EndChar

StartChar: afii62887
Encoding: 65556 -1 124
Width: 1153
Flags: W
LayerCount: 2
Fore
SplineSet
1109 384 m 0,0,1
 1109 366 1109 366 1097 311 c 0,2,3
 1075 204 1075 204 1022 161 c 0,4,5
 988 132 988 132 865 84 c 0,6,7
 635 -5 635 -5 301 -5 c 0,8,9
 48 -5 48 -5 48 221 c 0,10,11
 48 287 48 287 67 366.5 c 128,-1,12
 86 446 86 446 132 523 c 128,-1,13
 178 600 178 600 218 633 c 0,14,15
 229 643 229 643 239 643 c 0,16,17
 264 643 264 643 256 602 c 1,18,19
 256 602 256 602 193 504 c 128,-1,20
 130 406 130 406 125 333 c 1,21,22
 125 233 125 233 203 193 c 0,23,24
 247 170 247 170 378 164 c 0,25,26
 431 162 431 162 484 162 c 0,27,28
 599 162 599 162 796 223 c 0,29,30
 870 245 870 245 908 262 c 0,31,32
 994 299 994 299 995 328 c 1,33,34
 971 381 971 381 875 474 c 1,35,36
 875 502 875 502 886 548 c 0,37,38
 900 601 900 601 916 612 c 1,39,40
 947 612 947 612 1014 558 c 0,41,42
 1109 482 1109 482 1109 384 c 0,0,1
EndSplineSet
EndChar

StartChar: afii62888
Encoding: 1697 1697 125
Width: 1097
GlyphClass: 2
Flags: W
LayerCount: 2
Fore
SplineSet
1075 334 m 0,0,1
 1075 143 1075 143 969 37 c 0,2,3
 837 -95 837 -95 322 -95 c 0,4,5
 48 -95 48 -95 48 108 c 0,6,7
 48 160 48 160 68 253 c 0,8,9
 89 352 89 352 114 390 c 2,10,-1
 154 450 l 2,11,12
 194 512 194 512 239 530 c 1,13,14
 264 530 264 530 264 489 c 0,15,16
 264 486 264 486 194.5 377.5 c 128,-1,17
 125 269 125 269 125 220 c 0,18,19
 125 79 125 79 334 79 c 0,20,21
 357 79 357 79 474 86 c 0,22,23
 636 96 636 96 758 107 c 1,24,25
 858 144 858 144 883 157 c 0,26,27
 951 192 951 192 981 245 c 1,28,29
 981 332 981 332 922 386 c 1,30,-1
 907 386 l 2,31,32
 902 386 902 386 897 383 c 0,33,34
 802 267 802 267 689 267 c 0,35,36
 668 267 668 267 654 280 c 1,37,38
 635 313 635 313 635 382 c 0,39,40
 635 464 635 464 695 580 c 0,41,42
 759 703 759 703 827 731 c 1,43,44
 922 695 922 695 1019 495 c 0,45,46
 1075 379 1075 379 1075 334 c 0,0,1
868 494 m 1,47,48
 865 506 865 506 833.5 532.5 c 128,-1,49
 802 559 802 559 790 559 c 0,50,51
 768 559 768 559 750 522 c 0,52,53
 734 491 734 491 734 465 c 0,54,55
 734 450 734 450 737 445 c 0,56,57
 751 439 751 439 765 439 c 0,58,59
 792 439 792 439 825 454 c 0,60,61
 862 471 862 471 868 494 c 1,47,48
EndSplineSet
Substitution2: "'medi' Medial Forms in Arabic lookup 3 subtable" afii57374
Substitution2: "'fina' Terminal Forms in Arabic lookup 2 subtable" afii52258
Substitution2: "'init' Initial Forms in Arabic lookup 1 subtable" afii57459
EndChar

StartChar: afii57567
Encoding: 1705 1705 132
Width: 1606
GlyphClass: 2
Flags: W
AnchorPoint: "Anchor-3" 555 -570 basechar 0
AnchorPoint: "Anchor-2" 510 1245 basechar 0
LayerCount: 2
Fore
SplineSet
1589 1367 m 0,0,1
 1589 1303 1589 1303 1552 1244 c 1,2,3
 1460 1208 1460 1208 1100 1056 c 0,4,5
 1015 1020 1015 1020 847 945 c 1,6,-1
 839 931 l 1,7,-1
 843 922 l 1,8,-1
 1016 770 l 2,9,10
 1113 685 1113 685 1178 607 c 0,11,12
 1209 570 1209 570 1245 498 c 0,13,14
 1284 422 1284 422 1290 381 c 0,15,16
 1292 364 1292 364 1292 330 c 0,17,18
 1292 281 1292 281 1278 211 c 0,19,20
 1261 129 1261 129 1213 89 c 0,21,22
 1155 43 1155 43 944 -21 c 0,23,24
 646 -112 646 -112 356 -112 c 0,25,26
 55 -112 55 -112 45 86 c 0,27,28
 43 135 43 135 43 161 c 0,29,30
 43 374 43 374 155 501 c 0,31,32
 206 559 206 559 232 559 c 0,33,34
 236 557 236 557 239 551 c 0,35,36
 238 526 238 526 187 428 c 0,37,38
 129 317 129 317 119 281 c 0,39,40
 112 254 112 254 112 202 c 0,41,42
 112 179 112 179 143 127 c 0,43,44
 185 56 185 56 393 56 c 0,45,46
 551 56 551 56 919 150 c 0,47,48
 1203 223 1203 223 1203 276 c 0,49,50
 1203 338 1203 338 1108 475 c 0,51,52
 1075 522 1075 522 907 664 c 0,53,54
 753 794 753 794 752 810 c 0,55,56
 750 841 750 841 750 848 c 0,57,58
 750 963 750 963 852 1090 c 1,59,60
 1023 1171 1023 1171 1380 1321 c 0,61,62
 1511 1375 1511 1375 1579 1398 c 1,63,64
 1589 1392 1589 1392 1589 1367 c 0,0,1
EndSplineSet
Substitution2: "'medi' Medial Forms in Arabic lookup 3 subtable" afii52306
Substitution2: "'fina' Terminal Forms in Arabic lookup 2 subtable" afii62964
Substitution2: "'init' Initial Forms in Arabic lookup 1 subtable" afii52305
EndChar

StartChar: afii62964
Encoding: 64399 64399 133
Width: 1541
GlyphClass: 2
Flags: W
AnchorPoint: "Anchor-3" 465 -720 basechar 0
AnchorPoint: "Anchor-2" 540 1155 basechar 0
LayerCount: 2
Fore
SplineSet
1589 1367 m 0,0,1
 1589 1303 1589 1303 1552 1244 c 1,2,3
 1460 1208 1460 1208 1100 1056 c 0,4,5
 1015 1020 1015 1020 847 945 c 1,6,-1
 839 931 l 1,7,-1
 843 922 l 1,8,-1
 1017 770 l 2,9,10
 1082 714 1082 714 1135 659 c 1,11,12
 1217 556 1217 556 1245 515 c 0,13,14
 1296 438 1296 438 1326 352 c 0,15,16
 1333 329 1333 329 1355 265 c 0,17,18
 1391 167 1391 167 1557 167 c 1,19,-1
 1557 0 l 1,20,-1
 1508 0 l 2,21,22
 1404 0 1404 0 1352 57 c 0,23,24
 1310 103 1310 103 1280 211 c 1,25,26
 1272 148 1272 148 1236 109 c 0,27,28
 1168 35 1168 35 860 -45 c 0,29,30
 604 -112 604 -112 356 -112 c 0,31,32
 55 -112 55 -112 45 86 c 0,33,34
 43 135 43 135 43 161 c 0,35,36
 43 374 43 374 155 501 c 0,37,38
 206 559 206 559 232 559 c 0,39,40
 236 557 236 557 239 551 c 0,41,42
 238 526 238 526 187 428 c 0,43,44
 129 317 129 317 119 281 c 0,45,46
 112 254 112 254 112 202 c 0,47,48
 112 179 112 179 143 127 c 0,49,50
 185 56 185 56 393 56 c 0,51,52
 551 56 551 56 919 150 c 0,53,54
 1203 223 1203 223 1203 276 c 0,55,56
 1203 338 1203 338 1108 475 c 0,57,58
 1075 522 1075 522 907 664 c 0,59,60
 753 794 753 794 752 810 c 0,61,62
 750 841 750 841 750 848 c 0,63,64
 750 963 750 963 852 1090 c 1,65,66
 1023 1171 1023 1171 1380 1321 c 0,67,68
 1511 1375 1511 1375 1579 1398 c 1,69,70
 1589 1392 1589 1392 1589 1367 c 0,0,1
EndSplineSet
EndChar

StartChar: afii52305
Encoding: 64400 64400 134
Width: 892
GlyphClass: 2
Flags: W
AnchorPoint: "Anchor-3" 345 -525 basechar 0
AnchorPoint: "Anchor-2" 345 1365 basechar 0
LayerCount: 2
Fore
SplineSet
885 1352 m 0,0,1
 885 1286 885 1286 847 1244 c 1,2,3
 699 1181 699 1181 399 1056 c 0,4,5
 280 1006 280 1006 145 945 c 1,6,-1
 137 931 l 1,7,-1
 140 922 l 1,8,9
 307 781 307 781 425 663 c 0,10,11
 481 607 481 607 533 512 c 0,12,13
 591 406 591 406 591 339 c 0,14,15
 591 190 591 190 533 114 c 0,16,17
 506 78 506 78 305 37 c 0,18,19
 126 0 126 0 43 0 c 2,20,-1
 -12 0 l 1,21,-1
 -12 167 l 1,22,23
 183 162 183 162 362 208 c 2,24,-1
 458 233 l 2,25,26
 502 245 502 245 502 276 c 0,27,28
 502 348 502 348 406 474 c 0,29,30
 365 527 365 527 202 664 c 0,31,32
 175 686 175 686 105 744 c 0,33,34
 45 795 45 795 45 847 c 0,35,36
 45 981 45 981 148 1090 c 1,37,38
 480 1246 480 1246 875 1398 c 1,39,40
 885 1391 885 1391 885 1352 c 0,0,1
EndSplineSet
EndChar

StartChar: afii52306
Encoding: 64401 64401 135
Width: 816
GlyphClass: 2
Flags: W
AnchorPoint: "Anchor-3" 360 -540 basechar 0
AnchorPoint: "Anchor-2" 420 1455 basechar 0
LayerCount: 2
Fore
SplineSet
877 1348 m 0,0,1
 877 1286 877 1286 843 1239 c 1,2,-1
 396 1056 l 2,3,4
 244 993 244 993 140 939 c 0,5,6
 140 935 140 935 139 932 c 0,7,8
 139 926 139 926 140 922 c 0,9,10
 396 618 396 618 514 445 c 2,11,-1
 643 257 l 2,12,13
 683 198 683 198 723 180 c 0,14,15
 758 164 758 164 833 167 c 1,16,-1
 833 0 l 1,17,-1
 788 0 l 2,18,19
 668 0 668 0 588 89 c 0,20,21
 557 123 557 123 463 284 c 0,22,23
 448 309 448 309 416 357 c 1,24,25
 406 313 406 313 395 268 c 0,26,27
 381 218 381 218 359 186 c 0,28,29
 271 55 271 55 118 12 c 0,30,31
 75 0 75 0 -5 0 c 1,32,-1
 -5 167 l 1,33,34
 149 167 149 167 263 257 c 0,35,36
 308 293 308 293 324 333 c 0,37,38
 334 361 334 361 334 419 c 0,39,40
 334 467 334 467 313 494 c 2,41,-1
 158 687 l 2,42,43
 134 717 134 717 63 819 c 1,44,45
 59 840 59 840 59 863 c 0,46,47
 59 978 59 978 155 1090 c 1,48,49
 210 1119 210 1119 336 1171 c 128,-1,50
 462 1223 462 1223 671 1313 c 0,51,52
 769 1354 769 1354 865 1386 c 1,53,54
 877 1379 877 1379 877 1348 c 0,0,1
EndSplineSet
EndChar

StartChar: afii57509
Encoding: 1711 1711 136
Width: 1597
GlyphClass: 2
Flags: W
AnchorPoint: "Anchor-3" 585 -645 basechar 0
AnchorPoint: "Anchor-2" 495 1320 basechar 0
LayerCount: 2
Fore
SplineSet
1493 1557 m 0,0,1
 1493 1521 1493 1521 1458 1466 c 1,2,-1
 1027 1288 l 2,3,4
 953 1257 953 1257 783 1182 c 1,5,6
 772 1185 772 1185 772 1205 c 0,7,8
 772 1279 772 1279 853 1315 c 2,9,-1
 983 1373 l 2,10,11
 991 1377 991 1377 1303 1510 c 0,12,13
 1372 1539 1372 1539 1489 1583 c 1,14,15
 1493 1578 1493 1578 1493 1557 c 0,0,1
1589 1367 m 0,16,17
 1589 1303 1589 1303 1552 1244 c 1,18,19
 1460 1208 1460 1208 1100 1056 c 0,20,21
 1015 1020 1015 1020 847 945 c 1,22,-1
 839 931 l 1,23,-1
 843 922 l 1,24,-1
 1016 770 l 2,25,26
 1113 685 1113 685 1178 607 c 0,27,28
 1209 570 1209 570 1245 498 c 0,29,30
 1284 422 1284 422 1290 381 c 0,31,32
 1292 364 1292 364 1292 330 c 0,33,34
 1292 281 1292 281 1278 211 c 0,35,36
 1261 129 1261 129 1213 89 c 0,37,38
 1155 43 1155 43 944 -21 c 0,39,40
 646 -112 646 -112 356 -112 c 0,41,42
 55 -112 55 -112 45 86 c 0,43,44
 43 135 43 135 43 161 c 0,45,46
 43 374 43 374 155 501 c 0,47,48
 206 559 206 559 232 559 c 0,49,50
 236 557 236 557 239 551 c 0,51,52
 238 526 238 526 187 428 c 0,53,54
 129 317 129 317 119 281 c 0,55,56
 112 254 112 254 112 202 c 0,57,58
 112 179 112 179 143 127 c 0,59,60
 185 56 185 56 393 56 c 0,61,62
 551 56 551 56 919 150 c 0,63,64
 1203 223 1203 223 1203 276 c 0,65,66
 1203 338 1203 338 1108 475 c 0,67,68
 1075 522 1075 522 907 664 c 0,69,70
 753 794 753 794 752 810 c 0,71,72
 750 841 750 841 750 848 c 0,73,74
 750 963 750 963 852 1090 c 1,75,76
 1023 1171 1023 1171 1380 1321 c 0,77,78
 1511 1375 1511 1375 1579 1398 c 1,79,80
 1589 1392 1589 1392 1589 1367 c 0,16,17
EndSplineSet
Substitution2: "'medi' Medial Forms in Arabic lookup 3 subtable" afii62966
Substitution2: "'fina' Terminal Forms in Arabic lookup 2 subtable" afii62967
Substitution2: "'init' Initial Forms in Arabic lookup 1 subtable" afii62965
EndChar

StartChar: afii62967
Encoding: 64403 64403 137
Width: 1541
GlyphClass: 2
Flags: W
AnchorPoint: "Anchor-3" 525 -645 basechar 0
AnchorPoint: "Anchor-2" 435 1245 basechar 0
LayerCount: 2
Fore
SplineSet
1524 1570 m 0,0,1
 1524 1534 1524 1534 1489 1479 c 1,2,-1
 1058 1301 l 2,3,4
 943 1253 943 1253 812 1195 c 1,5,6
 802 1198 802 1198 802 1217 c 0,7,8
 802 1291 802 1291 840 1308 c 2,9,-1
 1014 1386 l 2,10,11
 1094 1421 1094 1421 1334 1523 c 0,12,13
 1452 1573 1452 1573 1520 1596 c 1,14,15
 1524 1591 1524 1591 1524 1570 c 0,0,1
1589 1367 m 0,16,17
 1589 1303 1589 1303 1552 1244 c 1,18,19
 1460 1208 1460 1208 1100 1056 c 0,20,21
 1015 1020 1015 1020 847 945 c 1,22,-1
 839 931 l 1,23,-1
 843 922 l 1,24,-1
 1017 770 l 2,25,26
 1082 714 1082 714 1135 659 c 1,27,28
 1217 556 1217 556 1245 515 c 0,29,30
 1296 438 1296 438 1326 352 c 0,31,32
 1333 329 1333 329 1355 265 c 0,33,34
 1391 167 1391 167 1557 167 c 1,35,-1
 1557 0 l 1,36,-1
 1508 0 l 2,37,38
 1404 0 1404 0 1352 57 c 0,39,40
 1310 103 1310 103 1280 211 c 1,41,42
 1272 148 1272 148 1236 109 c 0,43,44
 1168 35 1168 35 860 -45 c 0,45,46
 604 -112 604 -112 356 -112 c 0,47,48
 55 -112 55 -112 45 86 c 0,49,50
 43 135 43 135 43 161 c 0,51,52
 43 374 43 374 155 501 c 0,53,54
 206 559 206 559 232 559 c 0,55,56
 236 557 236 557 239 551 c 0,57,58
 238 526 238 526 187 428 c 0,59,60
 129 317 129 317 119 281 c 0,61,62
 112 254 112 254 112 202 c 0,63,64
 112 179 112 179 143 127 c 0,65,66
 185 56 185 56 393 56 c 0,67,68
 551 56 551 56 919 150 c 0,69,70
 1203 223 1203 223 1203 276 c 0,71,72
 1203 338 1203 338 1108 475 c 0,73,74
 1075 522 1075 522 907 664 c 0,75,76
 753 794 753 794 752 810 c 0,77,78
 750 841 750 841 750 848 c 0,79,80
 750 963 750 963 852 1090 c 1,81,82
 1023 1171 1023 1171 1380 1321 c 0,83,84
 1511 1375 1511 1375 1579 1398 c 1,85,86
 1589 1392 1589 1392 1589 1367 c 0,16,17
EndSplineSet
EndChar

StartChar: afii62965
Encoding: 64404 64404 138
Width: 901
GlyphClass: 2
Flags: W
AnchorPoint: "Anchor-3" 330 -510 basechar 0
AnchorPoint: "Anchor-2" 345 1590 basechar 0
LayerCount: 2
Fore
SplineSet
845 1570 m 0,0,1
 845 1535 845 1535 809 1480 c 1,2,3
 582 1389 582 1389 131 1195 c 1,4,5
 123 1198 123 1198 123 1219 c 0,6,7
 123 1293 123 1293 159 1309 c 2,8,-1
 334 1386 l 2,9,10
 391 1411 391 1411 653 1523 c 0,11,12
 723 1553 723 1553 840 1597 c 1,13,14
 845 1592 845 1592 845 1570 c 0,0,1
885 1352 m 0,15,16
 885 1286 885 1286 847 1244 c 1,17,18
 699 1181 699 1181 399 1056 c 0,19,20
 280 1006 280 1006 145 945 c 1,21,-1
 137 931 l 1,22,-1
 140 922 l 1,23,24
 307 781 307 781 425 663 c 0,25,26
 481 607 481 607 533 512 c 0,27,28
 591 406 591 406 591 339 c 0,29,30
 591 190 591 190 533 114 c 0,31,32
 506 78 506 78 305 37 c 0,33,34
 126 0 126 0 43 0 c 2,35,-1
 -12 0 l 1,36,-1
 -12 167 l 1,37,38
 183 162 183 162 362 208 c 2,39,-1
 458 233 l 2,40,41
 502 245 502 245 502 276 c 0,42,43
 502 348 502 348 406 474 c 0,44,45
 365 527 365 527 202 664 c 0,46,47
 175 686 175 686 105 744 c 0,48,49
 45 795 45 795 45 847 c 0,50,51
 45 981 45 981 148 1090 c 1,52,53
 480 1246 480 1246 875 1398 c 1,54,55
 885 1391 885 1391 885 1352 c 0,15,16
EndSplineSet
EndChar

StartChar: afii62966
Encoding: 64405 64405 139
Width: 816
GlyphClass: 2
Flags: W
AnchorPoint: "Anchor-3" 390 -555 basechar 0
AnchorPoint: "Anchor-2" 300 1635 basechar 0
LayerCount: 2
Fore
SplineSet
845 1564 m 0,0,1
 845 1528 845 1528 809 1473 c 1,2,3
 582 1382 582 1382 131 1188 c 1,4,5
 123 1191 123 1191 123 1211 c 0,6,7
 123 1285 123 1285 159 1302 c 2,8,-1
 334 1380 l 2,9,10
 343 1384 343 1384 653 1517 c 0,11,12
 733 1551 733 1551 840 1590 c 1,13,14
 845 1585 845 1585 845 1564 c 0,0,1
877 1348 m 0,15,16
 877 1286 877 1286 843 1239 c 1,17,-1
 396 1056 l 2,18,19
 244 993 244 993 140 939 c 0,20,21
 140 935 140 935 139 932 c 0,22,23
 139 926 139 926 140 922 c 0,24,25
 396 618 396 618 514 445 c 2,26,-1
 643 257 l 2,27,28
 683 198 683 198 723 180 c 0,29,30
 758 164 758 164 833 167 c 1,31,-1
 833 0 l 1,32,-1
 788 0 l 2,33,34
 668 0 668 0 588 89 c 0,35,36
 557 123 557 123 463 284 c 0,37,38
 448 309 448 309 416 357 c 1,39,40
 406 313 406 313 395 268 c 0,41,42
 381 218 381 218 359 186 c 0,43,44
 271 55 271 55 118 12 c 0,45,46
 75 0 75 0 -5 0 c 1,47,-1
 -5 167 l 1,48,49
 149 167 149 167 263 257 c 0,50,51
 308 293 308 293 324 333 c 0,52,53
 334 361 334 361 334 419 c 0,54,55
 334 467 334 467 313 494 c 2,56,-1
 158 687 l 2,57,58
 134 717 134 717 63 819 c 1,59,60
 59 840 59 840 59 863 c 0,61,62
 59 978 59 978 155 1090 c 1,63,64
 210 1119 210 1119 336 1171 c 128,-1,65
 462 1223 462 1223 671 1313 c 0,66,67
 769 1354 769 1354 865 1386 c 1,68,69
 877 1379 877 1379 877 1348 c 0,15,16
EndSplineSet
EndChar

StartChar: afii57555
Encoding: 1740 1740 140
Width: 1067
GlyphClass: 2
Flags: W
AnchorPoint: "Anchor-3" 345 -1020 basechar 0
AnchorPoint: "Anchor-2" 330 630 basechar 0
LayerCount: 2
Fore
SplineSet
990 475 m 0,0,1
 990 456 990 456 975 420 c 0,2,3
 959 373 959 373 915 421 c 1,4,5
 856 463 856 463 838 463 c 0,6,7
 735 463 735 463 609 338 c 0,8,9
 503 233 503 233 503 191 c 0,10,11
 503 111 503 111 638 108 c 0,12,13
 929 104 929 104 929 -9 c 0,14,15
 929 -112 929 -112 858 -215 c 0,16,17
 769 -345 769 -345 543 -397 c 0,18,19
 404 -429 404 -429 324 -429 c 0,20,21
 205 -429 205 -429 126.5 -348 c 128,-1,22
 48 -267 48 -267 48 -147 c 0,23,24
 48 -102 48 -102 56.5 -47.5 c 128,-1,25
 65 7 65 7 85.5 66 c 128,-1,26
 106 125 106 125 154.5 203 c 128,-1,27
 203 281 203 281 226 276 c 0,28,29
 234 276 234 276 243 267 c 1,30,31
 249 252 249 252 249 243 c 1,32,33
 231 222 231 222 177 124.5 c 128,-1,34
 123 27 123 27 123 -21 c 0,35,36
 123 -130 123 -130 189 -190.5 c 128,-1,37
 255 -251 255 -251 364 -251 c 0,38,39
 461 -251 461 -251 615 -208 c 0,40,41
 800 -157 800 -157 800 -94 c 0,42,43
 800 -68 800 -68 650 -68 c 0,44,45
 414 -68 414 -68 414 94 c 0,46,47
 414 231 414 231 529 391 c 0,48,49
 639 544 639 544 768 605 c 0,50,51
 803 621 803 621 863 621 c 0,52,53
 990 621 990 621 990 475 c 0,0,1
EndSplineSet
Substitution2: "'medi' Medial Forms in Arabic lookup 3 subtable" afii62832
Substitution2: "'fina' Terminal Forms in Arabic lookup 2 subtable" afii52364
Substitution2: "'init' Initial Forms in Arabic lookup 1 subtable" uniFBFE
EndChar

StartChar: afii52364
Encoding: 64509 64509 141
Width: 990
GlyphClass: 2
Flags: W
AnchorPoint: "Anchor-3" 495 -1125 basechar 0
AnchorPoint: "Anchor-2" 465 585 basechar 0
LayerCount: 2
Fore
SplineSet
1015 0 m 1,0,-1
 953 0 l 2,1,2
 851 0 851 0 704 -17 c 0,3,4
 505 -39 505 -39 505 -81 c 0,5,6
 505 -88 505 -88 513 -104 c 0,7,8
 541 -156 541 -156 638 -157 c 0,9,10
 929 -162 929 -162 929 -275 c 0,11,12
 929 -554 929 -554 543 -663 c 0,13,14
 429 -695 429 -695 324 -695 c 0,15,16
 204 -695 204 -695 126 -613 c 128,-1,17
 48 -531 48 -531 48 -411 c 0,18,19
 48 -356 48 -356 54 -300 c 0,20,21
 55 -285 55 -285 76 -210.5 c 128,-1,22
 97 -136 97 -136 102 -127 c 0,23,24
 172 -11 172 -11 226 13 c 1,25,26
 249 13 249 13 249 -23 c 1,27,28
 249 -23 249 -23 186 -131 c 128,-1,29
 123 -239 123 -239 123 -287 c 0,30,31
 123 -397 123 -397 188 -456.5 c 128,-1,32
 253 -516 253 -516 364 -516 c 0,33,34
 401 -516 401 -516 514 -500 c 0,35,36
 587 -489 587 -489 679 -452 c 0,37,38
 800 -404 800 -404 800 -359 c 0,39,40
 800 -332 800 -332 650 -332 c 0,41,42
 412 -332 412 -332 412 -161 c 0,43,44
 412 -95 412 -95 463 2 c 0,45,46
 478 31 478 31 505 71 c 0,47,48
 545 132 545 132 719 150 c 0,49,50
 905 169 905 169 1015 167 c 1,51,-1
 1015 0 l 1,0,-1
EndSplineSet
EndChar

StartChar: afii62945
Encoding: 65557 -1 147
Width: 1559
GlyphClass: 3
Flags: W
LayerCount: 2
Fore
SplineSet
1490 852 m 2,0,-1
 1488 843 l 2,1,2
 1472 782 1472 782 1465 762 c 0,3,4
 1447 711 1447 711 1421 695 c 1,5,6
 1464 464 1464 464 1474 292 c 1,7,-1
 1474 244 l 2,8,9
 1476 221 1476 221 1480 143 c 0,10,11
 1483 107 1483 107 1428 35 c 1,12,13
 1380 0 1380 0 1260 0 c 2,14,-1
 1201 0 l 2,15,16
 1130 0 1130 0 1100 44 c 0,17,18
 1086 65 1086 65 1058 157 c 1,19,20
 1008 0 1008 0 785 0 c 1,21,-1
 785 1 l 1,22,-1
 770 1 l 2,23,24
 652 1 652 1 574 68 c 0,25,26
 523 112 523 112 441 269 c 1,27,28
 434 246 434 246 417 207 c 0,29,30
 407 182 407 182 294 161 c 0,31,32
 199 143 199 143 148 143 c 0,33,34
 64 143 64 143 64 197 c 0,35,36
 64 209 64 209 76 251 c 0,37,38
 95 319 95 319 139 362 c 0,39,40
 160 383 160 383 242 441 c 2,41,-1
 409 557 l 1,42,43
 405 639 405 639 416 656 c 1,44,-1
 432 745 l 2,45,46
 438 780 438 780 465 780 c 0,47,48
 472 780 472 780 480 765 c 1,49,50
 484 665 484 665 502 468 c 0,51,52
 506 451 506 451 515 419 c 0,53,54
 562 249 562 249 666 195 c 0,55,56
 712 171 712 171 830 169 c 1,57,58
 880 174 880 174 930 189 c 0,59,60
 1041 224 1041 224 1041 300 c 0,61,62
 1041 336 1041 336 1029 427 c 0,63,64
 1001 640 1001 640 983 762 c 0,65,66
 961 918 961 918 961 957 c 0,67,68
 961 1043 961 1043 981 1062 c 1,69,70
 994 1062 994 1062 1009 1040 c 128,-1,71
 1024 1018 1024 1018 1026 1005 c 0,72,73
 1026 982 1026 982 1027 938 c 0,74,75
 1030 916 1030 916 1035 869 c 0,76,77
 1035 852 1035 852 1037 818 c 1,78,79
 1051 742 1051 742 1080 566 c 2,80,-1
 1116 319 l 2,81,82
 1116 302 1116 302 1121 270 c 1,83,84
 1152 167 1152 167 1204 167 c 2,85,-1
 1228 167 l 2,86,87
 1371 167 1371 167 1388 183 c 1,88,89
 1388 263 1388 263 1384 313 c 0,90,91
 1382 327 1382 327 1375 381 c 0,92,93
 1358 495 1358 495 1338 724 c 1,94,-1
 1276 790 l 1,95,96
 1270 806 1270 806 1270 835 c 0,97,98
 1270 938 1270 938 1288 1009 c 0,99,100
 1291 1023 1291 1023 1342 1113 c 1,101,-1
 1348 1116 l 2,102,103
 1351 1117 1351 1117 1355 1117 c 0,104,105
 1376 1117 1376 1117 1373 1102 c 0,106,107
 1355 997 1355 997 1355 973 c 0,108,109
 1355 959 1355 959 1358 940 c 0,110,111
 1361 913 1361 913 1427 901 c 1,112,113
 1447 902 1447 902 1483 883 c 1,114,115
 1494 868 1494 868 1490 852 c 2,0,-1
408 340 m 1,116,117
 404 378 404 378 393 426 c 1,118,119
 368 419 368 419 204 324 c 1,120,-1
 210 308 l 1,121,-1
 224 303 l 1,122,123
 300 313 300 313 408 340 c 1,116,117
EndSplineSet
EndChar

StartChar: afii64184
Encoding: 65010 65010 148
Width: 1559
GlyphClass: 3
Flags: W
AnchorPoint: "Anchor-1" 1350 -420 baselig 0
AnchorPoint: "Anchor-0" 1320 1215 baselig 0
AnchorPoint: "Anchor-1" 975 -435 baselig 1
AnchorPoint: "Anchor-0" 945 1080 baselig 1
AnchorPoint: "Anchor-1" 450 -540 baselig 2
AnchorPoint: "Anchor-0" 255 840 baselig 2
LayerCount: 2
Fore
SplineSet
1490 852 m 2,0,-1
 1488 843 l 2,1,2
 1472 782 1472 782 1465 762 c 0,3,4
 1447 711 1447 711 1421 695 c 1,5,6
 1464 464 1464 464 1474 292 c 1,7,-1
 1474 244 l 2,8,9
 1476 221 1476 221 1480 143 c 0,10,11
 1483 107 1483 107 1428 35 c 1,12,13
 1380 0 1380 0 1260 0 c 2,14,-1
 1201 0 l 2,15,16
 1130 0 1130 0 1100 44 c 0,17,18
 1086 65 1086 65 1058 157 c 1,19,20
 1008 0 1008 0 785 0 c 1,21,-1
 785 1 l 1,22,-1
 770 1 l 2,23,24
 652 1 652 1 574 68 c 0,25,26
 523 112 523 112 441 269 c 1,27,28
 434 246 434 246 417 207 c 0,29,30
 407 182 407 182 294 161 c 0,31,32
 199 143 199 143 148 143 c 0,33,34
 64 143 64 143 64 197 c 0,35,36
 64 209 64 209 76 251 c 0,37,38
 95 319 95 319 139 362 c 0,39,40
 160 383 160 383 242 441 c 2,41,-1
 409 557 l 1,42,43
 405 639 405 639 416 656 c 1,44,-1
 432 745 l 2,45,46
 438 780 438 780 465 780 c 0,47,48
 472 780 472 780 480 765 c 1,49,50
 484 665 484 665 502 468 c 0,51,52
 506 451 506 451 515 419 c 0,53,54
 562 249 562 249 666 195 c 0,55,56
 712 171 712 171 830 169 c 1,57,58
 880 174 880 174 930 189 c 0,59,60
 1041 224 1041 224 1041 300 c 0,61,62
 1041 336 1041 336 1029 427 c 0,63,64
 1001 640 1001 640 983 762 c 0,65,66
 961 918 961 918 961 957 c 0,67,68
 961 1043 961 1043 981 1062 c 1,69,70
 994 1062 994 1062 1009 1040 c 128,-1,71
 1024 1018 1024 1018 1026 1005 c 0,72,73
 1026 982 1026 982 1027 938 c 0,74,75
 1030 916 1030 916 1035 869 c 0,76,77
 1035 852 1035 852 1037 818 c 1,78,79
 1051 742 1051 742 1080 566 c 2,80,-1
 1116 319 l 2,81,82
 1116 302 1116 302 1121 270 c 1,83,84
 1152 167 1152 167 1204 167 c 2,85,-1
 1233 167 l 2,86,87
 1371 167 1371 167 1388 183 c 1,88,89
 1388 263 1388 263 1384 313 c 0,90,91
 1382 327 1382 327 1375 381 c 0,92,93
 1358 495 1358 495 1338 724 c 1,94,-1
 1276 790 l 1,95,96
 1270 806 1270 806 1270 835 c 0,97,98
 1270 938 1270 938 1288 1009 c 0,99,100
 1291 1023 1291 1023 1342 1113 c 1,101,-1
 1348 1116 l 2,102,103
 1351 1117 1351 1117 1355 1117 c 0,104,105
 1376 1117 1376 1117 1373 1102 c 0,106,107
 1355 997 1355 997 1355 973 c 0,108,109
 1355 959 1355 959 1358 940 c 0,110,111
 1361 913 1361 913 1427 901 c 1,112,113
 1447 902 1447 902 1483 883 c 1,114,115
 1494 868 1494 868 1490 852 c 2,0,-1
1141 1294 m 0,116,117
 1141 1237 1141 1237 1111 1187 c 0,118,119
 1076 1130 1076 1130 1022 1130 c 0,120,121
 979 1130 979 1130 956 1175 c 1,122,123
 919 1095 919 1095 857 1095 c 0,124,125
 816 1095 816 1095 793 1134 c 0,126,127
 773 1167 773 1167 773 1210 c 0,128,129
 773 1322 773 1322 818 1322 c 0,130,131
 822 1322 822 1322 837 1274 c 128,-1,132
 852 1226 852 1226 882 1226 c 0,133,134
 911 1226 911 1226 936 1284 c 128,-1,135
 961 1342 961 1342 972 1342 c 0,136,137
 978 1342 978 1342 991 1298.5 c 128,-1,138
 1004 1255 1004 1255 1020 1255 c 0,139,140
 1052 1255 1052 1255 1080.5 1306.5 c 128,-1,141
 1109 1358 1109 1358 1111 1358 c 0,142,143
 1141 1358 1141 1358 1141 1294 c 0,116,117
408 340 m 1,144,145
 404 378 404 378 393 426 c 1,146,147
 368 419 368 419 204 324 c 1,148,-1
 210 308 l 1,149,-1
 224 303 l 1,150,151
 300 313 300 313 408 340 c 1,144,145
987 1515 m 1,152,-1
 946 1431 l 1,153,154
 950 1486 950 1486 937.5 1584 c 128,-1,155
 925 1682 925 1682 914 1739 c 1,156,157
 972 1814 972 1814 977 1814 c 0,158,159
 999 1796 999 1796 987 1515 c 1,152,-1
EndSplineSet
Ligature2: "'rlig' Required Ligatures in Arabic lookup 5 subtable" afii62817 afii62818 uniFC63 afii62828
Ligature2: "'rlig' Required Ligatures in Arabic lookup 5 subtable" afii62817 afii62818 afii57457 uni0670 afii62828
EndChar

StartChar: afii57415.001
Encoding: 1575 1575 162
Width: 392
GlyphClass: 2
Flags: W
AnchorPoint: "Anchor-3" 315 -345 basechar 0
AnchorPoint: "Anchor-2" 150 1275 basechar 0
LayerCount: 2
Fore
SplineSet
347 281 m 0,0,1
 347 118 347 118 301 -10 c 0,2,3
 297 -11 297 -11 293 -11 c 0,4,5
 282 -11 282 -11 274 2 c 1,6,7
 278 43 278 43 278 115 c 0,8,9
 278 130 278 130 275 168 c 0,10,11
 273 202 273 202 274 221 c 0,12,13
 273 236 273 236 259 296 c 0,14,15
 196 589 196 589 123 995 c 1,16,17
 139 1054 139 1054 143 1066 c 0,18,19
 161 1121 161 1121 178 1128 c 1,20,21
 194 1125 194 1125 206 1104 c 1,22,23
 230 992 230 992 242 922 c 0,24,25
 247 884 247 884 267 772 c 0,26,27
 273 745 273 745 289 665 c 0,28,29
 347 373 347 373 347 281 c 0,0,1
EndSplineSet
Substitution2: "'fina' Terminal Forms in Arabic lookup 2 subtable" afii62760
EndChar

StartChar: afii62760.001
Encoding: 65558 -1 163
Width: 431
GlyphClass: 2
Flags: W
LayerCount: 2
Fore
SplineSet
445 0 m 1,0,-1
 357 0 l 2,1,2
 220 0 220 0 176 277 c 0,3,4
 159 382 159 382 152 668 c 0,5,6
 150 777 150 777 148 895 c 0,7,8
 147 921 147 921 137 974.5 c 128,-1,9
 127 1028 127 1028 127 1056 c 0,10,11
 127 1198 127 1198 169 1198 c 0,12,13
 194 1198 194 1198 198 1176 c 2,14,-1
 208 1100 l 2,15,16
 229 950 229 950 233 790 c 2,17,-1
 239 551 l 2,18,19
 248 242 248 242 344 180 c 0,20,21
 364 167 364 167 445 167 c 1,22,-1
 445 0 l 1,0,-1
EndSplineSet
EndChar

StartChar: afii57421
Encoding: 1581 1581 182
Width: 1024
GlyphClass: 2
Flags: W
AnchorPoint: "Anchor-3" 360 -1155 basechar 0
AnchorPoint: "Anchor-2" 435 720 basechar 0
LayerCount: 2
Fore
SplineSet
1127 -483 m 0,0,1
 1127 -491 1127 -491 1123 -496 c 0,2,3
 1066 -572 1066 -572 891 -658 c 0,4,5
 765 -720 765 -720 571 -720 c 0,6,7
 383 -720 383 -720 232 -620 c 0,8,9
 59 -506 59 -506 59 -328 c 0,10,11
 59 -184 59 -184 132 -21 c 0,12,13
 206 147 206 147 315 233 c 1,14,15
 267 248 267 248 187 248 c 0,16,17
 138 248 138 248 120 240 c 1,18,19
 106 240 106 240 74 223.5 c 128,-1,20
 42 207 42 207 37 207 c 0,21,22
 29 217 29 217 19 240 c 1,23,24
 26 401 26 401 215 401 c 0,25,26
 264 401 264 401 362 395.5 c 128,-1,27
 460 390 460 390 509 390 c 0,28,29
 580 390 580 390 768 414 c 0,30,31
 814 420 814 420 827 419 c 1,32,33
 833 413 833 413 833 380 c 0,34,35
 833 283 833 283 795 277 c 2,36,-1
 677 261 l 2,37,38
 612 251 612 251 496 206 c 0,39,40
 140 66 140 66 140 -238 c 0,41,42
 140 -380 140 -380 262 -470 c 0,43,44
 372 -552 372 -552 519 -552 c 0,45,46
 798 -552 798 -552 934 -526 c 0,47,48
 1021 -509 1021 -509 1066 -491 c 0,49,50
 1081 -484 1081 -484 1108 -471 c 0,51,52
 1115 -469 1115 -469 1117 -469 c 0,53,54
 1127 -469 1127 -469 1127 -483 c 0,0,1
EndSplineSet
Substitution2: "'medi' Medial Forms in Arabic lookup 3 subtable" afii62775
Substitution2: "'fina' Terminal Forms in Arabic lookup 2 subtable" afii62776
Substitution2: "'init' Initial Forms in Arabic lookup 1 subtable" afii62774
EndChar

StartChar: afii62776
Encoding: 65186 65186 183
Width: 904
GlyphClass: 2
Flags: W
AnchorPoint: "Anchor-3" 510 -1170 basechar 0
AnchorPoint: "Anchor-2" 465 825 basechar 0
LayerCount: 2
Fore
SplineSet
1102 -547 m 0,0,1
 1102 -562 1102 -562 1088 -574 c 0,2,3
 935 -698 935 -698 779 -749 c 0,4,5
 673 -783 673 -783 544 -783 c 0,6,7
 38 -783 38 -783 38 -257 c 0,8,9
 38 21 38 21 226 288 c 2,10,-1
 271 352 l 1,11,12
 244 357 244 357 215 357 c 0,13,14
 190 357 190 357 154 341 c 0,15,16
 114 323 114 323 104 303 c 0,17,18
 97 293 97 293 81 278 c 1,19,20
 62 277 62 277 62 303 c 0,21,22
 62 427 62 427 164 494 c 0,23,24
 217 528 217 528 262 528 c 0,25,26
 334 528 334 528 477 504.5 c 128,-1,27
 620 481 620 481 693 481 c 0,28,29
 717 481 717 481 765.5 482.5 c 128,-1,30
 814 484 814 484 838 484 c 0,31,32
 851 484 851 484 858 481 c 1,33,34
 863 462 863 462 863 452 c 0,35,36
 863 427 863 427 842 382 c 0,37,38
 818 332 818 332 797 333 c 2,39,-1
 569 345 l 2,40,41
 551 346 551 346 533 340 c 1,42,43
 544 249 544 249 603 210 c 0,44,45
 650 178 650 178 750 170 c 0,46,47
 821 164 821 164 925 167 c 1,48,-1
 925 0 l 1,49,-1
 768 0 l 2,50,51
 452 0 452 0 452 324 c 1,52,53
 337 302 337 302 237 170 c 0,54,55
 102 -7 102 -7 102 -211 c 0,56,57
 102 -421 102 -421 270 -527 c 0,58,59
 411 -616 411 -616 633 -616 c 0,60,61
 784 -616 784 -616 862 -602 c 0,62,63
 952 -585 952 -585 1085 -528 c 1,64,-1
 1097 -532 l 1,65,66
 1100 -539 1100 -539 1102 -547 c 0,0,1
EndSplineSet
EndChar

StartChar: afii62774
Encoding: 65187 65187 184
Width: 960
GlyphClass: 2
Flags: W
AnchorPoint: "Anchor-3" 405 -600 basechar 0
AnchorPoint: "Anchor-2" 465 900 basechar 0
LayerCount: 2
Fore
SplineSet
929 394 m 0,0,1
 929 360 929 360 894 306 c 0,2,3
 886 294 886 294 806 278 c 0,4,5
 696 258 696 258 571 190 c 0,6,7
 532 169 532 169 355 59 c 0,8,9
 276 11 276 11 123 2 c 0,10,11
 57 -1 57 -1 -12 0 c 1,12,-1
 -12 167 l 1,13,-1
 95 167 l 2,14,15
 197 167 197 167 316 207 c 0,16,17
 443 249 443 249 512 313 c 1,18,19
 429 328 429 328 259 347 c 0,20,21
 239 350 239 350 236 350 c 0,22,23
 200 350 200 350 142.5 302.5 c 128,-1,24
 85 255 85 255 94 255 c 1,25,26
 87 255 87 255 69 267 c 1,27,-1
 57 297 l 1,28,29
 57 415 57 415 155 487 c 0,30,31
 208 526 208 526 258 526 c 0,32,33
 318 526 318 526 582 481 c 0,34,35
 623 477 623 477 687 467 c 128,-1,36
 751 457 751 457 791 457 c 0,37,38
 816 457 816 457 856 462 c 0,39,40
 905 468 905 468 919 469 c 1,41,42
 929 444 929 444 929 394 c 0,0,1
EndSplineSet
EndChar

StartChar: afii62775
Encoding: 65188 65188 185
Width: 1119
GlyphClass: 2
Flags: W
AnchorPoint: "Anchor-3" 495 -540 basechar 0
AnchorPoint: "Anchor-2" 540 960 basechar 0
LayerCount: 2
Fore
SplineSet
1136 0 m 1,0,-1
 960 0 l 2,1,2
 795 0 795 0 795 262 c 1,3,4
 629 230 629 230 556 194 c 0,5,6
 500 165 500 165 331 88 c 1,7,-1
 226 44 l 2,8,9
 121 0 121 0 14 0 c 2,10,-1
 -19 0 l 1,11,-1
 -19 167 l 1,12,13
 139 167 139 167 243 215 c 2,14,-1
 514 343 l 1,15,16
 408 396 408 396 306 396 c 0,17,18
 170 396 170 396 143 331 c 0,19,20
 131 301 131 301 114 301 c 0,21,22
 101 301 101 301 101 346 c 0,23,24
 101 402 101 402 112 430 c 1,25,26
 112 430 112 430 125 452 c 0,27,28
 187 559 187 559 301 559 c 0,29,30
 454 559 454 559 652 486 c 0,31,32
 723 459 723 459 857 459 c 0,33,34
 880 459 880 459 926 466.5 c 128,-1,35
 972 474 972 474 995 474 c 1,36,-1
 997 462 l 2,37,38
 997 439 997 439 971.5 377.5 c 128,-1,39
 946 316 946 316 929 300 c 2,40,-1
 914 290 l 1,41,-1
 858 281 l 1,42,43
 882 211 882 211 921 188 c 0,44,45
 955 167 955 167 1032 167 c 2,46,-1
 1136 167 l 1,47,-1
 1136 0 l 1,0,-1
EndSplineSet
EndChar

StartChar: afii57423
Encoding: 1583 1583 190
Width: 652
GlyphClass: 2
Flags: W
AnchorPoint: "Anchor-3" 285 -465 basechar 0
AnchorPoint: "Anchor-2" 330 915 basechar 0
LayerCount: 2
Fore
SplineSet
628 313 m 0,0,1
 628 245 628 245 613 189 c 0,2,3
 595 125 595 125 546 95 c 0,4,5
 527 84 527 84 430 50 c 0,6,7
 263 -7 263 -7 180 -7 c 0,8,9
 83 -7 83 -7 83 86 c 0,10,11
 83 126 83 126 96 173 c 0,12,13
 113 232 113 232 139 232 c 0,14,15
 157 232 157 232 161 205 c 0,16,17
 165 170 165 170 190 154 c 1,18,19
 213 148 213 148 262 148 c 0,20,21
 338 148 338 148 516 240 c 0,22,23
 538 252 538 252 538 271 c 1,24,25
 505 355 505 355 441 396 c 0,26,27
 351 456 351 456 328 481 c 1,28,-1
 327 496 l 2,29,30
 327 503 327 503 350 603 c 0,31,32
 354 622 354 622 371 624 c 1,33,34
 546 552 546 552 610 396 c 0,35,36
 628 353 628 353 628 313 c 0,0,1
EndSplineSet
Substitution2: "'fina' Terminal Forms in Arabic lookup 2 subtable" afii62780
PairPos2: "'kern' Horizontal Kerning in Arabic lookup 0 subtable" afii57410 dx=0 dy=0 dh=0 dv=0 dx=0 dy=0 dh=-80 dv=0
PairPos2: "'kern' Horizontal Kerning in Arabic lookup 0 subtable" afii62965 dx=0 dy=0 dh=0 dv=0 dx=0 dy=0 dh=-80 dv=0
PairPos2: "'kern' Horizontal Kerning in Arabic lookup 0 subtable" afii57509 dx=0 dy=0 dh=0 dv=0 dx=0 dy=0 dh=-80 dv=0
PairPos2: "'kern' Horizontal Kerning in Arabic lookup 0 subtable" afii52305 dx=0 dy=0 dh=0 dv=0 dx=0 dy=0 dh=-80 dv=0
PairPos2: "'kern' Horizontal Kerning in Arabic lookup 0 subtable" afii57567 dx=0 dy=0 dh=0 dv=0 dx=0 dy=0 dh=-80 dv=0
EndChar

StartChar: afii62780
Encoding: 65194 65194 191
Width: 757
GlyphClass: 2
Flags: W
AnchorPoint: "Anchor-3" 270 -540 basechar 0
AnchorPoint: "Anchor-2" 375 990 basechar 0
LayerCount: 2
Fore
SplineSet
771 0 m 1,0,-1
 724 0 l 2,1,2
 675 0 675 0 634 55 c 1,3,-1
 580 149 l 2,4,5
 571 163 571 163 547 200 c 1,6,7
 342 17 342 17 190 17 c 0,8,9
 120 17 120 17 102 63 c 0,10,11
 94 85 94 85 94 169 c 0,12,13
 94 237 94 237 118 237 c 0,14,15
 130 237 130 237 138 224 c 0,16,17
 150 205 150 205 152 203 c 0,18,19
 168 174 168 174 211 174 c 0,20,21
 287 174 287 174 376 219 c 0,22,23
 462 262 462 262 512 324 c 1,24,25
 474 416 474 416 394 602 c 1,26,27
 405 659 405 659 405 665 c 0,28,29
 416 710 416 710 438 716 c 1,30,31
 463 680 463 680 583 399 c 0,32,33
 682 167 682 167 733 167 c 2,34,-1
 771 167 l 1,35,-1
 771 0 l 1,0,-1
EndSplineSet
PairPos2: "'kern' Horizontal Kerning in Arabic lookup 0 subtable" afii57410 dx=0 dy=0 dh=0 dv=0 dx=0 dy=0 dh=-80 dv=0
PairPos2: "'kern' Horizontal Kerning in Arabic lookup 0 subtable" afii62965 dx=0 dy=0 dh=0 dv=0 dx=0 dy=0 dh=-80 dv=0
PairPos2: "'kern' Horizontal Kerning in Arabic lookup 0 subtable" afii57509 dx=0 dy=0 dh=0 dv=0 dx=0 dy=0 dh=-80 dv=0
PairPos2: "'kern' Horizontal Kerning in Arabic lookup 0 subtable" afii52305 dx=0 dy=0 dh=0 dv=0 dx=0 dy=0 dh=-80 dv=0
PairPos2: "'kern' Horizontal Kerning in Arabic lookup 0 subtable" afii57567 dx=0 dy=0 dh=0 dv=0 dx=0 dy=0 dh=-80 dv=0
EndChar

StartChar: afii57425
Encoding: 1585 1585 194
Width: 935
GlyphClass: 2
Flags: W
AnchorPoint: "Anchor-3" 285 -810 basechar 0
AnchorPoint: "Anchor-2" 660 750 basechar 0
LayerCount: 2
Fore
SplineSet
892 208 m 2,0,1
 892 140 892 140 833 17 c 1,2,3
 729 -123 729 -123 589 -201 c 0,4,5
 396 -308 396 -308 190 -308 c 0,6,7
 21 -308 21 -308 -56 -270 c 0,8,9
 -75 -261 -75 -261 -93 -245 c 1,10,11
 38 -240 38 -240 208 -213 c 1,12,13
 412 -175 412 -175 642 -14 c 0,14,15
 804 99 804 99 804 159 c 0,16,17
 804 184 804 184 764.5 260.5 c 128,-1,18
 725 337 725 337 725 345 c 0,19,20
 725 417 725 417 743 447 c 128,-1,21
 761 477 761 477 789 477 c 0,22,23
 790 477 790 477 792 476 c 0,24,25
 892 324 892 324 892 245 c 2,26,-1
 892 208 l 2,0,1
EndSplineSet
Substitution2: "'fina' Terminal Forms in Arabic lookup 2 subtable" afii62782
PairPos2: "'kern' Horizontal Kerning in Arabic lookup 0 subtable" afii57415 dx=0 dy=0 dh=0 dv=0 dx=0 dy=0 dh=-200 dv=0
PairPos2: "'kern' Horizontal Kerning in Arabic lookup 0 subtable" uni0675 dx=0 dy=0 dh=0 dv=0 dx=0 dy=0 dh=-150 dv=0
PairPos2: "'kern' Horizontal Kerning in Arabic lookup 0 subtable" uni0672 dx=0 dy=0 dh=0 dv=0 dx=0 dy=0 dh=-150 dv=0
PairPos2: "'kern' Horizontal Kerning in Arabic lookup 0 subtable" uniFBFE dx=0 dy=0 dh=0 dv=0 dx=0 dy=0 dh=150 dv=0
PairPos2: "'kern' Horizontal Kerning in Arabic lookup 0 subtable" afii62840 dx=0 dy=0 dh=0 dv=0 dx=0 dy=0 dh=-190 dv=0
PairPos2: "'kern' Horizontal Kerning in Arabic lookup 0 subtable" afii62838 dx=0 dy=0 dh=0 dv=0 dx=0 dy=0 dh=-190 dv=0
PairPos2: "'kern' Horizontal Kerning in Arabic lookup 0 subtable" afii62836 dx=0 dy=0 dh=0 dv=0 dx=0 dy=0 dh=-190 dv=0
PairPos2: "'kern' Horizontal Kerning in Arabic lookup 0 subtable" afii62834 dx=0 dy=0 dh=0 dv=0 dx=0 dy=0 dh=-190 dv=0
PairPos2: "'kern' Horizontal Kerning in Arabic lookup 0 subtable" afii62831 dx=0 dy=0 dh=0 dv=0 dx=0 dy=0 dh=150 dv=0
PairPos2: "'kern' Horizontal Kerning in Arabic lookup 0 subtable" afii57447 dx=0 dy=0 dh=0 dv=0 dx=0 dy=0 dh=-100 dv=0
PairPos2: "'kern' Horizontal Kerning in Arabic lookup 0 subtable" afii62823 dx=0 dy=0 dh=0 dv=0 dx=0 dy=0 dh=-80 dv=0
PairPos2: "'kern' Horizontal Kerning in Arabic lookup 0 subtable" afii57445 dx=0 dy=0 dh=0 dv=0 dx=0 dy=0 dh=-80 dv=0
PairPos2: "'kern' Horizontal Kerning in Arabic lookup 0 subtable" afii62817 dx=0 dy=0 dh=0 dv=0 dx=0 dy=0 dh=-80 dv=0
PairPos2: "'kern' Horizontal Kerning in Arabic lookup 0 subtable" afii57410 dx=0 dy=0 dh=0 dv=0 dx=0 dy=0 dh=-350 dv=0
PairPos2: "'kern' Horizontal Kerning in Arabic lookup 0 subtable" afii57443 dx=0 dy=0 dh=0 dv=0 dx=0 dy=0 dh=-80 dv=0
PairPos2: "'kern' Horizontal Kerning in Arabic lookup 0 subtable" afii57441 dx=0 dy=0 dh=0 dv=0 dx=0 dy=0 dh=-150 dv=0
PairPos2: "'kern' Horizontal Kerning in Arabic lookup 0 subtable" afii57434 dx=0 dy=0 dh=0 dv=0 dx=0 dy=0 dh=-150 dv=0
PairPos2: "'kern' Horizontal Kerning in Arabic lookup 0 subtable" afii57433 dx=0 dy=0 dh=0 dv=0 dx=0 dy=0 dh=-150 dv=0
PairPos2: "'kern' Horizontal Kerning in Arabic lookup 0 subtable" afii62799 dx=0 dy=0 dh=0 dv=0 dx=0 dy=0 dh=-50 dv=0
PairPos2: "'kern' Horizontal Kerning in Arabic lookup 0 subtable" afii57432 dx=0 dy=0 dh=0 dv=0 dx=0 dy=0 dh=-50 dv=0
PairPos2: "'kern' Horizontal Kerning in Arabic lookup 0 subtable" afii62796 dx=0 dy=0 dh=0 dv=0 dx=0 dy=0 dh=-50 dv=0
PairPos2: "'kern' Horizontal Kerning in Arabic lookup 0 subtable" afii57431 dx=0 dy=0 dh=0 dv=0 dx=0 dy=0 dh=-50 dv=0
PairPos2: "'kern' Horizontal Kerning in Arabic lookup 0 subtable" afii62793 dx=0 dy=0 dh=0 dv=0 dx=0 dy=0 dh=-70 dv=0
PairPos2: "'kern' Horizontal Kerning in Arabic lookup 0 subtable" afii57430 dx=0 dy=0 dh=0 dv=0 dx=0 dy=0 dh=-80 dv=0
PairPos2: "'kern' Horizontal Kerning in Arabic lookup 0 subtable" afii62790 dx=0 dy=0 dh=0 dv=0 dx=0 dy=0 dh=-70 dv=0
PairPos2: "'kern' Horizontal Kerning in Arabic lookup 0 subtable" afii57429 dx=0 dy=0 dh=0 dv=0 dx=0 dy=0 dh=-80 dv=0
PairPos2: "'kern' Horizontal Kerning in Arabic lookup 0 subtable" afii62787 dx=0 dy=0 dh=0 dv=0 dx=0 dy=0 dh=-70 dv=0
PairPos2: "'kern' Horizontal Kerning in Arabic lookup 0 subtable" afii57428 dx=0 dy=0 dh=0 dv=0 dx=0 dy=0 dh=-80 dv=0
PairPos2: "'kern' Horizontal Kerning in Arabic lookup 0 subtable" afii62784 dx=0 dy=0 dh=0 dv=0 dx=0 dy=0 dh=-70 dv=0
PairPos2: "'kern' Horizontal Kerning in Arabic lookup 0 subtable" afii57427 dx=0 dy=0 dh=0 dv=0 dx=0 dy=0 dh=-80 dv=0
PairPos2: "'kern' Horizontal Kerning in Arabic lookup 0 subtable" afii57424 dx=0 dy=0 dh=0 dv=0 dx=0 dy=0 dh=-100 dv=0
PairPos2: "'kern' Horizontal Kerning in Arabic lookup 0 subtable" afii57423 dx=0 dy=0 dh=0 dv=0 dx=0 dy=0 dh=-100 dv=0
PairPos2: "'kern' Horizontal Kerning in Arabic lookup 0 subtable" afii62777 dx=0 dy=0 dh=0 dv=0 dx=0 dy=0 dh=-80 dv=0
PairPos2: "'kern' Horizontal Kerning in Arabic lookup 0 subtable" afii62774 dx=0 dy=0 dh=0 dv=0 dx=0 dy=0 dh=-80 dv=0
PairPos2: "'kern' Horizontal Kerning in Arabic lookup 0 subtable" afii62771 dx=0 dy=0 dh=0 dv=0 dx=0 dy=0 dh=-80 dv=0
PairPos2: "'kern' Horizontal Kerning in Arabic lookup 0 subtable" afii62768 dx=0 dy=0 dh=0 dv=0 dx=0 dy=0 dh=-80 dv=0
PairPos2: "'kern' Horizontal Kerning in Arabic lookup 0 subtable" afii57419 dx=0 dy=0 dh=0 dv=0 dx=0 dy=0 dh=-150 dv=0
PairPos2: "'kern' Horizontal Kerning in Arabic lookup 0 subtable" afii62765 dx=0 dy=0 dh=0 dv=0 dx=0 dy=0 dh=-80 dv=0
PairPos2: "'kern' Horizontal Kerning in Arabic lookup 0 subtable" afii57418 dx=0 dy=0 dh=0 dv=0 dx=0 dy=0 dh=-150 dv=0
PairPos2: "'kern' Horizontal Kerning in Arabic lookup 0 subtable" afii57417 dx=0 dy=0 dh=0 dv=0 dx=0 dy=0 dh=-100 dv=0
PairPos2: "'kern' Horizontal Kerning in Arabic lookup 0 subtable" afii62761 dx=0 dy=0 dh=0 dv=0 dx=0 dy=0 dh=150 dv=0
PairPos2: "'kern' Horizontal Kerning in Arabic lookup 0 subtable" afii57416 dx=0 dy=0 dh=0 dv=0 dx=0 dy=0 dh=-150 dv=0
PairPos2: "'kern' Horizontal Kerning in Arabic lookup 0 subtable" afii57415.001 dx=0 dy=0 dh=0 dv=0 dx=0 dy=0 dh=-200 dv=0
PairPos2: "'kern' Horizontal Kerning in Arabic lookup 0 subtable" afii62757 dx=0 dy=0 dh=0 dv=0 dx=0 dy=0 dh=-80 dv=0
PairPos2: "'kern' Horizontal Kerning in Arabic lookup 0 subtable" afii57413 dx=0 dy=0 dh=0 dv=0 dx=0 dy=0 dh=150 dv=0
PairPos2: "'kern' Horizontal Kerning in Arabic lookup 0 subtable" afii57411 dx=0 dy=0 dh=0 dv=0 dx=0 dy=0 dh=-150 dv=0
PairPos2: "'kern' Horizontal Kerning in Arabic lookup 0 subtable" afii52399 dx=0 dy=0 dh=0 dv=0 dx=0 dy=0 dh=-50 dv=0
PairPos2: "'kern' Horizontal Kerning in Arabic lookup 0 subtable" afii62965 dx=0 dy=0 dh=0 dv=0 dx=0 dy=0 dh=-350 dv=0
PairPos2: "'kern' Horizontal Kerning in Arabic lookup 0 subtable" afii57509 dx=0 dy=0 dh=0 dv=0 dx=0 dy=0 dh=-350 dv=0
PairPos2: "'kern' Horizontal Kerning in Arabic lookup 0 subtable" afii52305 dx=0 dy=0 dh=0 dv=0 dx=0 dy=0 dh=-350 dv=0
PairPos2: "'kern' Horizontal Kerning in Arabic lookup 0 subtable" afii57567 dx=0 dy=0 dh=0 dv=0 dx=0 dy=0 dh=-350 dv=0
PairPos2: "'kern' Horizontal Kerning in Arabic lookup 0 subtable" afii62959 dx=0 dy=0 dh=0 dv=0 dx=0 dy=0 dh=-80 dv=0
PairPos2: "'kern' Horizontal Kerning in Arabic lookup 0 subtable" afii57505 dx=0 dy=0 dh=0 dv=0 dx=0 dy=0 dh=-150 dv=0
PairPos2: "'kern' Horizontal Kerning in Arabic lookup 0 subtable" afii62956 dx=0 dy=0 dh=0 dv=0 dx=0 dy=0 dh=150 dv=0
PairPos2: "'kern' Horizontal Kerning in Arabic lookup 0 subtable" afii57506 dx=0 dy=0 dh=0 dv=0 dx=0 dy=0 dh=-150 dv=0
EndChar

StartChar: afii62782
Encoding: 65198 65198 195
Width: 1060
GlyphClass: 2
Flags: W
AnchorPoint: "Anchor-3" 270 -915 basechar 0
AnchorPoint: "Anchor-2" 705 600 basechar 0
LayerCount: 2
Fore
SplineSet
1071 0 m 1,0,1
 950 0 950 0 809 -57 c 0,2,3
 631 -129 631 -129 512 -220 c 0,4,5
 443 -274 443 -274 244 -427 c 0,6,7
 182 -475 182 -475 130 -475 c 256,8,9
 78 -475 78 -475 38.5 -435.5 c 128,-1,10
 -1 -396 -1 -396 -1 -344 c 0,11,12
 -1 -183 -1 -183 199 12 c 0,13,14
 252 64 252 64 295 102 c 0,15,16
 300 105 300 105 306 106 c 0,17,18
 319 106 319 106 319 89 c 1,19,20
 315 79 315 79 311 74 c 0,21,22
 86 -151 86 -151 86 -243 c 0,23,24
 86 -320 86 -320 176 -320 c 0,25,26
 221 -320 221 -320 293 -262 c 0,27,28
 317 -242 317 -242 390 -181 c 0,29,30
 403 -171 403 -171 532 -74 c 0,31,32
 633 2 633 2 778 76 c 0,33,34
 955 167 955 167 1042 167 c 2,35,-1
 1071 167 l 1,36,-1
 1071 0 l 1,0,1
EndSplineSet
PairPos2: "'kern' Horizontal Kerning in Arabic lookup 0 subtable" afii57415 dx=0 dy=0 dh=0 dv=0 dx=0 dy=0 dh=-70 dv=0
PairPos2: "'kern' Horizontal Kerning in Arabic lookup 0 subtable" uni0675 dx=0 dy=0 dh=0 dv=0 dx=0 dy=0 dh=-70 dv=0
PairPos2: "'kern' Horizontal Kerning in Arabic lookup 0 subtable" uni0672 dx=0 dy=0 dh=0 dv=0 dx=0 dy=0 dh=-70 dv=0
PairPos2: "'kern' Horizontal Kerning in Arabic lookup 0 subtable" uniFBFE dx=0 dy=0 dh=0 dv=0 dx=0 dy=0 dh=150 dv=0
PairPos2: "'kern' Horizontal Kerning in Arabic lookup 0 subtable" afii62831 dx=0 dy=0 dh=0 dv=0 dx=0 dy=0 dh=150 dv=0
PairPos2: "'kern' Horizontal Kerning in Arabic lookup 0 subtable" afii62823 dx=0 dy=0 dh=0 dv=0 dx=0 dy=0 dh=-70 dv=0
PairPos2: "'kern' Horizontal Kerning in Arabic lookup 0 subtable" afii57445 dx=0 dy=0 dh=0 dv=0 dx=0 dy=0 dh=-100 dv=0
PairPos2: "'kern' Horizontal Kerning in Arabic lookup 0 subtable" afii62817 dx=0 dy=0 dh=0 dv=0 dx=0 dy=0 dh=-50 dv=0
PairPos2: "'kern' Horizontal Kerning in Arabic lookup 0 subtable" afii57410 dx=0 dy=0 dh=0 dv=0 dx=0 dy=0 dh=-250 dv=0
PairPos2: "'kern' Horizontal Kerning in Arabic lookup 0 subtable" afii57443 dx=0 dy=0 dh=0 dv=0 dx=0 dy=0 dh=-50 dv=0
PairPos2: "'kern' Horizontal Kerning in Arabic lookup 0 subtable" afii57441 dx=0 dy=0 dh=0 dv=0 dx=0 dy=0 dh=-90 dv=0
PairPos2: "'kern' Horizontal Kerning in Arabic lookup 0 subtable" afii57434 dx=0 dy=0 dh=0 dv=0 dx=0 dy=0 dh=150 dv=0
PairPos2: "'kern' Horizontal Kerning in Arabic lookup 0 subtable" afii57433 dx=0 dy=0 dh=0 dv=0 dx=0 dy=0 dh=150 dv=0
PairPos2: "'kern' Horizontal Kerning in Arabic lookup 0 subtable" afii57422 dx=0 dy=0 dh=0 dv=0 dx=0 dy=0 dh=150 dv=0
PairPos2: "'kern' Horizontal Kerning in Arabic lookup 0 subtable" afii57421 dx=0 dy=0 dh=0 dv=0 dx=0 dy=0 dh=150 dv=0
PairPos2: "'kern' Horizontal Kerning in Arabic lookup 0 subtable" afii57420 dx=0 dy=0 dh=0 dv=0 dx=0 dy=0 dh=150 dv=0
PairPos2: "'kern' Horizontal Kerning in Arabic lookup 0 subtable" afii62768 dx=0 dy=0 dh=0 dv=0 dx=0 dy=0 dh=-70 dv=0
PairPos2: "'kern' Horizontal Kerning in Arabic lookup 0 subtable" afii57419 dx=0 dy=0 dh=0 dv=0 dx=0 dy=0 dh=-90 dv=0
PairPos2: "'kern' Horizontal Kerning in Arabic lookup 0 subtable" afii62765 dx=0 dy=0 dh=0 dv=0 dx=0 dy=0 dh=-70 dv=0
PairPos2: "'kern' Horizontal Kerning in Arabic lookup 0 subtable" afii57418 dx=0 dy=0 dh=0 dv=0 dx=0 dy=0 dh=-90 dv=0
PairPos2: "'kern' Horizontal Kerning in Arabic lookup 0 subtable" afii62761 dx=0 dy=0 dh=0 dv=0 dx=0 dy=0 dh=150 dv=0
PairPos2: "'kern' Horizontal Kerning in Arabic lookup 0 subtable" afii57416 dx=0 dy=0 dh=0 dv=0 dx=0 dy=0 dh=-90 dv=0
PairPos2: "'kern' Horizontal Kerning in Arabic lookup 0 subtable" afii57415.001 dx=0 dy=0 dh=0 dv=0 dx=0 dy=0 dh=-70 dv=0
PairPos2: "'kern' Horizontal Kerning in Arabic lookup 0 subtable" afii62757 dx=0 dy=0 dh=0 dv=0 dx=0 dy=0 dh=-70 dv=0
PairPos2: "'kern' Horizontal Kerning in Arabic lookup 0 subtable" afii57413 dx=0 dy=0 dh=0 dv=0 dx=0 dy=0 dh=200 dv=0
PairPos2: "'kern' Horizontal Kerning in Arabic lookup 0 subtable" afii57411 dx=0 dy=0 dh=0 dv=0 dx=0 dy=0 dh=-70 dv=0
PairPos2: "'kern' Horizontal Kerning in Arabic lookup 0 subtable" afii52399 dx=0 dy=0 dh=0 dv=0 dx=0 dy=0 dh=-100 dv=0
PairPos2: "'kern' Horizontal Kerning in Arabic lookup 0 subtable" afii62965 dx=0 dy=0 dh=0 dv=0 dx=0 dy=0 dh=-250 dv=0
PairPos2: "'kern' Horizontal Kerning in Arabic lookup 0 subtable" afii57509 dx=0 dy=0 dh=0 dv=0 dx=0 dy=0 dh=-250 dv=0
PairPos2: "'kern' Horizontal Kerning in Arabic lookup 0 subtable" afii52305 dx=0 dy=0 dh=0 dv=0 dx=0 dy=0 dh=-250 dv=0
PairPos2: "'kern' Horizontal Kerning in Arabic lookup 0 subtable" afii57567 dx=0 dy=0 dh=0 dv=0 dx=0 dy=0 dh=-250 dv=0
PairPos2: "'kern' Horizontal Kerning in Arabic lookup 0 subtable" afii57507 dx=0 dy=0 dh=0 dv=0 dx=0 dy=0 dh=150 dv=0
PairPos2: "'kern' Horizontal Kerning in Arabic lookup 0 subtable" afii57505 dx=0 dy=0 dh=0 dv=0 dx=0 dy=0 dh=-90 dv=0
PairPos2: "'kern' Horizontal Kerning in Arabic lookup 0 subtable" afii62956 dx=0 dy=0 dh=0 dv=0 dx=0 dy=0 dh=150 dv=0
PairPos2: "'kern' Horizontal Kerning in Arabic lookup 0 subtable" afii57506 dx=0 dy=0 dh=0 dv=0 dx=0 dy=0 dh=-90 dv=0
EndChar

StartChar: afii57427
Encoding: 1587 1587 198
Width: 1427
GlyphClass: 2
Flags: W
AnchorPoint: "Anchor-3" 735 -660 basechar 0
AnchorPoint: "Anchor-2" 930 720 basechar 0
LayerCount: 2
Fore
SplineSet
1376 301 m 2,0,1
 1376 192 1376 192 1338 109 c 0,2,3
 1288 2 1288 2 1190 2 c 0,4,5
 1126 2 1126 2 1097 35 c 1,6,7
 1041 -1 1041 -1 866 -1 c 0,8,9
 800 -1 800 -1 775 10 c 1,10,11
 760 -101 760 -101 728 -148 c 0,12,13
 680 -218 680 -218 528 -284 c 0,14,15
 383 -347 383 -347 290 -347 c 0,16,17
 27 -347 27 -347 27 -112 c 0,18,19
 27 32 27 32 90 134 c 0,20,21
 146 225 146 225 274 311 c 1,22,23
 283 303 283 303 283 269 c 0,24,25
 283 250 283 250 276 218 c 1,26,-1
 180 107 l 2,27,28
 130 49 130 49 102 -17 c 1,29,30
 112 -96 112 -96 173 -141 c 0,31,32
 230 -183 230 -183 313 -183 c 0,33,34
 385 -183 385 -183 543 -117 c 0,35,36
 714 -44 714 -44 714 14 c 0,37,38
 714 67 714 67 631 224 c 1,39,40
 643 276 643 276 675 347 c 1,41,-1
 682 350 l 1,42,43
 725 349 725 349 788 167 c 1,44,45
 879 162 879 162 897 162 c 0,46,47
 1052 162 1052 162 1126 220 c 1,48,49
 1160 343 1160 343 1188 343 c 0,50,51
 1211 343 1211 343 1211 306 c 0,52,53
 1211 290 1211 290 1205.5 259.5 c 128,-1,54
 1200 229 1200 229 1200 213 c 0,55,56
 1200 189 1200 189 1208 176 c 1,57,-1
 1214 174 l 1,58,-1
 1229 174 l 2,59,60
 1269 174 1269 174 1273 181 c 1,61,62
 1290 185 1290 185 1312 261 c 128,-1,63
 1334 337 1334 337 1351 337 c 0,64,65
 1366 337 1366 337 1376 315 c 1,66,-1
 1376 301 l 2,0,1
EndSplineSet
Substitution2: "'medi' Medial Forms in Arabic lookup 3 subtable" afii62785
Substitution2: "'fina' Terminal Forms in Arabic lookup 2 subtable" afii62786
Substitution2: "'init' Initial Forms in Arabic lookup 1 subtable" afii62784
EndChar

StartChar: afii62786
Encoding: 65202 65202 199
Width: 1504
GlyphClass: 2
Flags: W
AnchorPoint: "Anchor-3" 825 -675 basechar 0
AnchorPoint: "Anchor-2" 1095 795 basechar 0
LayerCount: 2
Fore
SplineSet
1526 0 m 1,0,-1
 1365 0 l 2,1,2
 1333 0 1333 0 1271 17 c 1,3,4
 1229 5 1229 5 1195 5 c 0,5,6
 1121 5 1121 5 1097 35 c 1,7,8
 1041 -1 1041 -1 866 -1 c 0,9,10
 800 -1 800 -1 775 10 c 1,11,12
 760 -101 760 -101 728 -148 c 0,13,14
 680 -218 680 -218 528 -284 c 0,15,16
 383 -347 383 -347 290 -347 c 0,17,18
 137 -347 137 -347 69 -262 c 0,19,20
 27 -209 27 -209 27 -112 c 0,21,22
 27 32 27 32 90 134 c 0,23,24
 146 225 146 225 274 311 c 1,25,26
 283 303 283 303 283 269 c 0,27,28
 283 250 283 250 276 218 c 1,29,-1
 180 107 l 2,30,31
 130 49 130 49 102 -17 c 1,32,33
 112 -96 112 -96 173 -141 c 0,34,35
 230 -183 230 -183 313 -183 c 0,36,37
 383 -183 383 -183 541 -117 c 0,38,39
 714 -44 714 -44 714 14 c 0,40,41
 714 67 714 67 631 224 c 1,42,43
 643 276 643 276 675 347 c 1,44,-1
 682 350 l 1,45,46
 725 349 725 349 788 167 c 1,47,48
 879 162 879 162 897 162 c 0,49,50
 1052 162 1052 162 1126 220 c 1,51,52
 1160 343 1160 343 1188 343 c 0,53,54
 1211 343 1211 343 1211 306 c 0,55,56
 1211 290 1211 290 1205.5 259.5 c 128,-1,57
 1200 229 1200 229 1200 213 c 0,58,59
 1200 189 1200 189 1208 176 c 1,60,-1
 1214 174 l 1,61,-1
 1229 174 l 2,62,63
 1269 174 1269 174 1273 181 c 1,64,65
 1290 185 1290 185 1312 261 c 128,-1,66
 1334 337 1334 337 1351 337 c 0,67,68
 1374 337 1374 337 1376 299 c 1,69,70
 1373 367 1373 367 1373 243 c 0,71,72
 1373 232 1373 232 1384 181 c 1,73,74
 1403 164 1403 164 1526 167 c 1,75,-1
 1526 0 l 1,0,-1
EndSplineSet
EndChar

StartChar: afii62784
Encoding: 65203 65203 200
Width: 945
GlyphClass: 2
Flags: W
AnchorPoint: "Anchor-3" 450 -585 basechar 0
AnchorPoint: "Anchor-2" 510 735 basechar 0
LayerCount: 2
Fore
SplineSet
914 315 m 1,0,1
 913 275 913 275 901 200 c 1,2,3
 891 166 891 166 888 149 c 0,4,5
 886 142 886 142 866 105 c 0,6,7
 809 -2 809 -2 716 -2 c 0,8,9
 676 -2 676 -2 633 35 c 1,10,11
 587 5 587 5 409 5 c 2,12,-1
 244 5 l 2,13,14
 205 5 205 5 157 17 c 1,15,16
 109 -2 109 -2 -12 0 c 1,17,-1
 -12 167 l 1,18,19
 218 167 218 167 243 220 c 2,20,-1
 264 267 l 1,21,22
 294 367 294 367 324 367 c 0,23,24
 336 367 336 367 347 352 c 1,25,26
 350 339 350 339 350 325 c 0,27,28
 350 300 350 300 345 293 c 0,29,30
 324 201 324 201 326 167 c 1,31,32
 420 162 420 162 441 162 c 0,33,34
 584 162 584 162 662 220 c 1,35,36
 697 343 697 343 724 343 c 0,37,38
 749 343 749 343 749 303 c 0,39,40
 749 288 749 288 743 257 c 128,-1,41
 737 226 737 226 737 211 c 0,42,43
 737 198 737 198 745 176 c 1,44,-1
 768 174 l 2,45,46
 807 174 807 174 833 202 c 1,47,48
 843 230 843 230 860 313 c 0,49,50
 865 337 865 337 889 337 c 0,51,52
 904 337 904 337 914 315 c 1,0,1
EndSplineSet
EndChar

StartChar: afii62785
Encoding: 65204 65204 201
Width: 1042
GlyphClass: 2
Flags: W
AnchorPoint: "Anchor-3" 510 -690 basechar 0
AnchorPoint: "Anchor-2" 630 765 basechar 0
LayerCount: 2
Fore
SplineSet
1064 0 m 1,0,-1
 922 0 l 2,1,2
 881 0 881 0 809 17 c 1,3,4
 816 14 816 14 816 12 c 0,5,6
 815 5 815 5 701 5 c 0,7,8
 674 5 674 5 633 35 c 1,9,10
 587 5 587 5 409 5 c 2,11,-1
 244 5 l 2,12,13
 205 5 205 5 157 17 c 1,14,15
 109 -2 109 -2 -12 0 c 1,16,-1
 -12 167 l 1,17,18
 218 167 218 167 243 220 c 2,19,-1
 264 267 l 1,20,21
 294 367 294 367 324 367 c 0,22,23
 336 367 336 367 347 352 c 1,24,25
 350 339 350 339 350 325 c 0,26,27
 350 300 350 300 345 293 c 0,28,29
 324 201 324 201 326 167 c 1,30,31
 420 162 420 162 441 162 c 0,32,33
 584 162 584 162 662 220 c 1,34,35
 697 343 697 343 724 343 c 0,36,37
 749 343 749 343 749 303 c 0,38,39
 749 288 749 288 743 257 c 128,-1,40
 737 226 737 226 737 211 c 0,41,42
 737 198 737 198 745 176 c 1,43,-1
 768 174 l 2,44,45
 807 174 807 174 833 202 c 1,46,47
 843 230 843 230 860 313 c 0,48,49
 865 337 865 337 889 337 c 0,50,51
 904 337 904 337 914 315 c 1,52,53
 912 289 912 289 912 243 c 0,54,55
 912 207 912 207 922 181 c 1,56,57
 939 164 939 164 1064 167 c 1,58,-1
 1064 0 l 1,0,-1
EndSplineSet
EndChar

StartChar: afii57429
Encoding: 1589 1589 206
Width: 1827
GlyphClass: 2
Flags: W
AnchorPoint: "Anchor-3" 840 -735 basechar 0
AnchorPoint: "Anchor-2" 1080 840 basechar 0
LayerCount: 2
Fore
SplineSet
1824 342 m 256,0,1
 1824 255 1824 255 1758 171 c 0,2,3
 1716 119 1716 119 1624 71 c 0,4,5
 1538 26 1538 26 1466 14 c 0,6,7
 1319 -10 1319 -10 1081 -10 c 0,8,9
 1010 -10 1010 -10 985 0 c 1,10,11
 879 -134 879 -134 829 -255 c 0,12,13
 827 -256 827 -256 826 -256 c 0,14,15
 823 -256 823 -256 821 -255 c 2,16,-1
 809 -231 l 1,17,18
 823 -155 823 -155 909 5 c 1,19,-1
 834 14 l 2,20,21
 789 22 789 22 765 40 c 1,22,23
 765 -58 765 -58 716 -145 c 0,24,25
 682 -207 682 -207 516 -278 c 0,26,27
 362 -345 362 -345 278 -345 c 0,28,29
 74 -345 74 -345 32 -200 c 0,30,31
 14 -138 14 -138 14 -109 c 0,32,33
 14 -84 14 -84 30 -1 c 0,34,35
 52 121 52 121 163 233 c 0,36,37
 200 271 200 271 262 313 c 1,38,-1
 269 297 l 1,39,40
 271 278 271 278 271 239 c 0,41,42
 270 233 270 233 267 220 c 1,43,-1
 170 109 l 2,44,45
 122 54 122 54 90 -14 c 1,46,47
 114 -181 114 -181 300 -181 c 0,48,49
 372 -181 372 -181 528 -115 c 0,50,51
 702 -43 702 -43 702 17 c 0,52,53
 702 71 702 71 619 226 c 1,54,55
 632 281 632 281 637 296 c 0,56,57
 655 351 655 351 672 355 c 1,58,59
 704 350 704 350 765 205 c 0,60,61
 777 177 777 177 1004 162 c 1,62,63
 1044 212 1044 212 1130 301 c 1,64,65
 1460 569 1460 569 1527 569 c 0,66,67
 1619 569 1619 569 1717 502 c 0,68,69
 1824 429 1824 429 1824 342 c 256,0,1
1703 288 m 0,70,71
 1703 295 1703 295 1665 324 c 0,72,73
 1564 399 1564 399 1466 399 c 0,74,75
 1425 399 1425 399 1288 302 c 0,76,77
 1156 210 1156 210 1123 167 c 1,78,79
 1165 157 1165 157 1296 157 c 0,80,81
 1426 157 1426 157 1572 205 c 0,82,83
 1703 247 1703 247 1703 288 c 0,70,71
EndSplineSet
Substitution2: "'medi' Medial Forms in Arabic lookup 3 subtable" afii62791
Substitution2: "'fina' Terminal Forms in Arabic lookup 2 subtable" afii62792
Substitution2: "'init' Initial Forms in Arabic lookup 1 subtable" afii62790
EndChar

StartChar: afii62792
Encoding: 65210 65210 207
Width: 1884
GlyphClass: 2
Flags: W
AnchorPoint: "Anchor-3" 1050 -600 basechar 0
AnchorPoint: "Anchor-2" 1065 765 basechar 0
LayerCount: 2
Fore
SplineSet
1903 0 m 1,0,1
 1847 1 1847 1 1761 -4 c 0,2,3
 1654 -10 1654 -10 1618 -10 c 0,4,5
 1489 -10 1489 -10 1415 19 c 1,6,7
 1404 2 1404 2 1290 -6 c 0,8,9
 1159 -15 1159 -15 1051 -15 c 2,10,-1
 1027 -15 l 2,11,12
 1034 -15 1034 -15 875 -8 c 0,13,14
 847 -7 847 -7 790 10 c 1,15,16
 771 -84 771 -84 743 -131 c 0,17,18
 701 -199 701 -199 543 -267 c 0,19,20
 393 -331 393 -331 306 -331 c 0,21,22
 143 -331 143 -331 83 -244 c 0,23,24
 40 -181 40 -181 40 -95 c 0,25,26
 40 -51 40 -51 59 28 c 0,27,28
 79 111 79 111 99.5 144.5 c 128,-1,29
 120 178 120 178 193 251 c 0,30,31
 258 317 258 317 288 326 c 1,32,33
 297 320 297 320 297 287 c 0,34,35
 297 262 297 262 290 233 c 1,36,37
 227 163 227 163 194 123 c 0,38,39
 140 56 140 56 115 0 c 1,40,41
 138 -167 138 -167 326 -167 c 0,42,43
 397 -167 397 -167 556 -100 c 0,44,45
 728 -27 728 -27 728 32 c 0,46,47
 728 96 728 96 663 211 c 0,48,49
 656 220 656 220 645 240 c 1,50,51
 672 368 672 368 699 368 c 0,52,53
 701 368 701 368 704 367 c 0,54,55
 759 324 759 324 802 183 c 1,56,57
 845 169 845 169 933 169 c 1,58,-1
 951 171 l 1,59,60
 997 227 997 227 1053 286 c 0,61,62
 1101 336 1101 336 1265 450 c 0,63,64
 1436 569 1436 569 1476 569 c 0,65,66
 1584 569 1584 569 1679 506 c 0,67,68
 1785 436 1785 436 1785 333 c 0,69,70
 1785 317 1785 317 1729 171 c 1,71,72
 1736 159 1736 159 1760 159 c 0,73,74
 1781 159 1781 159 1831 164 c 0,75,76
 1877 168 1877 168 1903 167 c 1,77,-1
 1903 0 l 1,0,1
1665 288 m 1,78,79
 1653 312 1653 312 1586 347 c 0,80,81
 1491 399 1491 399 1422 399 c 0,82,83
 1384 399 1384 399 1247 302 c 0,84,85
 1117 210 1117 210 1088 169 c 1,86,87
 1117 157 1117 157 1270 157 c 0,88,89
 1380 157 1380 157 1528 203 c 0,90,91
 1665 246 1665 246 1665 288 c 1,78,79
EndSplineSet
EndChar

StartChar: afii62790
Encoding: 65211 65211 208
Width: 1203
GlyphClass: 2
Flags: W
AnchorPoint: "Anchor-3" 450 -690 basechar 0
AnchorPoint: "Anchor-2" 570 915 basechar 0
LayerCount: 2
Fore
SplineSet
1183 333 m 0,0,1
 1183 320 1183 320 1128 171 c 1,2,3
 1065 108 1065 108 989 68 c 0,4,5
 888 14 888 14 826 5 c 0,6,7
 725 -11 725 -11 533 -11 c 0,8,9
 370 -11 370 -11 343 0 c 1,10,11
 255 -115 255 -115 188 -255 c 0,12,13
 187 -256 187 -256 184 -256 c 0,14,15
 176 -256 176 -256 167 -231 c 1,16,17
 184 -165 184 -165 269 14 c 1,18,19
 217 46 217 46 183 112 c 1,20,21
 112 13 112 13 49 1 c 0,22,23
 30 -2 30 -2 -12 0 c 1,24,-1
 -12 167 l 1,25,26
 135 167 135 167 155 245 c 0,27,28
 162 280 162 280 184 350 c 0,29,30
 189 355 189 355 208 365 c 0,31,32
 215 365 215 365 226 352 c 1,33,34
 228 331 228 331 237 290 c 1,35,36
 263 217 263 217 371 176 c 1,37,38
 408 221 408 221 487 301 c 1,39,40
 823 569 823 569 885 569 c 0,41,42
 983 569 983 569 1078 501 c 0,43,44
 1183 426 1183 426 1183 333 c 0,0,1
1060 288 m 0,45,46
 1060 294 1060 294 1022 322 c 0,47,48
 920 399 920 399 823 399 c 0,49,50
 784 399 784 399 647 302 c 0,51,52
 519 212 519 212 481 167 c 1,53,54
 524 157 524 157 603 157 c 2,55,-1
 664 157 l 2,56,57
 779 157 779 157 923 203 c 0,58,59
 1060 248 1060 248 1060 288 c 0,45,46
EndSplineSet
EndChar

StartChar: afii62791
Encoding: 65212 65212 209
Width: 1276
GlyphClass: 2
Flags: W
AnchorPoint: "Anchor-3" 435 -750 basechar 0
AnchorPoint: "Anchor-2" 510 915 basechar 0
LayerCount: 2
Fore
SplineSet
1301 0 m 1,0,1
 1255 2 1255 2 1166.5 -6 c 128,-1,2
 1078 -14 1078 -14 1034 -14 c 0,3,4
 872 -14 872 -14 809 25 c 1,5,6
 802 7 802 7 663 5 c 2,7,-1
 343 0 l 1,8,9
 218 -162 218 -162 148 -324 c 1,10,-1
 143 -324 l 2,11,12
 134 -324 134 -324 127 -300 c 1,13,14
 149 -218 149 -218 269 14 c 1,15,16
 217 46 217 46 183 112 c 1,17,18
 112 13 112 13 49 1 c 0,19,20
 30 -2 30 -2 -12 0 c 1,21,-1
 -12 167 l 1,22,23
 135 167 135 167 155 245 c 0,24,25
 162 280 162 280 184 350 c 0,26,27
 189 355 189 355 208 365 c 0,28,29
 215 365 215 365 226 352 c 1,30,31
 240 275 240 275 257 246 c 0,32,33
 281 206 281 206 343 186 c 1,34,35
 482 325 482 325 669 455 c 0,36,37
 833 569 833 569 885 569 c 0,38,39
 983 569 983 569 1078 501 c 0,40,41
 1183 426 1183 426 1183 333 c 0,42,43
 1183 320 1183 320 1128 171 c 1,44,45
 1135 159 1135 159 1158 159 c 0,46,47
 1179 159 1179 159 1229 164 c 0,48,49
 1275 168 1275 168 1301 167 c 1,50,-1
 1301 0 l 1,0,1
1060 288 m 0,51,52
 1060 294 1060 294 1022 322 c 0,53,54
 920 399 920 399 823 399 c 0,55,56
 783 399 783 399 646 303 c 0,57,58
 514 212 514 212 486 169 c 1,59,60
 526 157 526 157 668 157 c 0,61,62
 744 157 744 157 888 194 c 0,63,64
 1060 238 1060 238 1060 288 c 0,51,52
EndSplineSet
EndChar

StartChar: afii57431
Encoding: 1591 1591 214
Width: 1151
GlyphClass: 2
Flags: W
AnchorPoint: "Anchor-3" 510 -510 basechar 0
AnchorPoint: "Anchor-2" 795 1095 basechar 0
LayerCount: 2
Fore
SplineSet
1113 333 m 0,0,1
 1113 274 1113 274 1046 171 c 0,2,3
 1016 124 1016 124 914 71 c 0,4,5
 903 66 903 66 754 14 c 0,6,7
 686 -10 686 -10 372 -10 c 0,8,9
 302 -10 302 -10 274 0 c 1,10,-1
 115 -256 l 1,11,12
 107 -256 107 -256 98 -231 c 1,13,14
 121 -155 121 -155 205 14 c 1,15,16
 168 18 168 18 103 73 c 128,-1,17
 38 128 38 128 38 162 c 0,18,19
 38 168 38 168 57 177 c 1,20,21
 123 164 123 164 151 164 c 0,22,23
 190 164 190 164 295 162 c 1,24,25
 312 175 312 175 345 215 c 1,26,-1
 345 319 l 2,27,28
 345 353 345 353 326 443 c 2,29,-1
 271 701 l 2,30,31
 255 780 255 780 255 827 c 1,32,33
 237 846 237 846 205 888 c 1,34,-1
 200 941 l 1,35,36
 200 1086 200 1086 232 1146 c 2,37,-1
 267 1210 l 2,38,39
 271 1213 271 1213 278 1214 c 0,40,41
 300 1214 300 1214 297 1198 c 2,42,-1
 280 1067 l 2,43,44
 271 1008 271 1008 350 997 c 0,45,46
 361 996 361 996 394 991 c 0,47,48
 415 984 415 984 415 956 c 0,49,50
 415 912 415 912 367 812 c 0,51,52
 362 802 362 802 345 797 c 1,53,54
 346 784 346 784 375 668 c 0,55,56
 426 460 426 460 420 352 c 2,57,-1
 416 286 l 1,58,59
 427 299 427 299 582 424 c 0,60,61
 762 569 762 569 816 569 c 0,62,63
 914 569 914 569 1009 501 c 0,64,65
 1113 427 1113 427 1113 333 c 0,0,1
995 288 m 1,66,67
 987 306 987 306 956 324 c 0,68,69
 827 399 827 399 754 399 c 0,70,71
 716 399 716 399 572 299 c 0,72,73
 435 203 435 203 406 162 c 1,74,-1
 591 162 l 2,75,76
 600 164 600 164 612 167 c 0,77,78
 668 167 668 167 724 174 c 0,79,80
 994 208 994 208 995 288 c 1,66,67
EndSplineSet
Substitution2: "'medi' Medial Forms in Arabic lookup 3 subtable" afii62797
Substitution2: "'fina' Terminal Forms in Arabic lookup 2 subtable" afii62798
Substitution2: "'init' Initial Forms in Arabic lookup 1 subtable" afii62796
EndChar

StartChar: afii62798
Encoding: 65218 65218 215
Width: 1197
GlyphClass: 2
Flags: W
AnchorPoint: "Anchor-3" 510 -615 basechar 0
AnchorPoint: "Anchor-2" 705 1140 basechar 0
LayerCount: 2
Fore
SplineSet
1216 0 m 1,0,1
 1154 1 1154 1 1059 -4 c 0,2,3
 940 -10 940 -10 902 -10 c 0,4,5
 806 -10 806 -10 785 0 c 2,6,-1
 754 14 l 1,7,8
 626 -10 626 -10 372 -10 c 0,9,10
 302 -10 302 -10 274 0 c 1,11,-1
 115 -256 l 1,12,13
 107 -256 107 -256 98 -231 c 1,14,15
 121 -155 121 -155 205 14 c 1,16,17
 168 18 168 18 103 73 c 128,-1,18
 38 128 38 128 38 162 c 0,19,20
 38 168 38 168 57 177 c 1,21,22
 123 164 123 164 151 164 c 0,23,24
 190 164 190 164 295 162 c 1,25,26
 312 175 312 175 345 215 c 1,27,-1
 345 319 l 2,28,29
 345 353 345 353 326 443 c 2,30,-1
 271 701 l 2,31,32
 255 780 255 780 255 827 c 1,33,34
 237 846 237 846 205 888 c 1,35,-1
 200 941 l 1,36,37
 200 1086 200 1086 232 1146 c 2,38,-1
 267 1210 l 2,39,40
 271 1213 271 1213 278 1214 c 0,41,42
 300 1214 300 1214 297 1198 c 2,43,-1
 280 1067 l 2,44,45
 271 1003 271 1003 394 991 c 1,46,47
 415 984 415 984 415 956 c 0,48,49
 415 913 415 913 367 812 c 0,50,51
 362 802 362 802 345 797 c 1,52,53
 346 784 346 784 375 668 c 0,54,55
 426 460 426 460 420 352 c 2,56,-1
 416 286 l 1,57,58
 427 299 427 299 582 424 c 0,59,60
 762 569 762 569 816 569 c 0,61,62
 914 569 914 569 1009 501 c 0,63,64
 1113 427 1113 427 1113 333 c 0,65,66
 1113 280 1113 280 1046 171 c 1,67,68
 1052 161 1052 161 1075 161 c 0,69,70
 1095 161 1095 161 1145 164 c 0,71,72
 1190 168 1190 168 1216 167 c 1,73,-1
 1216 0 l 1,0,1
995 288 m 1,74,75
 987 306 987 306 956 324 c 0,76,77
 827 399 827 399 754 399 c 0,78,79
 716 399 716 399 572 299 c 0,80,81
 435 203 435 203 406 162 c 1,82,-1
 591 162 l 2,83,84
 600 164 600 164 612 167 c 0,85,86
 668 167 668 167 724 174 c 0,87,88
 994 208 994 208 995 288 c 1,74,75
EndSplineSet
EndChar

StartChar: afii62796
Encoding: 65219 65219 216
Width: 1060
GlyphClass: 2
Flags: W
AnchorPoint: "Anchor-3" 540 -630 basechar 0
AnchorPoint: "Anchor-2" 600 1245 basechar 0
LayerCount: 2
Fore
SplineSet
1038 333 m 0,0,1
 1038 313 1038 313 1017 267 c 0,2,3
 984 191 984 191 958 161 c 0,4,5
 925 123 925 123 858 88 c 0,6,7
 806 61 806 61 775 48 c 0,8,9
 689 11 689 11 633 2 c 0,10,11
 624 1 624 1 496 -2 c 0,12,13
 482 -3 482 -3 444 -5 c 0,14,15
 412 -7 412 -7 393 -7 c 0,16,17
 325 -7 325 -7 198 0 c 1,18,19
 95 -134 95 -134 43 -255 c 1,20,-1
 40 -256 l 1,21,22
 33 -252 33 -252 19 -231 c 1,23,24
 37 -170 37 -170 125 0 c 1,25,-1
 -12 0 l 1,26,-1
 -12 167 l 1,27,28
 21 167 21 167 87 165.5 c 128,-1,29
 153 164 153 164 186 164 c 0,30,31
 208 164 208 164 218 167 c 0,32,33
 234 178 234 178 269 215 c 1,34,-1
 269 319 l 2,35,36
 269 390 269 390 236 533 c 0,37,38
 212 641 212 641 187 749 c 0,39,40
 176 807 176 807 176 827 c 1,41,42
 155 852 155 852 134 878 c 1,43,44
 123 898 123 898 123 947 c 0,45,46
 123 1045 123 1045 144 1121 c 0,47,48
 150 1135 150 1135 169 1177 c 0,49,50
 177 1195 177 1195 188 1210 c 0,51,52
 193 1213 193 1213 200 1214 c 0,53,54
 206 1214 206 1214 213 1210 c 1,55,-1
 220 1198 l 1,56,57
 213 1152 213 1152 202 1038 c 0,58,59
 200 1009 200 1009 269 997 c 0,60,61
 279 995 279 995 318 990 c 1,62,63
 338 982 338 982 338 947 c 0,64,65
 338 933 338 933 317 877 c 128,-1,66
 296 821 296 821 287 810.5 c 128,-1,67
 278 800 278 800 269 797 c 1,68,69
 271 768 271 768 319 577 c 0,70,71
 339 496 339 496 343 347 c 0,72,73
 344 296 344 296 340 286 c 1,74,75
 346 292 346 292 506 424 c 0,76,77
 683 569 683 569 740 569 c 0,78,79
 838 569 838 569 933 501 c 0,80,81
 1038 426 1038 426 1038 333 c 0,0,1
916 288 m 0,82,83
 916 294 916 294 877 322 c 0,84,85
 773 399 773 399 675 399 c 0,86,87
 638 399 638 399 495 299 c 0,88,89
 357 202 357 202 328 162 c 1,90,-1
 487 162 l 2,91,92
 506 165 506 165 533 167 c 0,93,94
 549 167 549 167 591 169 c 0,95,96
 672 174 672 174 768 199 c 0,97,98
 916 237 916 237 916 288 c 0,82,83
EndSplineSet
EndChar

StartChar: afii62797
Encoding: 65220 65220 217
Width: 1119
GlyphClass: 2
Flags: W
AnchorPoint: "Anchor-3" 495 -600 basechar 0
AnchorPoint: "Anchor-2" 690 1020 basechar 0
LayerCount: 2
Fore
SplineSet
1135 0 m 1,0,1
 1077 1 1077 1 986 -4 c 0,2,3
 873 -10 873 -10 838 -10 c 0,4,5
 722 -10 722 -10 703 0 c 2,6,-1
 675 14 l 1,7,8
 612 0 612 0 440 0 c 2,9,-1
 198 0 l 1,10,-1
 40 -256 l 1,11,12
 33 -252 33 -252 19 -231 c 1,13,14
 37 -170 37 -170 125 0 c 1,15,-1
 -12 0 l 1,16,-1
 -12 167 l 1,17,18
 21 167 21 167 87 165.5 c 128,-1,19
 153 164 153 164 186 164 c 0,20,21
 208 164 208 164 218 167 c 0,22,23
 234 178 234 178 269 215 c 1,24,-1
 269 319 l 2,25,26
 269 390 269 390 236 533 c 0,27,28
 212 641 212 641 187 749 c 0,29,30
 176 807 176 807 176 827 c 1,31,32
 155 852 155 852 134 878 c 1,33,34
 123 898 123 898 123 947 c 0,35,36
 123 1045 123 1045 144 1121 c 0,37,38
 150 1135 150 1135 169 1177 c 0,39,40
 177 1195 177 1195 188 1210 c 0,41,42
 193 1213 193 1213 200 1214 c 0,43,44
 206 1214 206 1214 213 1210 c 1,45,-1
 220 1198 l 1,46,47
 213 1152 213 1152 202 1038 c 0,48,49
 200 1009 200 1009 269 997 c 0,50,51
 279 995 279 995 318 990 c 1,52,53
 338 982 338 982 338 947 c 0,54,55
 338 933 338 933 317 877 c 128,-1,56
 296 821 296 821 287 810.5 c 128,-1,57
 278 800 278 800 269 797 c 1,58,59
 271 768 271 768 319 577 c 0,60,61
 339 496 339 496 343 347 c 0,62,63
 344 296 344 296 340 286 c 1,64,65
 346 292 346 292 506 424 c 0,66,67
 683 569 683 569 740 569 c 0,68,69
 832 569 832 569 931 502 c 0,70,71
 1038 430 1038 430 1038 342 c 0,72,73
 1038 263 1038 263 970 171 c 1,74,75
 976 161 976 161 1000 161 c 0,76,77
 1019 161 1019 161 1067 164 c 0,78,79
 1110 168 1110 168 1135 167 c 1,80,-1
 1135 0 l 1,0,1
916 288 m 0,81,82
 916 294 916 294 877 322 c 0,83,84
 773 399 773 399 675 399 c 0,85,86
 638 399 638 399 495 299 c 0,87,88
 357 202 357 202 328 162 c 1,89,-1
 487 162 l 2,90,91
 506 165 506 165 533 167 c 0,92,93
 549 167 549 167 591 169 c 0,94,95
 672 174 672 174 768 199 c 0,96,97
 916 237 916 237 916 288 c 0,81,82
EndSplineSet
EndChar

StartChar: afii57433
Encoding: 1593 1593 222
Width: 1059
GlyphClass: 2
Flags: W
AnchorPoint: "Anchor-3" 480 -1260 basechar 0
AnchorPoint: "Anchor-2" 405 1080 basechar 0
LayerCount: 2
Fore
SplineSet
1185 -543 m 1,0,1
 1180 -569 1180 -569 1105 -622 c 0,2,3
 1089 -634 1089 -634 1033 -672 c 0,4,5
 831 -812 831 -812 590 -812 c 0,6,7
 331 -812 331 -812 190 -679 c 0,8,9
 45 -543 45 -543 45 -286 c 0,10,11
 45 -149 45 -149 114 2 c 0,12,13
 153 88 153 88 201 159 c 0,14,15
 221 183 221 183 252 231 c 0,16,17
 267 259 267 259 264 275 c 2,18,-1
 262 281 l 1,19,20
 155 358 155 358 155 416 c 0,21,22
 155 432 155 432 169 518 c 0,23,24
 194 667 194 667 297 763 c 0,25,26
 349 810 349 810 374 812 c 0,27,28
 420 814 420 814 455 814 c 0,29,30
 493 814 493 814 575 778 c 0,31,32
 664 739 664 739 664 710 c 0,33,34
 664 692 664 692 646 671 c 128,-1,35
 628 650 628 650 610 650 c 0,36,37
 596 653 596 653 525 675 c 0,38,39
 501 682 501 682 457 682 c 0,40,41
 408 682 408 682 337 613 c 0,42,43
 272 549 272 549 255 496 c 1,44,45
 277 457 277 457 355 433 c 0,46,47
 416 414 416 414 476 414 c 0,48,49
 525 414 525 414 684.5 495 c 128,-1,50
 844 576 844 576 870 576 c 0,51,52
 885 576 885 576 885 543 c 0,53,54
 885 512 885 512 868 443 c 1,55,56
 786 409 786 409 665 357 c 0,57,58
 642 346 642 346 571 315 c 0,59,60
 564 313 564 313 543 303 c 2,61,-1
 481 269 l 2,62,63
 120 68 120 68 120 -243 c 0,64,65
 120 -445 120 -445 290 -555 c 0,66,67
 435 -647 435 -647 647 -647 c 0,68,69
 837 -647 837 -647 967 -609 c 0,70,71
 992 -602 992 -602 1078 -558 c 0,72,73
 1160 -516 1160 -516 1166 -518 c 0,74,75
 1185 -521 1185 -521 1185 -543 c 1,0,1
EndSplineSet
Substitution2: "'medi' Medial Forms in Arabic lookup 3 subtable" afii62803
Substitution2: "'fina' Terminal Forms in Arabic lookup 2 subtable" afii62804
Substitution2: "'init' Initial Forms in Arabic lookup 1 subtable" afii62802
EndChar

StartChar: afii62804
Encoding: 65226 65226 223
Width: 866
GlyphClass: 2
Flags: W
AnchorPoint: "Anchor-3" 390 -1185 basechar 0
AnchorPoint: "Anchor-2" 360 915 basechar 0
LayerCount: 2
Fore
SplineSet
1085 -501 m 0,0,1
 1085 -507 1085 -507 1071 -528 c 1,2,3
 925 -633 925 -633 826 -677 c 0,4,5
 690 -738 690 -738 546 -738 c 0,6,7
 19 -738 19 -738 19 -199 c 0,8,9
 19 -90 19 -90 76 80 c 0,10,11
 134 254 134 254 200 333 c 1,12,13
 189 347 189 347 167 347 c 0,14,15
 162 347 162 347 152.5 344.5 c 128,-1,16
 143 342 143 342 138 342 c 0,17,18
 115 342 115 342 115 369 c 0,19,20
 115 484 115 484 171 540 c 0,21,22
 215 584 215 584 374 584 c 0,23,24
 434 584 434 584 557 555 c 0,25,26
 562 553 562 553 568 544 c 1,27,-1
 571 516 l 2,28,29
 571 492 571 492 556 439 c 0,30,31
 544 401 544 401 531.5 388.5 c 128,-1,32
 519 376 519 376 481 367 c 128,-1,33
 443 358 443 358 386 333 c 1,34,35
 461 209 461 209 583 180 c 0,36,37
 637 167 637 167 925 167 c 1,38,-1
 925 0 l 1,39,-1
 752 0 l 2,40,41
 644 0 644 0 602 8 c 0,42,43
 446 39 446 39 364 178 c 2,44,-1
 301 286 l 1,45,46
 81 83 81 83 81 -162 c 0,47,48
 81 -372 81 -372 252 -481 c 0,49,50
 395 -571 395 -571 615 -571 c 0,51,52
 798 -571 798 -571 926 -540 c 0,53,54
 938 -537 938 -537 1007 -508 c 0,55,56
 1068 -482 1068 -482 1073 -482 c 0,57,58
 1085 -482 1085 -482 1085 -501 c 0,0,1
EndSplineSet
EndChar

StartChar: afii62802
Encoding: 65227 65227 224
Width: 857
GlyphClass: 2
Flags: W
AnchorPoint: "Anchor-3" 330 -525 basechar 0
AnchorPoint: "Anchor-2" 450 990 basechar 0
LayerCount: 2
Fore
SplineSet
838 355 m 0,0,1
 838 316 838 316 804 245 c 0,2,3
 796 227 796 227 682 187 c 2,4,-1
 564 145 l 2,5,6
 526 133 526 133 414 95 c 0,7,8
 374 81 374 81 262 39 c 0,9,10
 181 10 181 10 104 1 c 0,11,12
 82 -1 82 -1 -12 0 c 1,13,-1
 -12 167 l 1,14,-1
 90 167 l 2,15,16
 146 167 146 167 183 200 c 1,17,18
 102 288 102 288 102 350 c 0,19,20
 102 384 102 384 130 446 c 0,21,22
 195 593 195 593 297 664 c 0,23,24
 353 702 353 702 386 702 c 0,25,26
 501 702 501 702 605 612 c 0,27,28
 652 570 652 570 652 558 c 0,29,30
 652 540 652 540 632.5 520.5 c 128,-1,31
 613 501 613 501 595 501 c 0,32,33
 594 501 594 501 534.5 531.5 c 128,-1,34
 475 562 475 562 443 562 c 0,35,36
 385 562 385 562 316.5 516 c 128,-1,37
 248 470 248 470 220 416 c 1,38,39
 237 357 237 357 332 320 c 0,40,41
 406 292 406 292 478 292 c 0,42,43
 527 292 527 292 829 399 c 1,44,45
 838 390 838 390 838 355 c 0,0,1
EndSplineSet
EndChar

StartChar: afii62803
Encoding: 65228 65228 225
Width: 600
GlyphClass: 2
Flags: W
AnchorPoint: "Anchor-3" 300 -555 basechar 0
AnchorPoint: "Anchor-2" 195 780 basechar 0
LayerCount: 2
Fore
SplineSet
615 -1 m 1,0,1
 502 0 502 0 474 6 c 0,2,3
 433 15 433 15 338 67 c 1,4,5
 120 0 120 0 59 0 c 2,6,-1
 -12 0 l 1,7,-1
 -12 167 l 1,8,9
 176 167 176 167 238 198 c 1,10,-1
 238 218 l 1,11,12
 225 227 225 227 111 261 c 0,13,14
 5 292 5 292 5 297 c 0,15,16
 5 383 5 383 19 415 c 0,17,18
 23 423 23 423 35 443 c 0,19,20
 42 455 42 455 101 469 c 0,21,22
 151 481 151 481 176 481 c 0,23,24
 293 481 293 481 357 455 c 0,25,26
 456 414 456 414 469 328 c 0,27,28
 472 305 472 305 472 288 c 1,29,30
 472 294 472 294 455 198 c 1,31,32
 461 167 461 167 615 167 c 1,33,-1
 615 -1 l 1,0,1
EndSplineSet
EndChar

StartChar: afii57443
Encoding: 1603 1603 238
Width: 1363
GlyphClass: 2
Flags: W
AnchorPoint: "Anchor-3" 555 -525 basechar 0
AnchorPoint: "Anchor-2" 585 1080 basechar 0
LayerCount: 2
Fore
SplineSet
1303 937 m 2,0,1
 1287 876 1287 876 1280 856 c 0,2,3
 1262 805 1262 805 1236 789 c 1,4,5
 1279 558 1279 558 1296 237 c 0,6,7
 1297 206 1297 206 1269 159.5 c 128,-1,8
 1241 113 1241 113 1213 89 c 0,9,10
 1155 43 1155 43 944 -21 c 0,11,12
 646 -112 646 -112 356 -112 c 0,13,14
 55 -112 55 -112 45 86 c 0,15,16
 43 135 43 135 43 161 c 0,17,18
 43 374 43 374 155 501 c 0,19,20
 206 559 206 559 232 559 c 0,21,22
 236 557 236 557 239 551 c 0,23,24
 238 526 238 526 187 428 c 0,25,26
 129 317 129 317 119 281 c 0,27,28
 112 254 112 254 112 202 c 0,29,30
 112 179 112 179 143 127 c 0,31,32
 185 56 185 56 393 56 c 0,33,34
 551 56 551 56 919 150 c 0,35,36
 1166 213 1166 213 1203 277 c 1,37,38
 1203 357 1203 357 1190 475 c 1,39,40
 1173 589 1173 589 1153 818 c 1,41,-1
 1091 884 l 1,42,43
 1085 900 1085 900 1085 929 c 0,44,45
 1085 1032 1085 1032 1103 1103 c 0,46,47
 1106 1117 1106 1117 1157 1207 c 1,48,-1
 1163 1210 l 2,49,50
 1166 1211 1166 1211 1171 1211 c 0,51,52
 1191 1211 1191 1211 1188 1196 c 0,53,54
 1171 1091 1171 1091 1171 1067 c 0,55,56
 1171 1053 1171 1053 1173 1034 c 0,57,58
 1176 1007 1176 1007 1242 995 c 1,59,60
 1262 996 1262 996 1298 977 c 1,61,62
 1309 962 1309 962 1305 946 c 2,63,-1
 1303 937 l 2,0,1
825 731 m 0,64,65
 825 708 825 708 805 671 c 128,-1,66
 785 634 785 634 766 623 c 2,67,-1
 697 582 l 1,68,69
 643 544 643 544 549 492 c 0,70,71
 531 486 531 486 521 521 c 1,72,73
 546 550 546 550 574 600 c 1,74,-1
 514 617 l 2,75,76
 468 629 468 629 468 706 c 0,77,78
 468 762 468 762 545 821 c 0,79,80
 618 876 618 876 677 876 c 0,81,82
 690 876 690 876 706 865 c 0,83,84
 709 861 709 861 710 853 c 0,85,86
 710 827 710 827 690 792 c 0,87,88
 669 754 669 754 646 746 c 0,89,90
 634 746 634 746 621 763 c 1,91,92
 587 757 587 757 577 754 c 0,93,94
 552 745 552 745 542 726 c 1,95,96
 550 692 550 692 629 692 c 0,97,98
 658 692 658 692 721 715 c 128,-1,99
 784 738 784 738 812 738 c 0,100,101
 825 738 825 738 825 731 c 0,64,65
EndSplineSet
Substitution2: "'medi' Medial Forms in Arabic lookup 3 subtable" afii52306
Substitution2: "'fina' Terminal Forms in Arabic lookup 2 subtable" afii62816
Substitution2: "'init' Initial Forms in Arabic lookup 1 subtable" afii52305
EndChar

StartChar: afii62816
Encoding: 65242 65242 239
Width: 1356
GlyphClass: 2
Flags: W
AnchorPoint: "Anchor-3" 645 -495 basechar 0
AnchorPoint: "Anchor-2" 615 1080 basechar 0
LayerCount: 2
Fore
SplineSet
1368 0 m 1,0,-1
 1336 0 l 2,1,2
 1264 0 1264 0 1235 44 c 0,3,4
 1220 65 1220 65 1193 157 c 1,5,6
 1174 98 1174 98 1131 61 c 1,7,-1
 1131 58 l 1,8,9
 1121 52 1121 52 1111 46 c 0,10,11
 1086 29 1086 29 1054 19 c 0,12,13
 973 -15 973 -15 860 -45 c 0,14,15
 604 -112 604 -112 356 -112 c 0,16,17
 66 -112 66 -112 45 86 c 0,18,19
 43 135 43 135 43 161 c 0,20,21
 43 374 43 374 155 501 c 0,22,23
 206 559 206 559 232 559 c 0,24,25
 236 557 236 557 239 551 c 0,26,27
 238 526 238 526 179 428 c 1,28,29
 113 329 113 329 113 243 c 128,-1,30
 113 157 113 157 143 127 c 1,31,32
 185 56 185 56 393 56 c 0,33,34
 551 56 551 56 919 150 c 0,35,36
 1045 182 1045 182 1115 210 c 1,37,38
 1175 244 1175 244 1175 300 c 0,39,40
 1175 336 1175 336 1163 427 c 0,41,42
 1140 573 1140 573 1116 720 c 0,43,44
 1088 899 1088 899 1088 1013 c 0,45,46
 1088 1098 1088 1098 1108 1117 c 1,47,48
 1121 1117 1121 1117 1136 1095.5 c 128,-1,49
 1151 1074 1151 1074 1152 1060 c 0,50,51
 1152 1038 1152 1038 1152.5 999.5 c 128,-1,52
 1153 961 1153 961 1164 873 c 1,53,54
 1192 722 1192 722 1214 566 c 2,55,-1
 1250 319 l 2,56,57
 1250 302 1250 302 1256 270 c 0,58,59
 1287 167 1287 167 1338 167 c 2,60,-1
 1368 167 l 1,61,-1
 1368 0 l 1,0,-1
825 731 m 0,62,63
 825 708 825 708 805 671 c 128,-1,64
 785 634 785 634 766 623 c 2,65,-1
 697 582 l 1,66,67
 643 544 643 544 549 492 c 0,68,69
 531 486 531 486 521 521 c 1,70,71
 546 550 546 550 574 600 c 1,72,-1
 514 617 l 2,73,74
 468 629 468 629 468 706 c 0,75,76
 468 762 468 762 545 821 c 0,77,78
 618 876 618 876 677 876 c 0,79,80
 690 876 690 876 706 865 c 0,81,82
 709 861 709 861 710 853 c 0,83,84
 710 827 710 827 690 792 c 0,85,86
 669 754 669 754 646 746 c 0,87,88
 634 746 634 746 621 763 c 1,89,90
 587 757 587 757 577 754 c 0,91,92
 552 745 552 745 542 726 c 1,93,94
 550 692 550 692 629 692 c 0,95,96
 658 692 658 692 721 715 c 128,-1,97
 784 738 784 738 812 738 c 0,98,99
 825 738 825 738 825 731 c 0,62,63
EndSplineSet
EndChar

StartChar: afii57444
Encoding: 1604 1604 242
Width: 671
GlyphClass: 2
Flags: W
AnchorPoint: "Anchor-3" 285 -675 basechar 0
AnchorPoint: "Anchor-2" 435 1170 basechar 0
LayerCount: 2
Fore
SplineSet
669 774 m 1,0,1
 648 707 648 707 643 692 c 0,2,3
 626 648 626 648 600 617 c 1,4,5
 620 436 620 436 626 331 c 0,6,7
 627 296 627 296 633 193 c 0,8,9
 636 136 636 136 643 86 c 1,10,11
 643 33 643 33 619 -61 c 0,12,13
 590 -174 590 -174 431 -240 c 0,14,15
 365 -268 365 -268 275 -268 c 0,16,17
 189 -268 189 -268 120 -211 c 0,18,19
 48 -151 48 -151 43 -67 c 0,20,21
 42 -45 42 -45 42 -29 c 0,22,23
 42 133 42 133 196 271 c 0,24,25
 237 308 237 308 262 308 c 0,26,27
 282 308 282 308 282 286 c 256,28,29
 282 264 282 264 252 234 c 2,30,-1
 211 193 l 1,31,32
 118 82 118 82 118 36 c 0,33,34
 118 -112 118 -112 336 -112 c 0,35,36
 399 -112 399 -112 457 -84 c 0,37,38
 572 -30 572 -30 572 32 c 0,39,40
 572 69 572 69 547 248 c 0,41,42
 516 468 516 468 516 647 c 1,43,-1
 466 699 l 2,44,45
 447 724 447 724 447 761 c 0,46,47
 447 911 447 911 519 1040 c 1,48,-1
 532 1042 l 2,49,50
 554 1042 554 1042 552 1028 c 0,51,52
 533 909 533 909 533 864 c 0,53,54
 533 834 533 834 602 823 c 0,55,56
 609 822 609 822 646 818 c 0,57,58
 669 812 669 812 669 785 c 2,59,-1
 669 774 l 1,0,1
EndSplineSet
Substitution2: "'medi' Medial Forms in Arabic lookup 3 subtable" afii62818
Substitution2: "'fina' Terminal Forms in Arabic lookup 2 subtable" afii62819
Substitution2: "'init' Initial Forms in Arabic lookup 1 subtable" afii62817
EndChar

StartChar: afii62817
Encoding: 65247 65247 243
Width: 300
GlyphClass: 2
Flags: W
AnchorPoint: "Anchor-3" 90 -480 basechar 0
AnchorPoint: "Anchor-2" 120 1290 basechar 0
LayerCount: 2
Fore
SplineSet
257 852 m 2,0,-1
 255 843 l 2,1,2
 239 782 239 782 232 762 c 0,3,4
 214 711 214 711 188 695 c 1,5,6
 231 464 231 464 242 292 c 1,7,8
 242 292 242 292 242 244 c 0,9,10
 243 221 243 221 248 143 c 0,11,12
 250 107 250 107 195 35 c 1,13,14
 148 0 148 0 27 0 c 2,15,-1
 -5 0 l 1,16,-1
 -5 167 l 1,17,18
 138 167 138 167 155 183 c 1,19,20
 155 263 155 263 151 313 c 0,21,22
 149 327 149 327 142 381 c 0,23,24
 125 495 125 495 105 724 c 1,25,-1
 43 790 l 1,26,27
 37 806 37 806 37 835 c 0,28,29
 37 938 37 938 55 1009 c 0,30,31
 58 1023 58 1023 109 1113 c 1,32,-1
 115 1116 l 2,33,34
 118 1117 118 1117 123 1117 c 0,35,36
 143 1117 143 1117 140 1102 c 0,37,38
 123 997 123 997 123 973 c 0,39,40
 123 959 123 959 125 940 c 0,41,42
 128 913 128 913 194 901 c 1,43,44
 214 902 214 902 250 883 c 1,45,46
 261 868 261 868 257 852 c 2,0,-1
EndSplineSet
EndChar

StartChar: afii62818
Encoding: 65248 65248 244
Width: 426
GlyphClass: 2
Flags: W
AnchorPoint: "Anchor-3" 195 -435 basechar 0
AnchorPoint: "Anchor-2" 195 1245 basechar 0
LayerCount: 2
Fore
SplineSet
444 0 m 1,0,-1
 412 0 l 2,1,2
 340 0 340 0 311 44 c 0,3,4
 296 65 296 65 269 157 c 1,5,6
 219 0 219 0 -5 0 c 1,7,-1
 -5 167 l 1,8,9
 68 167 68 167 140 189 c 0,10,11
 251 224 251 224 251 300 c 0,12,13
 251 336 251 336 239 427 c 0,14,15
 216 573 216 573 192 720 c 0,16,17
 164 899 164 899 164 1013 c 0,18,19
 164 1098 164 1098 184 1117 c 1,20,21
 197 1117 197 1117 212 1095.5 c 128,-1,22
 227 1074 227 1074 228 1060 c 0,23,24
 228 1038 228 1038 230 994 c 0,25,26
 233 971 233 971 238 925 c 0,27,28
 238 908 238 908 240 873 c 1,29,30
 268 722 268 722 290 566 c 2,31,-1
 326 319 l 2,32,33
 326 302 326 302 332 270 c 0,34,35
 363 167 363 167 414 167 c 2,36,-1
 444 167 l 1,37,-1
 444 0 l 1,0,-1
EndSplineSet
EndChar

StartChar: afii57445
Encoding: 1605 1605 245
Width: 514
GlyphClass: 2
Flags: W
AnchorPoint: "Anchor-3" 420 -990 basechar 0
AnchorPoint: "Anchor-2" 240 975 basechar 0
LayerCount: 2
Fore
SplineSet
491 444 m 0,0,1
 491 393 491 393 484 381 c 1,2,3
 481 347 481 347 455 330 c 1,4,-1
 428 326 l 2,5,6
 402 326 402 326 350.5 328.5 c 128,-1,7
 299 331 299 331 273 331 c 0,8,9
 174 331 174 331 158 267 c 0,10,11
 145 212 145 212 146 205 c 2,12,-1
 199 -92 l 2,13,14
 225 -239 225 -239 236 -390 c 0,15,16
 238 -424 238 -424 238 -540 c 0,17,18
 238 -766 238 -766 211 -806 c 0,19,20
 206 -812 206 -812 192 -816 c 1,21,22
 184 -814 184 -814 176 -808 c 1,23,24
 172 -791 172 -791 169 -664 c 0,25,26
 163 -410 163 -410 136 -277 c 2,27,-1
 93 -67 l 2,28,29
 69 51 69 51 69 145 c 0,30,31
 69 268 69 268 124 414 c 0,32,33
 134 443 134 443 180 470 c 0,34,35
 203 484 203 484 226 499 c 1,36,37
 226 531 226 531 136 531 c 0,38,39
 119 531 119 531 102 516 c 1,40,41
 89 490 89 490 69 481 c 1,42,43
 48 481 48 481 48 528 c 0,44,45
 48 707 48 707 190 707 c 0,46,47
 278 707 278 707 386 615 c 0,48,49
 475 539 475 539 487 489 c 0,50,51
 491 469 491 469 491 444 c 0,0,1
EndSplineSet
Substitution2: "'medi' Medial Forms in Arabic lookup 3 subtable" afii62821
Substitution2: "'fina' Terminal Forms in Arabic lookup 2 subtable" afii62822
Substitution2: "'init' Initial Forms in Arabic lookup 1 subtable" afii62820
EndChar

StartChar: afii62822
Encoding: 65250 65250 246
Width: 797
GlyphClass: 2
Flags: W
AnchorPoint: "Anchor-3" 540 -930 basechar 0
AnchorPoint: "Anchor-2" 435 780 basechar 0
LayerCount: 2
Fore
SplineSet
813 0 m 1,0,-1
 752 0 l 2,1,2
 656 0 656 0 589 52 c 1,3,-1
 584 49 l 1,4,5
 564 4 564 4 534 4 c 0,6,7
 531 4 531 4 528 5 c 0,8,9
 504 34 504 34 428 71 c 128,-1,10
 352 108 352 108 330 132 c 1,11,-1
 321 154 l 1,12,13
 325 169 325 169 331 190 c 0,14,15
 332 192 332 192 332 195 c 0,16,17
 330 199 330 199 319 202 c 1,18,19
 272 188 272 188 226 146 c 0,20,21
 174 98 174 98 174 55 c 0,22,23
 174 36 174 36 220 -228 c 0,24,25
 269 -507 269 -507 269 -703 c 0,26,27
 269 -758 269 -758 248 -758 c 0,28,29
 226 -758 226 -758 224 -726 c 0,30,31
 221 -687 221 -687 199 -568 c 0,32,33
 175 -442 175 -442 140 -288 c 0,34,35
 83 -35 83 -35 83 4 c 0,36,37
 83 55 83 55 87 95 c 0,38,39
 89 122 89 122 107 176 c 0,40,41
 126 236 126 236 140 248 c 0,42,43
 208 303 208 303 337 386 c 0,44,45
 493 487 493 487 535 487 c 0,46,47
 569 487 569 487 569 452 c 0,48,49
 569 438 569 438 563.5 410 c 128,-1,50
 558 382 558 382 558 368 c 0,51,52
 558 310 558 310 602 255 c 0,53,54
 643 201 643 201 699 180 c 0,55,56
 732 167 732 167 813 167 c 1,57,-1
 813 0 l 1,0,-1
EndSplineSet
EndChar

StartChar: afii62820
Encoding: 65251 65251 247
Width: 514
GlyphClass: 2
Flags: W
AnchorPoint: "Anchor-3" 255 -495 basechar 0
AnchorPoint: "Anchor-2" 270 840 basechar 0
LayerCount: 2
Fore
SplineSet
496 220 m 0,0,1
 496 151 496 151 464 107 c 1,2,-1
 455 104 l 2,3,4
 449 104 449 104 445 102 c 2,5,-1
 434 102 l 1,6,-1
 424 104 l 1,7,-1
 318 163 l 1,8,9
 290 174 290 174 190 188 c 1,10,11
 181 173 181 173 151 88 c 0,12,13
 125 12 125 12 48 1 c 0,14,15
 31 -1 31 -1 -12 0 c 1,16,-1
 -12 167 l 1,17,18
 101 167 101 167 114 238 c 0,19,20
 144 406 144 406 262 513 c 0,21,22
 317 563 317 563 346 563 c 0,23,24
 430 563 430 563 472 359 c 0,25,26
 496 246 496 246 496 220 c 0,0,1
388 286 m 1,27,28
 388 318 388 318 358 360 c 0,29,30
 326 406 326 406 295 406 c 0,31,32
 256 406 256 406 245 333 c 1,33,34
 274 333 274 333 388 286 c 1,27,28
EndSplineSet
EndChar

StartChar: afii57446
Encoding: 1606 1606 248
Width: 819
GlyphClass: 2
Flags: W
AnchorPoint: "Anchor-3" 300 -810 basechar 0
AnchorPoint: "Anchor-2" 360 915 basechar 0
LayerCount: 2
Fore
SplineSet
486 619 m 1,0,-1
 416 486 l 1,1,-1
 243 585 l 1,2,-1
 313 721 l 1,3,-1
 486 619 l 1,0,-1
797 39 m 0,4,5
 797 -38 797 -38 731 -205 c 1,6,7
 695 -267 695 -267 531 -338 c 0,8,9
 376 -405 376 -405 293 -405 c 0,10,11
 128 -405 128 -405 71 -318 c 0,12,13
 60 -301 60 -301 45 -244.5 c 128,-1,14
 30 -188 30 -188 30 -167 c 0,15,16
 30 -32 30 -32 92 71 c 0,17,18
 115 111 115 111 182 178 c 0,19,20
 212 209 212 209 276 252 c 1,21,22
 286 249 286 249 286 181 c 0,23,24
 284 175 284 175 281 162 c 1,25,-1
 184 50 l 2,26,27
 135 -7 135 -7 105 -74 c 1,28,29
 114 -155 114 -155 183 -199 c 0,30,31
 244 -238 244 -238 330 -238 c 0,32,33
 401 -238 401 -238 552 -170 c 0,34,35
 716 -96 716 -96 716 -42 c 0,36,37
 716 14 716 14 659 121 c 0,38,39
 658 127 658 127 651 136 c 0,40,41
 639 156 639 156 587 227 c 1,42,43
 596 278 596 278 626 351 c 1,44,45
 634 357 634 357 638 357 c 2,46,-1
 645 355 l 1,47,48
 709 324 709 324 756 217 c 0,49,50
 797 121 797 121 797 39 c 0,4,5
EndSplineSet
Substitution2: "'medi' Medial Forms in Arabic lookup 3 subtable" afii62824
Substitution2: "'fina' Terminal Forms in Arabic lookup 2 subtable" afii62825
Substitution2: "'init' Initial Forms in Arabic lookup 1 subtable" afii62823
EndChar

StartChar: afii62825
Encoding: 65254 65254 249
Width: 890
GlyphClass: 2
Flags: W
AnchorPoint: "Anchor-3" 330 -840 basechar 0
AnchorPoint: "Anchor-2" 405 840 basechar 0
LayerCount: 2
Fore
SplineSet
564 528 m 1,0,-1
 496 397 l 1,1,-1
 321 497 l 1,2,-1
 389 630 l 1,3,-1
 564 528 l 1,0,-1
909 0 m 1,4,-1
 870 0 l 2,5,6
 809 0 809 0 785 17 c 1,7,8
 793 -70 793 -70 719 -252 c 1,9,10
 681 -315 681 -315 537 -376 c 2,11,-1
 514 -386 l 2,12,13
 361 -450 361 -450 267 -450 c 0,14,15
 17 -450 17 -450 17 -215 c 0,16,17
 17 -203 17 -203 35 -106 c 0,18,19
 50 -21 50 -21 80 26 c 0,20,21
 104 64 104 64 171 132 c 0,22,23
 207 168 207 168 267 205 c 1,24,25
 274 200 274 200 274 139 c 1,26,-1
 269 114 l 1,27,-1
 171 4 l 2,28,29
 123 -52 123 -52 95 -120 c 1,30,31
 95 -195 95 -195 163 -243 c 0,32,33
 223 -286 223 -286 301 -286 c 0,34,35
 374 -286 374 -286 531 -220 c 0,36,37
 704 -148 704 -148 704 -88 c 2,38,-1
 704 -74 l 2,39,40
 704 -27 704 -27 614 138 c 1,41,42
 633 287 633 287 670 287 c 0,43,44
 691 287 691 287 743 190 c 0,45,46
 758 162 758 162 909 167 c 1,47,-1
 909 0 l 1,4,-1
EndSplineSet
EndChar

StartChar: afii62828
Encoding: 65258 65258 253
Width: 827
GlyphClass: 2
Flags: W
AnchorPoint: "Anchor-3" 240 -405 basechar 0
AnchorPoint: "Anchor-2" 255 960 basechar 0
LayerCount: 2
Fore
SplineSet
845 0 m 1,0,-1
 795 0 l 2,1,2
 643 0 643 0 566 65 c 0,3,4
 515 109 515 109 433 267 c 1,5,6
 426 243 426 243 409 205 c 0,7,8
 399 180 399 180 286 158 c 0,9,10
 191 140 191 140 140 140 c 0,11,12
 56 140 56 140 56 194 c 0,13,14
 56 207 56 207 68 249 c 0,15,16
 87 316 87 316 131 359 c 0,17,18
 152 381 152 381 234 438 c 2,19,-1
 401 555 l 1,20,21
 397 637 397 637 408 653 c 1,22,-1
 424 743 l 2,23,24
 430 777 430 777 457 777 c 0,25,26
 464 777 464 777 472 763 c 1,27,28
 476 663 476 663 494 465 c 0,29,30
 498 448 498 448 507 416 c 0,31,32
 554 247 554 247 658 193 c 0,33,34
 708 167 708 167 845 167 c 1,35,-1
 845 0 l 1,0,-1
424 340 m 1,36,37
 420 378 420 378 409 426 c 1,38,39
 384 419 384 419 220 324 c 1,40,-1
 226 308 l 1,41,-1
 240 303 l 1,42,43
 317 313 317 313 424 340 c 1,36,37
EndSplineSet
EndChar

StartChar: afii57448
Encoding: 1608 1608 254
Width: 860
GlyphClass: 2
Flags: W
AnchorPoint: "Anchor-3" 225 -900 basechar 0
AnchorPoint: "Anchor-2" 555 765 basechar 0
LayerCount: 2
Fore
SplineSet
840 224 m 2,0,1
 840 171 840 171 785 49 c 0,2,3
 702 -138 702 -138 518 -288 c 0,4,5
 413 -374 413 -374 374 -381 c 0,6,7
 265 -401 265 -401 158 -401 c 0,8,9
 49 -401 49 -401 19 -381 c 1,10,11
 -71 -368 -71 -368 -140 -319 c 1,12,-1
 -144 -311 l 1,13,-1
 -133 -303 l 1,14,-1
 -32 -308 l 2,15,16
 -7 -309 -7 -309 18 -309 c 0,17,18
 375 -309 375 -309 619 -58 c 0,19,20
 743 69 743 69 743 157 c 1,21,22
 737 163 737 163 719 167 c 1,23,24
 702 130 702 130 637.5 89.5 c 128,-1,25
 573 49 573 49 533 49 c 0,26,27
 495 49 495 49 466 76 c 128,-1,28
 437 103 437 103 437 142 c 0,29,30
 437 227 437 227 476 317 c 0,31,32
 568 525 568 525 663 525 c 0,33,34
 733 525 733 525 790 422 c 0,35,36
 840 332 840 332 840 255 c 2,37,-1
 840 224 l 2,0,1
684 311 m 1,38,39
 665 347 665 347 626 347 c 0,40,41
 596 347 596 347 564 315 c 1,42,43
 549 283 549 283 549 257 c 2,44,-1
 552 228 l 1,45,-1
 563 224 l 1,46,47
 599 224 599 224 641.5 250 c 128,-1,48
 684 276 684 276 684 311 c 1,38,39
EndSplineSet
Substitution2: "'fina' Terminal Forms in Arabic lookup 2 subtable" afii62829
PairPos2: "'kern' Horizontal Kerning in Arabic lookup 0 subtable" afii57415 dx=0 dy=0 dh=0 dv=0 dx=0 dy=0 dh=-100 dv=0
PairPos2: "'kern' Horizontal Kerning in Arabic lookup 0 subtable" uniFBFE dx=0 dy=0 dh=0 dv=0 dx=0 dy=0 dh=250 dv=0
PairPos2: "'kern' Horizontal Kerning in Arabic lookup 0 subtable" afii62840 dx=0 dy=0 dh=0 dv=0 dx=0 dy=0 dh=-190 dv=0
PairPos2: "'kern' Horizontal Kerning in Arabic lookup 0 subtable" afii62838 dx=0 dy=0 dh=0 dv=0 dx=0 dy=0 dh=-190 dv=0
PairPos2: "'kern' Horizontal Kerning in Arabic lookup 0 subtable" afii62836 dx=0 dy=0 dh=0 dv=0 dx=0 dy=0 dh=-190 dv=0
PairPos2: "'kern' Horizontal Kerning in Arabic lookup 0 subtable" afii62834 dx=0 dy=0 dh=0 dv=0 dx=0 dy=0 dh=-190 dv=0
PairPos2: "'kern' Horizontal Kerning in Arabic lookup 0 subtable" afii62831 dx=0 dy=0 dh=0 dv=0 dx=0 dy=0 dh=250 dv=0
PairPos2: "'kern' Horizontal Kerning in Arabic lookup 0 subtable" afii62817 dx=0 dy=0 dh=0 dv=0 dx=0 dy=0 dh=-100 dv=0
PairPos2: "'kern' Horizontal Kerning in Arabic lookup 0 subtable" afii57410 dx=0 dy=0 dh=0 dv=0 dx=0 dy=0 dh=-250 dv=0
PairPos2: "'kern' Horizontal Kerning in Arabic lookup 0 subtable" afii57443 dx=0 dy=0 dh=0 dv=0 dx=0 dy=0 dh=-100 dv=0
PairPos2: "'kern' Horizontal Kerning in Arabic lookup 0 subtable" afii57441 dx=0 dy=0 dh=0 dv=0 dx=0 dy=0 dh=-150 dv=0
PairPos2: "'kern' Horizontal Kerning in Arabic lookup 0 subtable" afii57422 dx=0 dy=0 dh=0 dv=0 dx=0 dy=0 dh=150 dv=0
PairPos2: "'kern' Horizontal Kerning in Arabic lookup 0 subtable" afii57421 dx=0 dy=0 dh=0 dv=0 dx=0 dy=0 dh=150 dv=0
PairPos2: "'kern' Horizontal Kerning in Arabic lookup 0 subtable" afii57420 dx=0 dy=0 dh=0 dv=0 dx=0 dy=0 dh=150 dv=0
PairPos2: "'kern' Horizontal Kerning in Arabic lookup 0 subtable" afii57419 dx=0 dy=0 dh=0 dv=0 dx=0 dy=0 dh=-150 dv=0
PairPos2: "'kern' Horizontal Kerning in Arabic lookup 0 subtable" afii57418 dx=0 dy=0 dh=0 dv=0 dx=0 dy=0 dh=-150 dv=0
PairPos2: "'kern' Horizontal Kerning in Arabic lookup 0 subtable" afii62761 dx=0 dy=0 dh=0 dv=0 dx=0 dy=0 dh=250 dv=0
PairPos2: "'kern' Horizontal Kerning in Arabic lookup 0 subtable" afii57416 dx=0 dy=0 dh=0 dv=0 dx=0 dy=0 dh=-150 dv=0
PairPos2: "'kern' Horizontal Kerning in Arabic lookup 0 subtable" afii57415.001 dx=0 dy=0 dh=0 dv=0 dx=0 dy=0 dh=-100 dv=0
PairPos2: "'kern' Horizontal Kerning in Arabic lookup 0 subtable" afii57413 dx=0 dy=0 dh=0 dv=0 dx=0 dy=0 dh=300 dv=0
PairPos2: "'kern' Horizontal Kerning in Arabic lookup 0 subtable" afii62965 dx=0 dy=0 dh=0 dv=0 dx=0 dy=0 dh=-250 dv=0
PairPos2: "'kern' Horizontal Kerning in Arabic lookup 0 subtable" afii57509 dx=0 dy=0 dh=0 dv=0 dx=0 dy=0 dh=-250 dv=0
PairPos2: "'kern' Horizontal Kerning in Arabic lookup 0 subtable" afii52305 dx=0 dy=0 dh=0 dv=0 dx=0 dy=0 dh=-250 dv=0
PairPos2: "'kern' Horizontal Kerning in Arabic lookup 0 subtable" afii57567 dx=0 dy=0 dh=0 dv=0 dx=0 dy=0 dh=-250 dv=0
PairPos2: "'kern' Horizontal Kerning in Arabic lookup 0 subtable" afii57507 dx=0 dy=0 dh=0 dv=0 dx=0 dy=0 dh=150 dv=0
PairPos2: "'kern' Horizontal Kerning in Arabic lookup 0 subtable" afii57505 dx=0 dy=0 dh=0 dv=0 dx=0 dy=0 dh=-150 dv=0
PairPos2: "'kern' Horizontal Kerning in Arabic lookup 0 subtable" afii62956 dx=0 dy=0 dh=0 dv=0 dx=0 dy=0 dh=250 dv=0
PairPos2: "'kern' Horizontal Kerning in Arabic lookup 0 subtable" afii57506 dx=0 dy=0 dh=0 dv=0 dx=0 dy=0 dh=-150 dv=0
EndChar

StartChar: afii62829
Encoding: 65262 65262 255
Width: 902
GlyphClass: 2
Flags: W
AnchorPoint: "Anchor-3" 330 -840 basechar 0
AnchorPoint: "Anchor-2" 495 660 basechar 0
LayerCount: 2
Fore
SplineSet
922 0 m 1,0,1
 807 0 807 0 795 -1 c 0,2,3
 791 -4 791 -4 787 -6 c 0,4,5
 749 -111 749 -111 627 -236 c 128,-1,6
 505 -361 505 -361 401 -399 c 0,7,8
 345 -419 345 -419 256 -419 c 0,9,10
 56 -419 56 -419 -98 -255 c 1,11,-1
 -104 -240 l 2,12,13
 -104 -231 -104 -231 -95 -224 c 0,14,15
 -90 -224 -90 -224 -87 -223 c 0,16,17
 -81 -225 -81 -225 -6 -245 c 0,18,19
 157 -288 157 -288 243 -288 c 0,20,21
 318 -288 318 -288 355 -276 c 0,22,23
 616 -192 616 -192 702 -10 c 1,24,25
 664 -18 664 -18 631 -18 c 0,26,27
 539 -18 539 -18 476 26 c 0,28,29
 403 76 403 76 403 164 c 0,30,31
 403 232 403 232 475 353 c 0,32,33
 551 483 551 483 612 483 c 256,34,35
 673 483 673 483 747 371 c 0,36,37
 796 297 796 297 826 167 c 1,38,-1
 922 167 l 1,39,-1
 922 0 l 1,0,1
700 175 m 0,40,41
 700 199 700 199 661 251 c 128,-1,42
 622 303 622 303 600 303 c 0,43,44
 572 303 572 303 543 277 c 128,-1,45
 514 251 514 251 514 224 c 256,46,47
 514 197 514 197 550 176 c 0,48,49
 582 158 582 158 612 158 c 2,50,-1
 631 158 l 2,51,52
 681 158 681 158 697 167 c 0,53,54
 700 170 700 170 700 175 c 0,40,41
EndSplineSet
PairPos2: "'kern' Horizontal Kerning in Arabic lookup 0 subtable" afii57415 dx=0 dy=0 dh=0 dv=0 dx=0 dy=0 dh=-100 dv=0
PairPos2: "'kern' Horizontal Kerning in Arabic lookup 0 subtable" uni0675 dx=0 dy=0 dh=0 dv=0 dx=0 dy=0 dh=-100 dv=0
PairPos2: "'kern' Horizontal Kerning in Arabic lookup 0 subtable" uni0672 dx=0 dy=0 dh=0 dv=0 dx=0 dy=0 dh=-100 dv=0
PairPos2: "'kern' Horizontal Kerning in Arabic lookup 0 subtable" uniFBFE dx=0 dy=0 dh=0 dv=0 dx=0 dy=0 dh=180 dv=0
PairPos2: "'kern' Horizontal Kerning in Arabic lookup 0 subtable" afii62840 dx=0 dy=0 dh=0 dv=0 dx=0 dy=0 dh=-190 dv=0
PairPos2: "'kern' Horizontal Kerning in Arabic lookup 0 subtable" afii62838 dx=0 dy=0 dh=0 dv=0 dx=0 dy=0 dh=-190 dv=0
PairPos2: "'kern' Horizontal Kerning in Arabic lookup 0 subtable" afii62836 dx=0 dy=0 dh=0 dv=0 dx=0 dy=0 dh=-190 dv=0
PairPos2: "'kern' Horizontal Kerning in Arabic lookup 0 subtable" afii62834 dx=0 dy=0 dh=0 dv=0 dx=0 dy=0 dh=-190 dv=0
PairPos2: "'kern' Horizontal Kerning in Arabic lookup 0 subtable" afii62831 dx=0 dy=0 dh=0 dv=0 dx=0 dy=0 dh=180 dv=0
PairPos2: "'kern' Horizontal Kerning in Arabic lookup 0 subtable" afii62817 dx=0 dy=0 dh=0 dv=0 dx=0 dy=0 dh=-100 dv=0
PairPos2: "'kern' Horizontal Kerning in Arabic lookup 0 subtable" afii57410 dx=0 dy=0 dh=0 dv=0 dx=0 dy=0 dh=-150 dv=0
PairPos2: "'kern' Horizontal Kerning in Arabic lookup 0 subtable" afii57443 dx=0 dy=0 dh=0 dv=0 dx=0 dy=0 dh=-100 dv=0
PairPos2: "'kern' Horizontal Kerning in Arabic lookup 0 subtable" afii57441 dx=0 dy=0 dh=0 dv=0 dx=0 dy=0 dh=-150 dv=0
PairPos2: "'kern' Horizontal Kerning in Arabic lookup 0 subtable" afii57422 dx=0 dy=0 dh=0 dv=0 dx=0 dy=0 dh=100 dv=0
PairPos2: "'kern' Horizontal Kerning in Arabic lookup 0 subtable" afii57421 dx=0 dy=0 dh=0 dv=0 dx=0 dy=0 dh=100 dv=0
PairPos2: "'kern' Horizontal Kerning in Arabic lookup 0 subtable" afii57420 dx=0 dy=0 dh=0 dv=0 dx=0 dy=0 dh=100 dv=0
PairPos2: "'kern' Horizontal Kerning in Arabic lookup 0 subtable" afii57419 dx=0 dy=0 dh=0 dv=0 dx=0 dy=0 dh=-150 dv=0
PairPos2: "'kern' Horizontal Kerning in Arabic lookup 0 subtable" afii57418 dx=0 dy=0 dh=0 dv=0 dx=0 dy=0 dh=-150 dv=0
PairPos2: "'kern' Horizontal Kerning in Arabic lookup 0 subtable" afii62761 dx=0 dy=0 dh=0 dv=0 dx=0 dy=0 dh=180 dv=0
PairPos2: "'kern' Horizontal Kerning in Arabic lookup 0 subtable" afii57416 dx=0 dy=0 dh=0 dv=0 dx=0 dy=0 dh=-150 dv=0
PairPos2: "'kern' Horizontal Kerning in Arabic lookup 0 subtable" afii57415.001 dx=0 dy=0 dh=0 dv=0 dx=0 dy=0 dh=-100 dv=0
PairPos2: "'kern' Horizontal Kerning in Arabic lookup 0 subtable" afii57413 dx=0 dy=0 dh=0 dv=0 dx=0 dy=0 dh=250 dv=0
PairPos2: "'kern' Horizontal Kerning in Arabic lookup 0 subtable" afii57411 dx=0 dy=0 dh=0 dv=0 dx=0 dy=0 dh=-100 dv=0
PairPos2: "'kern' Horizontal Kerning in Arabic lookup 0 subtable" afii62965 dx=0 dy=0 dh=0 dv=0 dx=0 dy=0 dh=-150 dv=0
PairPos2: "'kern' Horizontal Kerning in Arabic lookup 0 subtable" afii57509 dx=0 dy=0 dh=0 dv=0 dx=0 dy=0 dh=-150 dv=0
PairPos2: "'kern' Horizontal Kerning in Arabic lookup 0 subtable" afii52305 dx=0 dy=0 dh=0 dv=0 dx=0 dy=0 dh=-150 dv=0
PairPos2: "'kern' Horizontal Kerning in Arabic lookup 0 subtable" afii57567 dx=0 dy=0 dh=0 dv=0 dx=0 dy=0 dh=-150 dv=0
PairPos2: "'kern' Horizontal Kerning in Arabic lookup 0 subtable" afii57507 dx=0 dy=0 dh=0 dv=0 dx=0 dy=0 dh=100 dv=0
PairPos2: "'kern' Horizontal Kerning in Arabic lookup 0 subtable" afii57505 dx=0 dy=0 dh=0 dv=0 dx=0 dy=0 dh=-150 dv=0
PairPos2: "'kern' Horizontal Kerning in Arabic lookup 0 subtable" afii62956 dx=0 dy=0 dh=0 dv=0 dx=0 dy=0 dh=180 dv=0
PairPos2: "'kern' Horizontal Kerning in Arabic lookup 0 subtable" afii57506 dx=0 dy=0 dh=0 dv=0 dx=0 dy=0 dh=-150 dv=0
EndChar

StartChar: afii62840
Encoding: 65275 65275 268
Width: 1051
GlyphClass: 3
Flags: W
AnchorPoint: "Anchor-1" 705 -510 baselig 0
AnchorPoint: "Anchor-0" 855 1350 baselig 0
AnchorPoint: "Anchor-1" 435 -585 baselig 1
AnchorPoint: "Anchor-0" 165 1395 baselig 1
LayerCount: 2
Fore
SplineSet
1000 942 m 0,0,1
 1000 929 1000 929 982 881 c 128,-1,2
 964 833 964 833 956 823 c 0,3,4
 940 806 940 806 922 797 c 1,5,6
 923 788 923 788 923 775 c 0,7,8
 923 615 923 615 827 369 c 1,9,10
 913 217 913 217 904 162 c 0,11,12
 892 78 892 78 888 62 c 0,13,14
 873 2 873 2 840 -25 c 0,15,16
 833 -31 833 -31 640 -68 c 0,17,18
 539 -87 539 -87 471 -109 c 1,19,20
 444 -106 444 -106 439 -63 c 1,21,22
 439 -18 439 -18 438 5 c 0,23,24
 437 17 437 17 440 21 c 0,25,26
 456 42 456 42 491 64 c 0,27,28
 532 89 532 89 545 102 c 0,29,30
 652 209 652 209 716 317 c 1,31,32
 551 595 551 595 399 731 c 1,33,34
 363 708 363 708 319 708 c 0,35,36
 258 708 258 708 192 737 c 0,37,38
 121 769 121 769 90 816 c 1,39,40
 88 835 88 835 88 878 c 0,41,42
 88 987 88 987 113 1065 c 0,43,44
 131 1121 131 1121 177 1121 c 0,45,46
 189 1121 189 1121 200 1115 c 0,47,48
 329 1046 329 1046 520 816 c 0,49,50
 676 629 676 629 782 455 c 1,51,52
 840 619 840 619 840 826 c 1,53,54
 814 847 814 847 775 895 c 1,55,56
 770 925 770 925 770 946 c 0,57,58
 770 1063 770 1063 794 1126 c 0,59,60
 801 1145 801 1145 843 1216 c 0,61,62
 848 1219 848 1219 856 1220 c 0,63,64
 864 1220 864 1220 870 1215 c 1,65,66
 872 1208 872 1208 872 1186 c 0,67,68
 872 1179 872 1179 863 1133 c 0,69,70
 857 1104 857 1104 857 1050 c 0,71,72
 857 1016 857 1016 932 992 c 0,73,74
 956 988 956 988 978 984 c 0,75,76
 1000 977 1000 977 1000 942 c 0,0,1
800 145 m 1,77,78
 791 167 791 167 765 226 c 1,79,80
 760 214 760 214 726 175 c 0,81,82
 696 141 696 141 696 130 c 0,83,84
 696 128 696 128 697 125 c 0,85,86
 710 120 710 120 724 120 c 0,87,88
 800 120 800 120 800 145 c 1,77,78
EndSplineSet
Ligature2: "'rlig' Required Ligatures in Arabic lookup 6 subtable" afii62817 afii62760
Substitution2: "'fina' Terminal Forms in Arabic lookup 2 subtable" afii62841
PairPos2: "'kern' Horizontal Kerning in Arabic lookup 0 subtable" afii57410 dx=0 dy=0 dh=0 dv=0 dx=0 dy=0 dh=150 dv=0
PairPos2: "'kern' Horizontal Kerning in Arabic lookup 0 subtable" afii57434 dx=0 dy=0 dh=0 dv=0 dx=0 dy=0 dh=-100 dv=0
PairPos2: "'kern' Horizontal Kerning in Arabic lookup 0 subtable" afii57433 dx=0 dy=0 dh=0 dv=0 dx=0 dy=0 dh=-100 dv=0
PairPos2: "'kern' Horizontal Kerning in Arabic lookup 0 subtable" afii57422 dx=0 dy=0 dh=0 dv=0 dx=0 dy=0 dh=-100 dv=0
PairPos2: "'kern' Horizontal Kerning in Arabic lookup 0 subtable" afii57421 dx=0 dy=0 dh=0 dv=0 dx=0 dy=0 dh=-100 dv=0
PairPos2: "'kern' Horizontal Kerning in Arabic lookup 0 subtable" afii57420 dx=0 dy=0 dh=0 dv=0 dx=0 dy=0 dh=-100 dv=0
PairPos2: "'kern' Horizontal Kerning in Arabic lookup 0 subtable" afii62965 dx=0 dy=0 dh=0 dv=0 dx=0 dy=0 dh=150 dv=0
PairPos2: "'kern' Horizontal Kerning in Arabic lookup 0 subtable" afii57509 dx=0 dy=0 dh=0 dv=0 dx=0 dy=0 dh=150 dv=0
PairPos2: "'kern' Horizontal Kerning in Arabic lookup 0 subtable" afii52305 dx=0 dy=0 dh=0 dv=0 dx=0 dy=0 dh=150 dv=0
PairPos2: "'kern' Horizontal Kerning in Arabic lookup 0 subtable" afii57567 dx=0 dy=0 dh=0 dv=0 dx=0 dy=0 dh=150 dv=0
PairPos2: "'kern' Horizontal Kerning in Arabic lookup 0 subtable" afii57507 dx=0 dy=0 dh=0 dv=0 dx=0 dy=0 dh=-100 dv=0
EndChar

StartChar: afii62841
Encoding: 65276 65276 269
Width: 1359
GlyphClass: 3
Flags: W
AnchorPoint: "Anchor-1" 1020 -450 baselig 0
AnchorPoint: "Anchor-0" 1065 1260 baselig 0
AnchorPoint: "Anchor-1" 345 -465 baselig 1
AnchorPoint: "Anchor-0" 255 1305 baselig 1
LayerCount: 2
Fore
SplineSet
1383 0 m 1,0,-1
 1343 0 l 2,1,2
 1246 0 1246 0 1205 94 c 0,3,4
 1186 138 1186 138 1167 273 c 0,5,6
 1136 491 1136 491 1136 612 c 1,7,8
 1085 409 1085 409 926 238 c 0,9,10
 775 76 775 76 574 -10 c 0,11,12
 551 -19 551 -19 392 -38 c 0,13,14
 272 -52 272 -52 127 -52 c 0,15,16
 101 -52 101 -52 93 -30 c 1,17,18
 93 -18 93 -18 115 -5 c 1,19,20
 365 33 365 33 654 226 c 1,21,22
 654 334 654 334 595 469 c 0,23,24
 538 601 538 601 459 679 c 1,25,26
 419 656 419 656 383 656 c 0,27,28
 332 656 332 656 262 689 c 0,29,30
 185 725 185 725 169 768 c 0,31,32
 167 774 167 774 167 796 c 0,33,34
 167 845 167 845 178 921 c 0,35,36
 192 1006 192 1006 195 1013 c 0,37,38
 213 1077 213 1077 251 1077 c 0,39,40
 261 1077 261 1077 271 1071 c 0,41,42
 403 997 403 997 556 759 c 0,43,44
 583 716 583 716 638 608 c 0,45,46
 719 448 719 448 719 271 c 1,47,48
 747 285 747 285 823 355 c 0,49,50
 959 477 959 477 1025 608 c 0,51,52
 1102 762 1102 762 1102 843 c 2,53,-1
 1102 913 l 1,54,-1
 1101 983 l 2,55,56
 1099 1111 1099 1111 1116 1117 c 1,57,58
 1129 1116 1129 1116 1144 1095.5 c 128,-1,59
 1159 1075 1159 1075 1160 1062 c 128,-1,60
 1161 1049 1161 1049 1163 1014 c 0,61,62
 1163 947 1163 947 1183 751 c 1,63,-1
 1207 600 l 2,64,65
 1212 569 1212 569 1246 315 c 0,66,67
 1266 167 1266 167 1346 167 c 2,68,-1
 1383 167 l 1,69,-1
 1383 0 l 1,0,-1
EndSplineSet
Ligature2: "'rlig' Required Ligatures in Arabic lookup 6 subtable" afii62818 afii62760
PairPos2: "'kern' Horizontal Kerning in Arabic lookup 0 subtable" afii57410 dx=0 dy=0 dh=0 dv=0 dx=0 dy=0 dh=-100 dv=0
PairPos2: "'kern' Horizontal Kerning in Arabic lookup 0 subtable" afii62965 dx=0 dy=0 dh=0 dv=0 dx=0 dy=0 dh=-100 dv=0
PairPos2: "'kern' Horizontal Kerning in Arabic lookup 0 subtable" afii57509 dx=0 dy=0 dh=0 dv=0 dx=0 dy=0 dh=-100 dv=0
PairPos2: "'kern' Horizontal Kerning in Arabic lookup 0 subtable" afii52305 dx=0 dy=0 dh=0 dv=0 dx=0 dy=0 dh=-100 dv=0
PairPos2: "'kern' Horizontal Kerning in Arabic lookup 0 subtable" afii57567 dx=0 dy=0 dh=0 dv=0 dx=0 dy=0 dh=-100 dv=0
EndChar

StartChar: afii59759
Encoding: 3663 3663 276
Width: 1233
GlyphClass: 2
Flags: W
LayerCount: 2
Fore
SplineSet
616 983 m 0,0,1
 823 983 823 983 969.5 836.5 c 128,-1,2
 1116 690 1116 690 1116 483 c 0,3,4
 1116 277 1116 277 969.5 130.5 c 128,-1,5
 823 -16 823 -16 616 -16 c 0,6,7
 410 -16 410 -16 263.5 130.5 c 128,-1,8
 117 277 117 277 117 483 c 0,9,10
 117 690 117 690 263.5 836.5 c 128,-1,11
 410 983 410 983 616 983 c 0,0,1
616 147 m 0,12,13
 758 147 758 147 849 242 c 128,-1,14
 940 337 940 337 940 483 c 256,15,16
 940 629 940 629 849 724 c 128,-1,17
 758 819 758 819 616 819 c 0,18,19
 475 819 475 819 384 724 c 128,-1,20
 293 629 293 629 293 483 c 256,21,22
 293 337 293 337 384 242 c 128,-1,23
 475 147 475 147 616 147 c 0,12,13
616 598 m 0,24,25
 664 598 664 598 697.5 565 c 128,-1,26
 731 532 731 532 731 485 c 256,27,28
 731 438 731 438 697.5 404.5 c 128,-1,29
 664 371 664 371 616 371 c 0,30,31
 569 371 569 371 535.5 404.5 c 128,-1,32
 502 438 502 438 502 485 c 256,33,34
 502 532 502 532 535.5 565 c 128,-1,35
 569 598 569 598 616 598 c 0,24,25
EndSplineSet
EndChar

StartChar: afii59760
Encoding: 3664 3664 277
Width: 1233
GlyphClass: 2
Flags: W
LayerCount: 2
Fore
SplineSet
616 924 m 0,0,1
 834 924 834 924 975 794.5 c 128,-1,2
 1116 665 1116 665 1116 453 c 0,3,4
 1116 242 1116 242 975 113 c 128,-1,5
 834 -16 834 -16 616 -16 c 0,6,7
 399 -16 399 -16 258 113 c 128,-1,8
 117 242 117 242 117 453 c 0,9,10
 117 665 117 665 258 794.5 c 128,-1,11
 399 924 399 924 616 924 c 0,0,1
616 150 m 0,12,13
 765 150 765 150 852.5 231 c 128,-1,14
 940 312 940 312 940 453 c 256,15,16
 940 594 940 594 852 677 c 128,-1,17
 764 760 764 760 616 760 c 0,18,19
 469 760 469 760 381 677 c 128,-1,20
 293 594 293 594 293 453 c 0,21,22
 293 310 293 310 381.5 230 c 128,-1,23
 470 150 470 150 616 150 c 0,12,13
EndSplineSet
EndChar

StartChar: glyph279
Encoding: 65559 -1 279
Width: 0
GlyphClass: 2
Flags: W
LayerCount: 2
Fore
SplineSet
36 1831 m 1,0,-1
 36 863 l 1,1,-1
 -36 863 l 1,2,-1
 -36 1831 l 1,3,-1
 36 1831 l 1,0,-1
36 543 m 1,4,-1
 36 -423 l 1,5,-1
 -36 -423 l 1,6,-1
 -36 543 l 1,7,-1
 36 543 l 1,4,-1
EndSplineSet
EndChar

StartChar: glyph280
Encoding: 65560 -1 280
Width: 0
GlyphClass: 2
Flags: W
LayerCount: 2
Fore
SplineSet
-234 -423 m 1,0,-1
 -234 -352 l 1,1,-1
 -36 -352 l 1,2,-1
 -36 1760 l 1,3,-1
 -234 1760 l 1,4,-1
 -234 1831 l 1,5,-1
 234 1831 l 1,6,-1
 234 1760 l 1,7,-1
 36 1760 l 1,8,-1
 36 -352 l 1,9,-1
 234 -352 l 1,10,-1
 234 -423 l 1,11,-1
 -234 -423 l 1,0,-1
EndSplineSet
EndChar

StartChar: glyph281
Encoding: 65561 -1 281
Width: 0
GlyphClass: 2
Flags: W
LayerCount: 2
Fore
SplineSet
224 1646 m 1,0,-1
 36 1504 l 1,1,-1
 36 -423 l 1,2,-1
 -36 -423 l 1,3,-1
 -36 1831 l 1,4,-1
 224 1646 l 1,0,-1
EndSplineSet
EndChar

StartChar: glyph282
Encoding: 65562 -1 282
Width: 0
GlyphClass: 2
Flags: W
LayerCount: 2
Fore
SplineSet
36 1831 m 1,0,-1
 36 -423 l 1,1,-1
 -36 -423 l 1,2,-1
 -36 1504 l 1,3,-1
 -224 1646 l 1,4,-1
 36 1831 l 1,0,-1
EndSplineSet
EndChar

StartChar: glyph283
Encoding: 65563 -1 283
Width: 0
GlyphClass: 2
Flags: W
LayerCount: 2
Fore
SplineSet
36 1831 m 1,0,-1
 36 -352 l 1,1,-1
 234 -352 l 1,2,-1
 234 -423 l 1,3,-1
 -36 -423 l 1,4,-1
 -36 1831 l 1,5,-1
 36 1831 l 1,0,-1
EndSplineSet
EndChar

StartChar: glyph284
Encoding: 65564 -1 284
Width: 0
GlyphClass: 2
Flags: W
LayerCount: 2
Fore
SplineSet
224 1646 m 1,0,-1
 36 1504 l 1,1,-1
 36 -423 l 1,2,-1
 -36 -423 l 1,3,-1
 -36 1504 l 1,4,-1
 -224 1641 l 1,5,-1
 0 1831 l 1,6,-1
 224 1646 l 1,0,-1
EndSplineSet
EndChar

StartChar: uni0670
Encoding: 1648 1648 297
Width: 0
GlyphClass: 4
Flags: W
AnchorPoint: "Anchor-2" 0 0 mark 0
AnchorPoint: "Anchor-0" 0 0 mark 0
LayerCount: 2
Fore
SplineSet
21 86 m 1,0,-1
 -20 2 l 1,1,2
 -16 57 -16 57 -28.5 155 c 128,-1,3
 -41 253 -41 253 -52 310 c 1,4,5
 6 385 6 385 11 385 c 0,6,7
 33 367 33 367 21 86 c 1,0,-1
EndSplineSet
EndChar

StartChar: glyph298
Encoding: 65565 -1 298
Width: 458
GlyphClass: 2
Flags: W
LayerCount: 2
Fore
SplineSet
235 1433 m 2,0,1
 266 1457 266 1457 294 1461.5 c 128,-1,2
 322 1466 322 1466 343 1455 c 128,-1,3
 364 1444 364 1444 377 1419 c 128,-1,4
 390 1394 390 1394 390 1357 c 2,5,-1
 389 1277 l 1,6,-1
 69 1277 l 1,7,-1
 69 1335 l 1,8,-1
 123 1335 l 1,9,-1
 235 1433 l 2,0,1
203 1335 m 1,10,-1
 331 1335 l 1,11,-1
 331 1365 l 2,12,13
 329 1394 329 1394 311 1402 c 128,-1,14
 293 1410 293 1410 263 1388 c 2,15,-1
 203 1335 l 1,10,-1
EndSplineSet
EndChar

StartChar: glyph299
Encoding: 65566 -1 299
Width: 843
GlyphClass: 2
Flags: W
LayerCount: 2
Fore
SplineSet
829 313 m 256,0,1
 829 262 829 262 807 157 c 0,2,3
 783 46 783 46 762 10 c 0,4,5
 716 -66 716 -66 593 -115 c 0,6,7
 481 -159 481 -159 383 -159 c 0,8,9
 19 -159 19 -159 19 90 c 0,10,11
 19 153 19 153 43 242 c 0,12,13
 62 313 62 313 71 337 c 0,14,15
 88 380 88 380 123 421 c 0,16,17
 168 476 168 476 198 499 c 0,18,19
 202 500 202 500 208 501 c 0,20,21
 233 501 233 501 233 459 c 0,22,23
 233 458 233 458 161.5 346.5 c 128,-1,24
 90 235 90 235 90 190 c 0,25,26
 90 149 90 149 120 109 c 128,-1,27
 150 69 150 69 189 52.5 c 128,-1,28
 228 36 228 36 275 24 c 0,29,30
 312 14 312 14 419 14 c 0,31,32
 600 14 600 14 718 134 c 0,33,34
 752 170 752 170 752 202 c 0,35,36
 752 280 752 280 695 343 c 1,37,-1
 679 343 l 2,38,39
 675 343 675 343 669 340 c 0,40,41
 597 233 597 233 496 233 c 0,42,43
 425 233 425 233 425 362 c 0,44,45
 425 459 425 459 499 595 c 0,46,47
 548 687 548 687 600 687 c 1,48,-1
 615 682 l 1,49,50
 722 632 722 632 801 436 c 0,51,52
 829 364 829 364 829 313 c 256,0,1
643 447 m 1,53,54
 627 483 627 483 566 514 c 1,55,56
 543 514 543 514 524 477 c 0,57,58
 508 445 508 445 508 419 c 2,59,-1
 511 399 l 2,60,61
 514 394 514 394 528 394 c 2,62,-1
 556 394 l 2,63,64
 577 394 577 394 607 411 c 128,-1,65
 637 428 637 428 643 447 c 1,53,54
EndSplineSet
EndChar

StartChar: uni06DD
Encoding: 1757 1757 388
Width: 2300
GlyphClass: 2
Flags: W
LayerCount: 2
Fore
SplineSet
2250 715 m 256,0,1
 2250 469 2250 469 2146 249 c 0,2,3
 2046 35 2046 35 1867 -119 c 1,4,5
 1870 -133 1870 -133 1870 -148 c 0,6,7
 1870 -203 1870 -203 1831 -241.5 c 128,-1,8
 1792 -280 1792 -280 1737 -280 c 0,9,10
 1697 -280 1697 -280 1664 -258 c 1,11,12
 1424 -385 1424 -385 1149 -385 c 0,13,14
 876 -385 876 -385 636 -258 c 1,15,16
 603 -280 603 -280 563 -280 c 0,17,18
 508 -280 508 -280 469 -241.5 c 128,-1,19
 430 -203 430 -203 430 -148 c 0,20,21
 430 -133 430 -133 433 -119 c 1,22,23
 254 35 254 35 154 249 c 0,24,25
 50 469 50 469 50 715 c 256,26,27
 50 961 50 961 154 1181 c 0,28,29
 254 1394 254 1394 433 1548 c 1,30,31
 430 1562 430 1562 430 1577 c 0,32,33
 430 1632 430 1632 469 1670.5 c 128,-1,34
 508 1709 508 1709 563 1709 c 0,35,36
 603 1709 603 1709 636 1687 c 1,37,38
 876 1814 876 1814 1151 1814 c 0,39,40
 1424 1814 1424 1814 1664 1687 c 1,41,42
 1697 1709 1697 1709 1737 1709 c 0,43,44
 1792 1709 1792 1709 1831 1670.5 c 128,-1,45
 1870 1632 1870 1632 1870 1577 c 0,46,47
 1870 1562 1870 1562 1867 1548 c 1,48,49
 2046 1394 2046 1394 2146 1181 c 0,50,51
 2250 961 2250 961 2250 715 c 256,0,1
1816 1576 m 0,52,53
 1816 1609 1816 1609 1793 1632 c 128,-1,54
 1770 1655 1770 1655 1738 1655 c 256,55,56
 1706 1655 1706 1655 1682.5 1631.5 c 128,-1,57
 1659 1608 1659 1608 1659 1576 c 256,58,59
 1659 1544 1659 1544 1682 1521 c 128,-1,60
 1705 1498 1705 1498 1738 1498 c 0,61,62
 1770 1498 1770 1498 1793 1521 c 128,-1,63
 1816 1544 1816 1544 1816 1576 c 0,52,53
1602 1595 m 1,64,65
 1390 1704 1390 1704 1151 1704 c 0,66,67
 910 1704 910 1704 698 1595 c 1,68,-1
 1602 1595 l 1,64,65
641 1576 m 256,69,70
 641 1608 641 1608 617.5 1631.5 c 128,-1,71
 594 1655 594 1655 562 1655 c 256,72,73
 530 1655 530 1655 507 1632 c 128,-1,74
 484 1609 484 1609 484 1576 c 0,75,76
 484 1544 484 1544 507 1521 c 128,-1,77
 530 1498 530 1498 562 1498 c 0,78,79
 595 1498 595 1498 618 1521 c 128,-1,80
 641 1544 641 1544 641 1576 c 256,69,70
2140 714 m 0,81,82
 2140 933 2140 933 2048 1131 c 0,83,84
 1960 1321 1960 1321 1801 1460 c 1,85,86
 1772 1444 1772 1444 1737 1444 c 0,87,88
 1681 1444 1681 1444 1642 1485 c 1,89,-1
 658 1485 l 1,90,91
 619 1444 619 1444 563 1444 c 0,92,93
 528 1444 528 1444 499 1460 c 1,94,95
 340 1321 340 1321 252 1131 c 0,96,97
 160 933 160 933 160 714 c 0,98,99
 160 265 160 265 499 -31 c 1,100,101
 528 -15 528 -15 563 -15 c 0,102,103
 619 -15 619 -15 658 -56 c 1,104,-1
 1642 -56 l 1,105,106
 1681 -15 1681 -15 1737 -15 c 0,107,108
 1772 -15 1772 -15 1801 -31 c 1,109,110
 2140 265 2140 265 2140 714 c 0,81,82
1816 -147 m 0,111,112
 1816 -115 1816 -115 1793 -92 c 128,-1,113
 1770 -69 1770 -69 1738 -69 c 0,114,115
 1705 -69 1705 -69 1682 -92 c 128,-1,116
 1659 -115 1659 -115 1659 -147 c 256,117,118
 1659 -179 1659 -179 1682.5 -202.5 c 128,-1,119
 1706 -226 1706 -226 1738 -226 c 256,120,121
 1770 -226 1770 -226 1793 -203 c 128,-1,122
 1816 -180 1816 -180 1816 -147 c 0,111,112
1602 -166 m 1,123,-1
 698 -166 l 1,124,125
 910 -275 910 -275 1151 -275 c 0,126,127
 1390 -275 1390 -275 1602 -166 c 1,123,-1
641 -147 m 256,128,129
 641 -115 641 -115 618 -92 c 128,-1,130
 595 -69 595 -69 562 -69 c 0,131,132
 530 -69 530 -69 507 -92 c 128,-1,133
 484 -115 484 -115 484 -147 c 0,134,135
 484 -180 484 -180 507 -203 c 128,-1,136
 530 -226 530 -226 562 -226 c 256,137,138
 594 -226 594 -226 617.5 -202.5 c 128,-1,139
 641 -179 641 -179 641 -147 c 256,128,129
EndSplineSet
EndChar

StartChar: uni06DE
Encoding: 1758 1758 389
Width: 2221
GlyphClass: 2
Flags: W
LayerCount: 2
Fore
SplineSet
2171 750 m 1,0,-1
 1861 439 l 1,1,-1
 1861 0 l 1,2,-1
 1421 0 l 1,3,-1
 1111 -311 l 1,4,-1
 800 0 l 1,5,-1
 361 0 l 1,6,-1
 361 439 l 1,7,-1
 50 750 l 1,8,-1
 361 1061 l 1,9,-1
 361 1500 l 1,10,-1
 800 1500 l 1,11,-1
 1111 1811 l 1,12,-1
 1421 1500 l 1,13,-1
 1861 1500 l 1,14,-1
 1861 1061 l 1,15,-1
 2171 750 l 1,0,-1
436 364 m 1,16,-1
 436 75 l 1,17,-1
 725 75 l 1,18,-1
 436 364 l 1,16,-1
725 1425 m 1,19,-1
 436 1425 l 1,20,-1
 436 1136 l 1,21,-1
 725 1425 l 1,19,-1
1786 1136 m 1,22,-1
 1786 1425 l 1,23,-1
 1496 1425 l 1,24,-1
 1786 1136 l 1,22,-1
1786 75 m 1,25,-1
 1786 364 l 1,26,-1
 1496 75 l 1,27,-1
 1786 75 l 1,25,-1
906 0 m 1,28,-1
 1111 -205 l 1,29,-1
 1315 0 l 1,30,-1
 906 0 l 1,28,-1
361 955 m 1,31,-1
 156 750 l 1,32,-1
 361 545 l 1,33,-1
 361 955 l 1,31,-1
1315 1500 m 1,34,-1
 1111 1705 l 1,35,-1
 906 1500 l 1,36,-1
 1315 1500 l 1,34,-1
1786 1030 m 1,37,-1
 1390 1425 l 1,38,-1
 831 1425 l 1,39,-1
 436 1030 l 1,40,-1
 436 470 l 1,41,-1
 831 75 l 1,42,-1
 1390 75 l 1,43,-1
 1786 470 l 1,44,-1
 1786 1030 l 1,37,-1
2065 750 m 1,45,-1
 1861 955 l 1,46,-1
 1861 545 l 1,47,-1
 2065 750 l 1,45,-1
1328 750 m 256,48,49
 1328 660 1328 660 1264.5 596 c 128,-1,50
 1201 532 1201 532 1111 532 c 256,51,52
 1021 532 1021 532 957 596 c 128,-1,53
 893 660 893 660 893 750 c 256,54,55
 893 840 893 840 957 903.5 c 128,-1,56
 1021 967 1021 967 1111 967 c 256,57,58
 1201 967 1201 967 1264.5 903.5 c 128,-1,59
 1328 840 1328 840 1328 750 c 256,48,49
1253 750 m 256,60,61
 1253 809 1253 809 1211 850.5 c 128,-1,62
 1169 892 1169 892 1110 892 c 256,63,64
 1051 892 1051 892 1009 850.5 c 128,-1,65
 967 809 967 809 967 750 c 256,66,67
 967 691 967 691 1009 649 c 128,-1,68
 1051 607 1051 607 1110 607 c 256,69,70
 1169 607 1169 607 1211 649 c 128,-1,71
 1253 691 1253 691 1253 750 c 256,60,61
EndSplineSet
EndChar

StartChar: uni06DF
Encoding: 1759 1759 390
Width: 0
GlyphClass: 2
Flags: W
LayerCount: 2
Fore
SplineSet
75 1429 m 256,0,1
 75 1398 75 1398 53 1376 c 128,-1,2
 31 1354 31 1354 0 1354 c 256,3,4
 -31 1354 -31 1354 -53 1376 c 128,-1,5
 -75 1398 -75 1398 -75 1429 c 256,6,7
 -75 1460 -75 1460 -53 1482 c 128,-1,8
 -31 1504 -31 1504 0 1504 c 256,9,10
 31 1504 31 1504 53 1482 c 128,-1,11
 75 1460 75 1460 75 1429 c 256,0,1
EndSplineSet
EndChar

StartChar: uni06E9
Encoding: 1769 1769 391
Width: 1229
GlyphClass: 2
Flags: W
LayerCount: 2
Fore
SplineSet
1179 0 m 1,0,-1
 50 0 l 1,1,-1
 278 261 l 1,2,-1
 278 849 l 1,3,-1
 50 1108 l 1,4,-1
 614 1676 l 1,5,-1
 1179 1108 l 1,6,-1
 951 849 l 1,7,-1
 951 261 l 1,8,-1
 1179 0 l 1,0,-1
1101 1108 m 1,9,-1
 614 1598 l 1,10,-1
 128 1108 l 1,11,-1
 338 871 l 1,12,-1
 338 239 l 1,13,-1
 178 56 l 1,14,-1
 1051 56 l 1,15,-1
 891 239 l 1,16,-1
 891 871 l 1,17,-1
 1101 1108 l 1,9,-1
995 1108 m 1,18,-1
 845 937 l 1,19,-1
 845 131 l 1,20,-1
 384 131 l 1,21,-1
 384 937 l 1,22,-1
 234 1108 l 1,23,-1
 614 1489 l 1,24,-1
 995 1108 l 1,18,-1
922 1108 m 1,25,-1
 614 1416 l 1,26,-1
 307 1108 l 1,27,-1
 433 968 l 1,28,-1
 433 186 l 1,29,-1
 796 186 l 1,30,-1
 796 968 l 1,31,-1
 922 1108 l 1,25,-1
833 1108 m 1,32,-1
 745 1011 l 1,33,-1
 745 267 l 1,34,-1
 484 267 l 1,35,-1
 484 1011 l 1,36,-1
 396 1108 l 1,37,-1
 614 1331 l 1,38,-1
 833 1108 l 1,32,-1
780 1108 m 1,39,-1
 614 1278 l 1,40,-1
 449 1108 l 1,41,-1
 523 1027 l 1,42,-1
 523 309 l 1,43,-1
 705 309 l 1,44,-1
 705 1027 l 1,45,-1
 780 1108 l 1,39,-1
EndSplineSet
EndChar

StartChar: uni06EB
Encoding: 1771 1771 393
Width: 0
GlyphClass: 2
Flags: W
LayerCount: 2
Fore
SplineSet
168 1522 m 1,0,-1
 -1 1354 l 1,1,-1
 -168 1521 l 1,2,-1
 1 1689 l 1,3,-1
 168 1522 l 1,0,-1
104 1522 m 1,4,-1
 0 1626 l 1,5,-1
 -104 1521 l 1,6,-1
 0 1417 l 1,7,-1
 104 1522 l 1,4,-1
EndSplineSet
EndChar

StartChar: comma
Encoding: 44 44 402
Width: 424
Flags: W
LayerCount: 2
Fore
SplineSet
121 -289 m 1,0,-1
 121 -252 l 1,1,2
 208 -223 208 -223 255.5 -162.5 c 128,-1,3
 303 -102 303 -102 303 -34 c 0,4,5
 303 -18 303 -18 296 -6 c 0,6,7
 290 1 290 1 284 1 c 0,8,9
 275 1 275 1 244 -16 c 0,10,11
 228 -23 228 -23 211 -23 c 0,12,13
 170 -23 170 -23 145.5 1 c 128,-1,14
 121 25 121 25 121 69 c 0,15,16
 121 110 121 110 152.5 140 c 128,-1,17
 184 170 184 170 230 170 c 0,18,19
 286 170 286 170 329.5 121 c 128,-1,20
 373 72 373 72 373 -8 c 0,21,22
 373 -95 373 -95 312.5 -170.5 c 128,-1,23
 252 -246 252 -246 121 -289 c 1,0,-1
EndSplineSet
EndChar

StartChar: afii57407
Encoding: 1567 1567 403
Width: 684
GlyphClass: 2
Flags: W
LayerCount: 2
Fore
SplineSet
440 1236 m 1,0,1
 436 1139 436 1139 369 1051 c 1,2,3
 332 1044 332 1044 295 1033 c 0,4,5
 267 1025 267 1025 267 978 c 0,6,7
 267 944 267 944 297 912 c 2,8,-1
 396 809 l 2,9,10
 421 783 421 783 421 683 c 0,11,12
 421 615 421 615 361 466 c 0,13,14
 317 359 317 359 297 359 c 1,15,16
 290 363 290 363 277 371 c 1,17,-1
 269 396 l 1,18,19
 283 499 283 499 283 515 c 0,20,21
 283 564 283 564 200.5 673 c 128,-1,22
 118 782 118 782 118 863 c 0,23,24
 118 937 118 937 158 1026 c 0,25,26
 201 1121 201 1121 259 1155 c 2,27,-1
 409 1244 l 1,28,-1
 424 1249 l 1,29,-1
 434 1245 l 1,30,-1
 440 1236 l 1,0,1
452 159 m 1,31,-1
 369 2 l 1,32,-1
 159 125 l 1,33,-1
 240 283 l 1,34,-1
 452 159 l 1,31,-1
EndSplineSet
EndChar

StartChar: afii57392
Encoding: 1776 1776 404
Width: 559
Flags: W
LayerCount: 2
Fore
SplineSet
489 524 m 1,0,1
 489 486 489 486 428.5 397 c 128,-1,2
 368 308 368 308 333 295 c 1,3,4
 257 363 257 363 100 489 c 1,5,6
 152 571 152 571 267 726 c 1,7,8
 293 717 293 717 383 634.5 c 128,-1,9
 473 552 473 552 489 524 c 1,0,1
EndSplineSet
EndChar

StartChar: afii57393
Encoding: 1777 1777 405
Width: 652
Flags: W
LayerCount: 2
Fore
SplineSet
524 194 m 2,0,1
 524 149 524 149 518 137 c 1,2,3
 515 84 515 84 502 12 c 1,4,5
 494 -2 494 -2 472 -2 c 0,6,7
 459 -2 459 -2 447 12 c 1,8,9
 447 52 447 52 444 121 c 0,10,11
 444 124 444 124 421 252 c 0,12,13
 381 485 381 485 324 614 c 0,14,15
 291 687 291 687 195 821 c 1,16,17
 193 833 193 833 189 846 c 1,18,19
 189 884 189 884 240 991 c 0,20,21
 294 1103 294 1103 322 1105 c 1,22,23
 524 897 524 897 524 319 c 2,24,-1
 524 194 l 2,0,1
EndSplineSet
EndChar

StartChar: afii57394
Encoding: 1778 1778 406
Width: 897
Flags: W
LayerCount: 2
Fore
SplineSet
777 1046 m 0,0,1
 777 936 777 936 759 868 c 0,2,3
 726 740 726 740 641 703 c 0,4,5
 584 678 584 678 503 675 c 1,6,7
 524 526 524 526 524 245 c 0,8,9
 524 148 524 148 518 137 c 1,10,11
 515 83 515 83 502 12 c 1,12,13
 493 -2 493 -2 472 -2 c 0,14,15
 459 -2 459 -2 447 12 c 1,16,17
 447 52 447 52 444 121 c 0,18,19
 444 124 444 124 421 252 c 0,20,21
 381 485 381 485 324 614 c 0,22,23
 291 687 291 687 195 821 c 1,24,25
 193 833 193 833 189 846 c 1,26,27
 189 882 189 882 242 991 c 0,28,29
 296 1104 296 1104 322 1105 c 1,30,31
 332 1098 332 1098 368 1048 c 0,32,33
 418 977 418 977 431 967 c 0,34,35
 463 941 463 941 533 941 c 0,36,37
 688 941 688 941 733 1058 c 0,38,39
 740 1077 740 1077 756 1077 c 0,40,41
 777 1077 777 1077 777 1046 c 0,0,1
EndSplineSet
EndChar

StartChar: afii57395
Encoding: 1779 1779 407
Width: 1169
Flags: W
LayerCount: 2
Fore
SplineSet
1023 1072 m 0,0,1
 1023 949 1023 949 975 841 c 0,2,3
 912 702 912 702 804 702 c 0,4,5
 757 702 757 702 679 758 c 1,6,7
 719 758 719 758 635.5 716.5 c 128,-1,8
 552 675 552 675 528 675 c 2,9,-1
 503 675 l 1,10,11
 524 526 524 526 524 245 c 0,12,13
 524 148 524 148 518 137 c 1,14,15
 515 84 515 84 502 12 c 1,16,17
 494 -2 494 -2 472 -2 c 0,18,19
 459 -2 459 -2 447 12 c 1,20,21
 447 52 447 52 444 121 c 0,22,23
 444 124 444 124 421 252 c 0,24,25
 381 485 381 485 324 614 c 0,26,27
 291 687 291 687 195 821 c 1,28,29
 193 833 193 833 189 846 c 1,30,31
 189 882 189 882 242 991 c 0,32,33
 296 1104 296 1104 322 1105 c 1,34,35
 332 1098 332 1098 368 1048 c 0,36,37
 418 977 418 977 431 967 c 0,38,39
 463 941 463 941 533 941 c 0,40,41
 605 941 605 941 644 978 c 0,42,43
 665 998 665 998 687 1051 c 0,44,45
 705 1096 705 1096 726 1104 c 1,46,47
 740 1104 740 1104 745 1089 c 0,48,49
 760 1040 760 1040 762 1036 c 0,50,51
 785 963 785 963 887 963 c 0,52,53
 910 963 910 963 947 1026.5 c 128,-1,54
 984 1090 984 1090 1007 1090 c 0,55,56
 1023 1090 1023 1090 1023 1072 c 0,0,1
EndSplineSet
EndChar

StartChar: afii62843
Encoding: 1780 1780 408
Width: 721
Flags: W
LayerCount: 2
Fore
SplineSet
640 101 m 0,0,1
 640 54 640 54 612 25 c 1,2,3
 482 25 482 25 318 94 c 0,4,5
 187 149 187 149 180 200 c 0,6,7
 176 225 176 225 176 231 c 0,8,9
 176 355 176 355 377 556 c 1,10,11
 270 594 270 594 237 615 c 0,12,13
 162 662 162 662 162 737 c 0,14,15
 162 867 162 867 399 1063 c 0,16,17
 441 1097 441 1097 511 1133 c 1,18,19
 518 1116 518 1116 519 1109 c 0,20,21
 519 1082 519 1082 493 1006 c 0,22,23
 465 925 465 925 447 920 c 2,24,-1
 362 896 l 1,25,26
 299 872 299 872 299 839 c 0,27,28
 299 820 299 820 530 682 c 1,29,-1
 532 668 l 2,30,31
 532 648 532 648 525 633 c 0,32,33
 513 608 513 608 397 491 c 0,34,35
 294 387 294 387 294 350 c 0,36,37
 294 297 294 297 535 257 c 0,38,39
 564 252 564 252 607 252 c 1,40,41
 619 245 619 245 631 183 c 0,42,43
 640 134 640 134 640 101 c 0,0,1
EndSplineSet
EndChar

StartChar: afii62844
Encoding: 1781 1781 409
Width: 947
Flags: W
LayerCount: 2
Fore
SplineSet
831 589 m 0,0,1
 831 510 831 510 768 380 c 0,2,3
 722 286 722 286 683 243 c 0,4,5
 591 142 591 142 402 142 c 0,6,7
 295 142 295 142 213 203 c 0,8,9
 123 270 123 270 123 374 c 0,10,11
 123 505 123 505 221 704 c 0,12,13
 333 931 333 931 447 931 c 0,14,15
 627 931 627 931 752 779 c 0,16,17
 831 684 831 684 831 589 c 0,0,1
708 465 m 0,18,19
 708 552 708 552 603 650.5 c 128,-1,20
 498 749 498 749 411 749 c 0,21,22
 339 749 339 749 288 646 c 0,23,24
 245 560 245 560 245 478 c 0,25,26
 245 416 245 416 332 382 c 0,27,28
 395 357 395 357 471 357 c 0,29,30
 512 357 512 357 581 369 c 0,31,32
 663 383 663 383 679 400 c 0,33,34
 708 428 708 428 708 465 c 0,18,19
EndSplineSet
EndChar

StartChar: afii62845
Encoding: 1782 1782 410
Width: 965
Flags: W
LayerCount: 2
Fore
SplineSet
891 239 m 0,0,1
 891 205 891 205 850 114 c 0,2,3
 811 31 811 31 788 2 c 0,4,5
 782 0 782 0 775 -4 c 0,6,7
 769 -4 769 -4 763 2 c 0,8,9
 587 176 587 176 587 515 c 0,10,11
 587 619 587 619 600 797 c 1,12,-1
 591 806 l 1,13,-1
 583 806 l 2,14,15
 575 806 575 806 559 803.5 c 128,-1,16
 543 801 543 801 535 801 c 0,17,18
 494 800 494 800 470 800 c 0,19,20
 380 800 380 800 320 803 c 0,21,22
 281 806 281 806 211 822 c 0,23,24
 117 845 117 845 111 868 c 0,25,26
 94 929 94 929 94 1046 c 0,27,28
 94 1075 94 1075 105 1134 c 1,29,30
 118 1135 118 1135 131 1141 c 1,31,32
 184 1115 184 1115 240 1092 c 0,33,34
 364 1044 364 1044 515 1044 c 0,35,36
 550 1044 550 1044 682 1060 c 0,37,38
 699 1062 699 1062 709 1053 c 1,39,40
 688 867 688 867 688 787 c 0,41,42
 688 568 688 568 758 439 c 1,43,44
 801 382 801 382 885 257 c 0,45,46
 891 248 891 248 891 239 c 0,0,1
EndSplineSet
EndChar

StartChar: afii57399
Encoding: 1783 1783 411
Width: 1119
Flags: W
LayerCount: 2
Fore
SplineSet
1038 889 m 1,0,1
 991 816 991 816 864 614 c 0,2,3
 804 518 804 518 708 253 c 0,4,5
 683 184 683 184 657 87 c 0,6,7
 649 57 649 57 638 19 c 0,8,9
 631 2 631 2 610 2 c 0,10,11
 591 2 591 2 580 20 c 0,12,13
 538 129 538 129 483 226 c 0,14,15
 352 457 352 457 37 854 c 1,16,-1
 37 868 l 2,17,18
 37 904 37 904 73.5 999 c 128,-1,19
 110 1094 110 1094 134 1119 c 1,20,-1
 143 1121 l 1,21,22
 181 1109 181 1109 278 960 c 0,23,24
 459 684 459 684 597 280 c 1,25,26
 696 616 696 616 741 735 c 0,27,28
 840 994 840 994 969 1152 c 1,29,30
 990 1141 990 1141 1015 1028 c 0,31,32
 1038 926 1038 926 1038 889 c 1,0,1
EndSplineSet
EndChar

StartChar: afii57400
Encoding: 1784 1784 412
Width: 1119
Flags: W
LayerCount: 2
Fore
SplineSet
1070 277 m 2,0,1
 1070 239 1070 239 1033 146 c 0,2,3
 998 57 998 57 972 23 c 0,4,5
 968 22 968 22 965 21 c 0,6,7
 952 21 952 21 890 98 c 0,8,9
 675 363 675 363 509 863 c 1,10,11
 419 546 419 546 365 407 c 0,12,13
 268 154 268 154 138 -11 c 1,14,15
 120 -1 120 -1 94 115 c 0,16,17
 71 216 71 216 69 253 c 1,18,19
 73 267 73 267 145 372 c 0,20,21
 238 508 238 508 344 746 c 0,22,23
 394 858 394 858 470 1123 c 0,24,25
 475 1139 475 1139 496 1139 c 0,26,27
 518 1139 518 1139 527 1122 c 0,28,29
 582 993 582 993 622 920 c 0,30,31
 758 679 758 679 1070 288 c 1,32,-1
 1070 277 l 2,0,1
EndSplineSet
EndChar

StartChar: afii57401
Encoding: 1785 1785 413
Width: 845
Flags: W
LayerCount: 2
Fore
SplineSet
768 211 m 1,0,1
 766 170 766 170 737 87 c 0,2,3
 703 -6 703 -6 677 -13 c 1,4,5
 615 16 615 16 531 255 c 0,6,7
 524 274 524 274 497 440 c 0,8,9
 475 582 475 582 458 595 c 1,10,11
 372 574 372 574 315 574 c 0,12,13
 235 574 235 574 179 621 c 0,14,15
 120 671 120 671 120 750 c 0,16,17
 120 850 120 850 189 977 c 0,18,19
 268 1121 268 1121 357 1121 c 0,20,21
 421 1121 421 1121 473 1063 c 0,22,23
 519 1011 519 1011 533 944 c 0,24,25
 534 942 534 942 570 684 c 0,26,27
 588 553 588 553 626 450 c 0,28,29
 656 367 656 367 768 211 c 1,0,1
433 795 m 1,30,31
 428 863 428 863 386 896 c 0,32,33
 347 926 347 926 308 926 c 0,34,35
 238 926 238 926 238 831 c 0,36,37
 238 809 238 809 280 790 c 0,38,39
 303 779 303 779 364 779 c 0,40,41
 424 779 424 779 433 795 c 1,30,31
EndSplineSet
EndChar

StartChar: afii57392.001
Encoding: 1632 1632 414
Width: 559
Flags: W
LayerCount: 2
Fore
SplineSet
489 524 m 1,0,1
 489 486 489 486 428.5 397 c 128,-1,2
 368 308 368 308 333 295 c 1,3,4
 257 363 257 363 100 489 c 1,5,6
 152 571 152 571 267 726 c 1,7,8
 293 717 293 717 383 634.5 c 128,-1,9
 473 552 473 552 489 524 c 1,0,1
EndSplineSet
EndChar

StartChar: afii57393.001
Encoding: 1633 1633 415
Width: 652
Flags: W
LayerCount: 2
Fore
SplineSet
524 194 m 2,0,1
 524 149 524 149 518 137 c 1,2,3
 515 84 515 84 502 12 c 1,4,5
 494 -2 494 -2 472 -2 c 0,6,7
 459 -2 459 -2 447 12 c 1,8,9
 447 52 447 52 444 121 c 0,10,11
 444 124 444 124 421 252 c 0,12,13
 381 485 381 485 324 614 c 0,14,15
 291 687 291 687 195 821 c 1,16,17
 193 833 193 833 189 846 c 1,18,19
 189 884 189 884 240 991 c 0,20,21
 294 1103 294 1103 322 1105 c 1,22,23
 524 897 524 897 524 319 c 2,24,-1
 524 194 l 2,0,1
EndSplineSet
EndChar

StartChar: afii57394.001
Encoding: 1634 1634 416
Width: 897
Flags: W
LayerCount: 2
Fore
SplineSet
777 1046 m 0,0,1
 777 936 777 936 759 868 c 0,2,3
 726 740 726 740 641 703 c 0,4,5
 584 678 584 678 503 675 c 1,6,7
 524 526 524 526 524 245 c 0,8,9
 524 148 524 148 518 137 c 1,10,11
 515 83 515 83 502 12 c 1,12,13
 493 -2 493 -2 472 -2 c 0,14,15
 459 -2 459 -2 447 12 c 1,16,17
 447 52 447 52 444 121 c 0,18,19
 444 124 444 124 421 252 c 0,20,21
 381 485 381 485 324 614 c 0,22,23
 291 687 291 687 195 821 c 1,24,25
 193 833 193 833 189 846 c 1,26,27
 189 882 189 882 242 991 c 0,28,29
 296 1104 296 1104 322 1105 c 1,30,31
 332 1098 332 1098 368 1048 c 0,32,33
 418 977 418 977 431 967 c 0,34,35
 463 941 463 941 533 941 c 0,36,37
 688 941 688 941 733 1058 c 0,38,39
 740 1077 740 1077 756 1077 c 0,40,41
 777 1077 777 1077 777 1046 c 0,0,1
EndSplineSet
EndChar

StartChar: afii57395.001
Encoding: 1635 1635 417
Width: 1169
Flags: W
LayerCount: 2
Fore
SplineSet
1023 1072 m 0,0,1
 1023 949 1023 949 975 841 c 0,2,3
 912 702 912 702 804 702 c 0,4,5
 757 702 757 702 679 758 c 1,6,7
 719 758 719 758 635.5 716.5 c 128,-1,8
 552 675 552 675 528 675 c 2,9,-1
 503 675 l 1,10,11
 524 526 524 526 524 245 c 0,12,13
 524 148 524 148 518 137 c 1,14,15
 515 84 515 84 502 12 c 1,16,17
 494 -2 494 -2 472 -2 c 0,18,19
 459 -2 459 -2 447 12 c 1,20,21
 447 52 447 52 444 121 c 0,22,23
 444 124 444 124 421 252 c 0,24,25
 381 485 381 485 324 614 c 0,26,27
 291 687 291 687 195 821 c 1,28,29
 193 833 193 833 189 846 c 1,30,31
 189 882 189 882 242 991 c 0,32,33
 296 1104 296 1104 322 1105 c 1,34,35
 332 1098 332 1098 368 1048 c 0,36,37
 418 977 418 977 431 967 c 0,38,39
 463 941 463 941 533 941 c 0,40,41
 605 941 605 941 644 978 c 0,42,43
 665 998 665 998 687 1051 c 0,44,45
 705 1096 705 1096 726 1104 c 1,46,47
 740 1104 740 1104 745 1089 c 0,48,49
 760 1040 760 1040 762 1036 c 0,50,51
 785 963 785 963 887 963 c 0,52,53
 910 963 910 963 947 1026.5 c 128,-1,54
 984 1090 984 1090 1007 1090 c 0,55,56
 1023 1090 1023 1090 1023 1072 c 0,0,1
EndSplineSet
EndChar

StartChar: afii57396
Encoding: 1636 1636 418
Width: 721
Flags: W
LayerCount: 2
Fore
SplineSet
640 101 m 0,0,1
 640 54 640 54 612 25 c 1,2,3
 482 25 482 25 318 94 c 0,4,5
 187 149 187 149 180 200 c 0,6,7
 176 225 176 225 176 231 c 0,8,9
 176 355 176 355 377 556 c 1,10,11
 270 594 270 594 237 615 c 0,12,13
 162 662 162 662 162 737 c 0,14,15
 162 867 162 867 399 1063 c 0,16,17
 441 1097 441 1097 511 1133 c 1,18,19
 518 1116 518 1116 519 1109 c 0,20,21
 519 1082 519 1082 493 1006 c 0,22,23
 465 925 465 925 447 920 c 2,24,-1
 362 896 l 1,25,26
 299 872 299 872 299 839 c 0,27,28
 299 820 299 820 530 682 c 1,29,-1
 532 668 l 2,30,31
 532 648 532 648 525 633 c 0,32,33
 513 608 513 608 397 491 c 0,34,35
 294 387 294 387 294 350 c 0,36,37
 294 297 294 297 535 257 c 0,38,39
 564 252 564 252 607 252 c 1,40,41
 619 245 619 245 631 183 c 0,42,43
 640 134 640 134 640 101 c 0,0,1
EndSplineSet
EndChar

StartChar: afii57397
Encoding: 1637 1637 419
Width: 947
Flags: W
LayerCount: 2
Fore
SplineSet
831 589 m 0,0,1
 831 510 831 510 768 380 c 0,2,3
 722 286 722 286 683 243 c 0,4,5
 591 142 591 142 402 142 c 0,6,7
 295 142 295 142 213 203 c 0,8,9
 123 270 123 270 123 374 c 0,10,11
 123 505 123 505 221 704 c 0,12,13
 333 931 333 931 447 931 c 0,14,15
 627 931 627 931 752 779 c 0,16,17
 831 684 831 684 831 589 c 0,0,1
708 465 m 0,18,19
 708 552 708 552 603 650.5 c 128,-1,20
 498 749 498 749 411 749 c 0,21,22
 339 749 339 749 288 646 c 0,23,24
 245 560 245 560 245 478 c 0,25,26
 245 416 245 416 332 382 c 0,27,28
 395 357 395 357 471 357 c 0,29,30
 512 357 512 357 581 369 c 0,31,32
 663 383 663 383 679 400 c 0,33,34
 708 428 708 428 708 465 c 0,18,19
EndSplineSet
EndChar

StartChar: afii57398
Encoding: 1638 1638 420
Width: 965
Flags: W
LayerCount: 2
Fore
SplineSet
891 239 m 0,0,1
 891 205 891 205 850 114 c 0,2,3
 811 31 811 31 788 2 c 0,4,5
 782 0 782 0 775 -4 c 0,6,7
 769 -4 769 -4 763 2 c 0,8,9
 587 176 587 176 587 515 c 0,10,11
 587 619 587 619 600 797 c 1,12,-1
 591 806 l 1,13,-1
 583 806 l 2,14,15
 575 806 575 806 559 803.5 c 128,-1,16
 543 801 543 801 535 801 c 0,17,18
 494 800 494 800 470 800 c 0,19,20
 380 800 380 800 320 803 c 0,21,22
 281 806 281 806 211 822 c 0,23,24
 117 845 117 845 111 868 c 0,25,26
 94 929 94 929 94 1046 c 0,27,28
 94 1075 94 1075 105 1134 c 1,29,30
 118 1135 118 1135 131 1141 c 1,31,32
 184 1115 184 1115 240 1092 c 0,33,34
 364 1044 364 1044 515 1044 c 0,35,36
 550 1044 550 1044 682 1060 c 0,37,38
 699 1062 699 1062 709 1053 c 1,39,40
 688 867 688 867 688 787 c 0,41,42
 688 568 688 568 758 439 c 1,43,44
 801 382 801 382 885 257 c 0,45,46
 891 248 891 248 891 239 c 0,0,1
EndSplineSet
EndChar

StartChar: afii57399.001
Encoding: 1639 1639 421
Width: 1119
Flags: W
LayerCount: 2
Fore
SplineSet
1038 889 m 1,0,1
 991 816 991 816 864 614 c 0,2,3
 804 518 804 518 708 253 c 0,4,5
 683 184 683 184 657 87 c 0,6,7
 649 57 649 57 638 19 c 0,8,9
 631 2 631 2 610 2 c 0,10,11
 591 2 591 2 580 20 c 0,12,13
 538 129 538 129 483 226 c 0,14,15
 352 457 352 457 37 854 c 1,16,-1
 37 868 l 2,17,18
 37 904 37 904 73.5 999 c 128,-1,19
 110 1094 110 1094 134 1119 c 1,20,-1
 143 1121 l 1,21,22
 181 1109 181 1109 278 960 c 0,23,24
 459 684 459 684 597 280 c 1,25,26
 696 616 696 616 741 735 c 0,27,28
 840 994 840 994 969 1152 c 1,29,30
 990 1141 990 1141 1015 1028 c 0,31,32
 1038 926 1038 926 1038 889 c 1,0,1
EndSplineSet
EndChar

StartChar: afii57400.001
Encoding: 1640 1640 422
Width: 1119
Flags: W
LayerCount: 2
Fore
SplineSet
1070 277 m 2,0,1
 1070 239 1070 239 1033 146 c 0,2,3
 998 57 998 57 972 23 c 0,4,5
 968 22 968 22 965 21 c 0,6,7
 952 21 952 21 890 98 c 0,8,9
 675 363 675 363 509 863 c 1,10,11
 419 546 419 546 365 407 c 0,12,13
 268 154 268 154 138 -11 c 1,14,15
 120 -1 120 -1 94 115 c 0,16,17
 71 216 71 216 69 253 c 1,18,19
 73 267 73 267 145 372 c 0,20,21
 238 508 238 508 344 746 c 0,22,23
 394 858 394 858 470 1123 c 0,24,25
 475 1139 475 1139 496 1139 c 0,26,27
 518 1139 518 1139 527 1122 c 0,28,29
 582 993 582 993 622 920 c 0,30,31
 758 679 758 679 1070 288 c 1,32,-1
 1070 277 l 2,0,1
EndSplineSet
EndChar

StartChar: afii57401.001
Encoding: 1641 1641 423
Width: 845
Flags: W
LayerCount: 2
Fore
SplineSet
768 211 m 1,0,1
 766 170 766 170 737 87 c 0,2,3
 703 -6 703 -6 677 -13 c 1,4,5
 615 16 615 16 531 255 c 0,6,7
 524 274 524 274 497 440 c 0,8,9
 475 582 475 582 458 595 c 1,10,11
 372 574 372 574 315 574 c 0,12,13
 235 574 235 574 179 621 c 0,14,15
 120 671 120 671 120 750 c 0,16,17
 120 850 120 850 189 977 c 0,18,19
 268 1121 268 1121 357 1121 c 0,20,21
 421 1121 421 1121 473 1063 c 0,22,23
 519 1011 519 1011 533 944 c 0,24,25
 534 942 534 942 570 684 c 0,26,27
 588 553 588 553 626 450 c 0,28,29
 656 367 656 367 768 211 c 1,0,1
433 795 m 1,30,31
 428 863 428 863 386 896 c 0,32,33
 347 926 347 926 308 926 c 0,34,35
 238 926 238 926 238 831 c 0,36,37
 238 809 238 809 280 790 c 0,38,39
 303 779 303 779 364 779 c 0,40,41
 424 779 424 779 433 795 c 1,30,31
EndSplineSet
EndChar

StartChar: guillemotleft
Encoding: 171 171 424
Width: 836
Flags: W
LayerCount: 2
Fore
SplineSet
442 616 m 1,0,1
 387 507 387 507 387 393 c 0,2,3
 387 255 387 255 518 82 c 1,4,-1
 518 83 l 1,5,6
 538 60 538 60 547.5 44 c 128,-1,7
 557 28 557 28 560 20 c 0,8,9
 560 -5 560 -5 534 -5 c 0,10,11
 528 -5 528 -5 513 1 c 0,12,13
 377 71 377 71 294 168 c 1,14,-1
 294 167 l 1,15,16
 202 276 202 276 202 396 c 0,17,18
 203 448 203 448 222.5 500 c 128,-1,19
 242 552 242 552 280 603 c 0,20,21
 307 640 307 640 344.5 676.5 c 128,-1,22
 382 713 382 713 426 745 c 0,23,24
 499 799 499 799 528 799 c 0,25,26
 563 799 563 799 563 775 c 0,27,28
 563 765 563 765 555 757 c 0,29,30
 528 730 528 730 509 708 c 128,-1,31
 490 686 490 686 477 668.5 c 128,-1,32
 464 651 464 651 455.5 638 c 128,-1,33
 447 625 447 625 441 615 c 2,34,-1
 442 616 l 1,0,1
721 616 m 1,35,36
 666 507 666 507 666 393 c 0,37,38
 666 255 666 255 797 82 c 1,39,-1
 797 83 l 1,40,41
 817 60 817 60 826.5 44 c 128,-1,42
 836 28 836 28 839 20 c 0,43,44
 839 -5 839 -5 813 -5 c 0,45,46
 806 -5 806 -5 793 1 c 0,47,48
 725 36 725 36 670 77 c 128,-1,49
 615 118 615 118 573 168 c 1,50,-1
 573 167 l 1,51,52
 481 276 481 276 481 396 c 0,53,54
 482 448 482 448 501.5 500 c 128,-1,55
 521 552 521 552 559 603 c 0,56,57
 586 640 586 640 623.5 676.5 c 128,-1,58
 661 713 661 713 705 745 c 0,59,60
 778 799 778 799 807 799 c 0,61,62
 842 799 842 799 842 775 c 0,63,64
 842 765 842 765 834 757 c 0,65,66
 807 730 807 730 788 708 c 128,-1,67
 769 686 769 686 756 668.5 c 128,-1,68
 743 651 743 651 734.5 638 c 128,-1,69
 726 625 726 625 720 615 c 2,70,-1
 721 616 l 1,35,36
EndSplineSet
EndChar

StartChar: guillemotright
Encoding: 187 187 425
Width: 836
Flags: W
LayerCount: 2
Fore
SplineSet
573 622 m 1,0,1
 561 641 561 641 537.5 674.5 c 128,-1,2
 514 708 514 708 460 762 c 0,3,4
 452 770 452 770 452 780 c 0,5,6
 452 804 452 804 487 804 c 0,7,8
 514 804 514 804 588 751 c 0,9,10
 631 719 631 719 668 683 c 128,-1,11
 705 647 705 647 732 610 c 0,12,13
 769 559 769 559 788.5 508 c 128,-1,14
 808 457 808 457 809 406 c 0,15,16
 809 287 809 287 718 179 c 1,17,-1
 718 180 l 1,18,19
 636 83 636 83 501 15 c 0,20,21
 487 9 487 9 481 9 c 0,22,23
 455 9 455 9 455 34 c 0,24,25
 458 42 458 42 467.5 57.5 c 128,-1,26
 477 73 477 73 497 96 c 1,27,-1
 497 95 l 1,28,29
 626 266 626 266 626 403 c 0,30,31
 626 515 626 515 572 623 c 1,32,-1
 573 622 l 1,0,1
297 622 m 1,33,34
 285 641 285 641 261.5 674.5 c 128,-1,35
 238 708 238 708 184 762 c 0,36,37
 176 770 176 770 176 780 c 0,38,39
 176 804 176 804 211 804 c 0,40,41
 238 804 238 804 312 751 c 0,42,43
 355 719 355 719 392 683 c 128,-1,44
 429 647 429 647 456 610 c 0,45,46
 493 559 493 559 512.5 508 c 128,-1,47
 532 457 532 457 533 406 c 0,48,49
 533 287 533 287 442 179 c 1,50,-1
 442 180 l 1,51,52
 360 83 360 83 225 15 c 0,53,54
 211 9 211 9 205 9 c 0,55,56
 179 9 179 9 179 34 c 0,57,58
 182 42 182 42 191.5 57.5 c 128,-1,59
 201 73 201 73 221 96 c 1,60,-1
 221 95 l 1,61,62
 350 266 350 266 350 403 c 0,63,64
 350 515 350 515 296 623 c 1,65,-1
 297 622 l 1,33,34
EndSplineSet
EndChar

StartChar: quoteleft
Encoding: 8216 8216 426
Width: 425
Flags: W
LayerCount: 2
Fore
SplineSet
121 993 m 0,0,1
 122 1058 122 1058 166 1121.5 c 128,-1,2
 210 1185 210 1185 265 1211 c 1,3,-1
 296 1153 l 1,4,5
 280 1144 280 1144 258 1120 c 128,-1,6
 236 1096 236 1096 226 1058 c 1,7,8
 292 1030 292 1030 289 975 c 0,9,10
 289 959 289 959 282.5 944.5 c 128,-1,11
 276 930 276 930 265 919 c 128,-1,12
 254 908 254 908 239 901.5 c 128,-1,13
 224 895 224 895 208 895 c 0,14,15
 188 895 188 895 171.5 903.5 c 128,-1,16
 155 912 155 912 144 925.5 c 128,-1,17
 133 939 133 939 127 957 c 128,-1,18
 121 975 121 975 121 993 c 0,0,1
EndSplineSet
EndChar

StartChar: quoteright
Encoding: 8217 8217 427
Width: 372
Flags: W
LayerCount: 2
Fore
SplineSet
311 1113 m 0,0,1
 310 1048 310 1048 266 984.5 c 128,-1,2
 222 921 222 921 167 895 c 1,3,-1
 136 953 l 1,4,5
 152 962 152 962 174 986 c 128,-1,6
 196 1010 196 1010 206 1048 c 1,7,8
 140 1076 140 1076 143 1131 c 0,9,10
 143 1147 143 1147 149.5 1161.5 c 128,-1,11
 156 1176 156 1176 167 1187 c 128,-1,12
 178 1198 178 1198 192.5 1204.5 c 128,-1,13
 207 1211 207 1211 224 1211 c 0,14,15
 244 1211 244 1211 260 1202.5 c 128,-1,16
 276 1194 276 1194 287.5 1180.5 c 128,-1,17
 299 1167 299 1167 305 1149 c 128,-1,18
 311 1131 311 1131 311 1113 c 0,0,1
EndSplineSet
EndChar

StartChar: afii57451
Encoding: 1611 1611 428
Width: 0
GlyphClass: 4
Flags: W
AnchorPoint: "Anchor-2" 0 0 mark 0
AnchorPoint: "Anchor-0" 0 0 mark 0
LayerCount: 2
Fore
SplineSet
193 205 m 1,0,-1
 171 112 l 1,1,-1
 -189 0 l 1,2,-1
 -175 93 l 1,3,-1
 193 205 l 1,0,-1
193 368 m 1,4,-1
 171 275 l 1,5,-1
 -189 163 l 1,6,-1
 -175 256 l 1,7,-1
 193 368 l 1,4,-1
EndSplineSet
EndChar

StartChar: afii57454
Encoding: 1614 1614 429
Width: 0
GlyphClass: 4
Flags: W
AnchorPoint: "Anchor-2" 0 0 mark 0
AnchorPoint: "Anchor-0" 0 0 mark 0
LayerCount: 2
Fore
SplineSet
193 205 m 1,0,-1
 171 112 l 1,1,-1
 -189 0 l 1,2,-1
 -175 93 l 1,3,-1
 193 205 l 1,0,-1
EndSplineSet
EndChar

StartChar: afii57455
Encoding: 1615 1615 430
Width: 0
GlyphClass: 4
Flags: W
AnchorPoint: "Anchor-2" 0 0 mark 0
AnchorPoint: "Anchor-0" 0 0 mark 0
LayerCount: 2
Fore
SplineSet
136 192 m 1,0,1
 136 152 136 152 92 98 c 1,2,-1
 19 139 l 1,3,4
 -11 95 -11 95 -79.5 54.5 c 128,-1,5
 -148 14 -148 14 -205 14 c 0,6,7
 -217 14 -217 14 -232 56 c 1,8,9
 -104 100 -104 100 -34 181 c 1,10,11
 -100 215 -100 215 -104 278 c 0,12,13
 -104 341 -104 341 -70 397 c 0,14,15
 -30 463 -30 463 26 463 c 0,16,17
 115 463 115 463 115 349 c 0,18,19
 115 281 115 281 85 215 c 1,20,21
 97 203 97 203 136 192 c 1,0,1
24 257 m 1,22,23
 44 285 44 285 44 313 c 0,24,25
 44 372 44 372 3 372 c 0,26,27
 -29 372 -29 372 -29 321 c 0,28,29
 -29 303 -29 303 -11.5 282.5 c 128,-1,30
 6 262 6 262 24 257 c 1,22,23
EndSplineSet
EndChar

StartChar: afii57452
Encoding: 1612 1612 431
Width: 0
GlyphClass: 4
Flags: W
AnchorPoint: "Anchor-2" 0 0 mark 0
AnchorPoint: "Anchor-0" 0 0 mark 0
LayerCount: 2
Fore
SplineSet
141 195 m 1,0,1
 139 158 139 158 94 94 c 1,2,-1
 21 133 l 1,3,4
 -7 98 -7 98 -75.5 51.5 c 128,-1,5
 -144 5 -144 5 -213 -2 c 0,6,7
 -225 -2 -225 -2 -245 40 c 1,8,9
 -238 42 -238 42 -195 62 c 1,10,11
 -186 109 -186 109 -186 126 c 0,12,13
 -186 185 -186 185 -220 185 c 0,14,15
 -233 185 -233 185 -252 159.5 c 128,-1,16
 -271 134 -271 134 -273 134 c 0,17,18
 -297 134 -297 134 -268.5 210 c 128,-1,19
 -240 286 -240 286 -208 286 c 0,20,21
 -170 286 -170 286 -146 262 c 128,-1,22
 -122 238 -122 238 -122 199 c 0,23,24
 -127 118 -127 118 -136 93 c 1,25,26
 -73 135 -73 135 -48 173 c 1,27,28
 -99 217 -99 217 -99 281 c 0,29,30
 -99 344 -99 344 -66 400 c 0,31,32
 -26 466 -26 466 30 466 c 0,33,34
 119 466 119 466 119 352 c 0,35,36
 119 285 119 285 89 218 c 1,37,38
 101 206 101 206 141 195 c 1,0,1
22 247 m 1,39,40
 44 280 44 280 46 315 c 0,41,42
 46 373 46 373 5 373 c 0,43,44
 -27 373 -27 373 -27 322 c 0,45,46
 -27 304 -27 304 -11.5 278 c 128,-1,47
 4 252 4 252 22 247 c 1,39,40
EndSplineSet
EndChar

StartChar: afii57456
Encoding: 1616 1616 432
Width: 0
GlyphClass: 4
Flags: W
AnchorPoint: "Anchor-3" 0 0 mark 0
AnchorPoint: "Anchor-1" 0 0 mark 0
LayerCount: 2
Fore
SplineSet
193 205 m 1,0,-1
 171 112 l 1,1,-1
 -189 0 l 1,2,-1
 -175 93 l 1,3,-1
 193 205 l 1,0,-1
EndSplineSet
EndChar

StartChar: afii57457
Encoding: 1617 1617 433
Width: 0
GlyphClass: 4
Flags: W
AnchorPoint: "Anchor-2" 0 0 mark 0
AnchorPoint: "Anchor-0" 0 0 mark 0
LayerCount: 2
Fore
SplineSet
178 201 m 0,0,1
 178 144 178 144 148 94 c 0,2,3
 113 38 113 38 59 38 c 0,4,5
 16 38 16 38 -7 82 c 1,6,7
 -44 2 -44 2 -106 2 c 0,8,9
 -147 2 -147 2 -170 41 c 0,10,11
 -190 74 -190 74 -190 118 c 0,12,13
 -190 230 -190 230 -145 230 c 0,14,15
 -141 230 -141 230 -126 182 c 128,-1,16
 -111 134 -111 134 -81 134 c 0,17,18
 -52 134 -52 134 -27 191.5 c 128,-1,19
 -2 249 -2 249 9 249 c 0,20,21
 15 249 15 249 28 205.5 c 128,-1,22
 41 162 41 162 57 162 c 0,23,24
 89 162 89 162 117.5 213.5 c 128,-1,25
 146 265 146 265 148 265 c 0,26,27
 178 265 178 265 178 201 c 0,0,1
EndSplineSet
EndChar

StartChar: afii57458
Encoding: 1618 1618 434
Width: 0
GlyphClass: 4
Flags: W
AnchorPoint: "Anchor-2" 0 0 mark 0
AnchorPoint: "Anchor-0" 0 0 mark 0
LayerCount: 2
Fore
SplineSet
147 181 m 256,0,1
 147 113 147 113 114 64 c 0,2,3
 76 9 76 9 10 9 c 0,4,5
 -135 9 -135 9 -135 183 c 0,6,7
 -135 235 -135 235 -98 294 c 0,8,9
 -56 360 -56 360 -8 360 c 0,10,11
 59 360 59 360 103 304.5 c 128,-1,12
 147 249 147 249 147 181 c 256,0,1
74 167 m 1,13,14
 44 234 44 234 -22 234 c 0,15,16
 -38 234 -38 234 -53 220 c 128,-1,17
 -68 206 -68 206 -68 190 c 0,18,19
 -68 144 -68 144 -11 144 c 0,20,21
 49 144 49 144 74 167 c 1,13,14
EndSplineSet
EndChar

StartChar: exclam
Encoding: 33 33 437
Width: 684
GlyphClass: 2
Flags: W
LayerCount: 2
Fore
SplineSet
371 1203 m 1,0,1
 371 1149 371 1149 363 760 c 2,2,-1
 359 594 l 2,3,4
 357 499 357 499 347 426 c 1,5,6
 336 392 336 392 269 392 c 0,7,8
 250 392 250 392 245 396 c 1,9,10
 227 753 227 753 215 1155 c 1,11,12
 305 1205 305 1205 352 1205 c 1,13,-1
 371 1203 l 1,0,1
452 159 m 1,14,-1
 369 2 l 1,15,-1
 159 125 l 1,16,-1
 240 283 l 1,17,-1
 452 159 l 1,14,-1
EndSplineSet
EndChar

StartChar: afii64060
Encoding: 64830 64830 438
Width: 611
GlyphClass: 2
Flags: W
LayerCount: 2
Fore
SplineSet
409 -57 m 1,0,1
 402 -74 402 -74 376 -74 c 0,2,3
 356 -74 356 -74 345 -67 c 0,4,5
 299 -37 299 -37 226 54 c 0,6,7
 161 135 161 135 127 194 c 0,8,9
 27 372 27 372 27 574 c 0,10,11
 27 796 27 796 146 986 c 0,12,13
 159 1004 159 1004 199 1058 c 0,14,15
 234 1106 234 1106 265 1135 c 2,16,-1
 352 1216 l 1,17,18
 364 1221 364 1221 377 1224 c 0,19,20
 402 1224 402 1224 409 1210 c 1,21,22
 325 1053 325 1053 296 990 c 0,23,24
 186 751 186 751 186 588 c 0,25,26
 186 315 186 315 409 -57 c 1,0,1
EndSplineSet
EndChar

StartChar: afii64061
Encoding: 64831 64831 439
Width: 613
GlyphClass: 2
Flags: W
LayerCount: 2
Fore
SplineSet
585 574 m 0,0,1
 585 213 585 213 262 -67 c 1,2,3
 248 -70 248 -70 231 -74 c 1,4,5
 208 -74 208 -74 201 -57 c 1,6,7
 314 135 314 135 360 259 c 0,8,9
 423 429 423 429 423 605 c 0,10,11
 423 670 423 670 382 819 c 0,12,13
 346 952 346 952 201 1210 c 1,14,15
 201 1224 201 1224 233 1224 c 0,16,17
 259 1224 259 1224 339 1139 c 0,18,19
 585 878 585 878 585 574 c 0,0,1
EndSplineSet
EndChar

StartChar: afii62821
Encoding: 65252 65252 440
Width: 762
GlyphClass: 2
Flags: W
AnchorPoint: "Anchor-3" 270 -585 basechar 0
AnchorPoint: "Anchor-2" 375 795 basechar 0
LayerCount: 2
Fore
SplineSet
778 0 m 1,0,-1
 682 0 l 2,1,2
 596 0 596 0 545 25 c 1,3,4
 535 5 535 5 501 -30 c 1,5,-1
 497 -30 l 2,6,7
 490 -30 490 -30 347 38 c 0,8,9
 333 43 333 43 267 65 c 0,10,11
 243 69 243 69 200 95 c 1,12,13
 147 34 147 34 111 17 c 128,-1,14
 75 0 75 0 -5 0 c 1,15,-1
 -5 167 l 1,16,17
 75 167 75 167 93 170 c 0,18,19
 140 180 140 180 167 224 c 0,20,21
 253 369 253 369 431 443 c 0,22,23
 448 450 448 450 462 450 c 0,24,25
 487 450 487 450 487 424 c 0,26,27
 487 377 487 377 531 267 c 0,28,29
 558 198 558 198 635 177 c 0,30,31
 676 167 676 167 778 167 c 1,32,-1
 778 0 l 1,0,-1
447 159 m 1,33,34
 446 168 446 168 439 184 c 0,35,36
 413 243 413 243 378 300 c 1,37,38
 362 300 362 300 319 246 c 1,39,-1
 313 228 l 2,40,41
 310 219 310 219 368 194 c 2,42,-1
 447 159 l 1,33,34
EndSplineSet
EndChar

StartChar: uni25CC
Encoding: 9676 9676 441
Width: 911
Flags: W
AnchorPoint: "Anchor-3" 435 -450 basechar 0
AnchorPoint: "Anchor-2" 465 975 basechar 0
LayerCount: 2
Fore
SplineSet
771 629 m 256,0,1
 771 592 771 592 734 592 c 0,2,3
 695 592 695 592 695 629 c 256,4,5
 695 666 695 666 734 666 c 0,6,7
 771 666 771 666 771 629 c 256,0,1
658 703 m 0,8,9
 658 666 658 666 621 666 c 0,10,11
 582 666 582 666 582 703 c 0,12,13
 582 742 582 742 621 742 c 0,14,15
 658 742 658 742 658 703 c 0,8,9
847 516 m 0,16,17
 847 477 847 477 808 477 c 0,18,19
 771 477 771 477 771 516 c 0,20,21
 771 553 771 553 810 553 c 0,22,23
 847 553 847 553 847 516 c 0,16,17
873 384 m 256,24,25
 873 347 873 347 836 347 c 0,26,27
 797 347 797 347 797 384 c 256,28,29
 797 421 797 421 836 421 c 0,30,31
 873 421 873 421 873 384 c 256,24,25
525 731 m 0,32,33
 525 692 525 692 488 692 c 256,34,35
 451 692 451 692 451 731 c 0,36,37
 451 768 451 768 488 768 c 256,38,39
 525 768 525 768 525 731 c 0,32,33
847 251 m 0,40,41
 847 214 847 214 808 214 c 0,42,43
 771 214 771 214 771 251 c 0,44,45
 771 290 771 290 808 290 c 0,46,47
 847 290 847 290 847 251 c 0,40,41
394 703 m 0,48,49
 394 666 394 666 356 666 c 0,50,51
 319 666 319 666 319 703 c 0,52,53
 319 742 319 742 356 742 c 0,54,55
 394 742 394 742 394 703 c 0,48,49
282 629 m 256,56,57
 282 592 282 592 243 592 c 0,58,59
 206 592 206 592 206 627 c 0,60,61
 206 666 206 666 243 666 c 0,62,63
 282 666 282 666 282 629 c 256,56,57
771 138 m 0,64,65
 771 101 771 101 734 101 c 256,66,67
 697 101 697 101 697 138 c 0,68,69
 697 177 697 177 734 177 c 256,70,71
 771 177 771 177 771 138 c 0,64,65
658 64 m 0,72,73
 658 27 658 27 621 27 c 256,74,75
 584 27 584 27 584 64 c 0,76,77
 584 103 584 103 621 103 c 256,78,79
 658 103 658 103 658 64 c 0,72,73
206 516 m 0,80,81
 206 477 206 477 171 477 c 0,82,83
 132 477 132 477 132 516 c 0,84,85
 132 553 132 553 169 553 c 256,86,87
 206 553 206 553 206 516 c 0,80,81
180 384 m 256,88,89
 180 347 180 347 143 347 c 0,90,91
 104 347 104 347 104 384 c 256,92,93
 104 421 104 421 143 421 c 0,94,95
 180 421 180 421 180 384 c 256,88,89
525 38 m 0,96,97
 525 -1 525 -1 488 -1 c 256,98,99
 451 -1 451 -1 451 38 c 0,100,101
 451 75 451 75 488 75 c 256,102,103
 525 75 525 75 525 38 c 0,96,97
394 66 m 0,104,105
 394 27 394 27 356 27 c 0,106,107
 319 27 319 27 319 64 c 0,108,109
 319 103 319 103 356 103 c 0,110,111
 394 103 394 103 394 66 c 0,104,105
206 251 m 0,112,113
 206 214 206 214 169 214 c 256,114,115
 132 214 132 214 132 251 c 0,116,117
 132 290 132 290 169 290 c 256,118,119
 206 290 206 290 206 251 c 0,112,113
282 138 m 0,120,121
 282 101 282 101 245 101 c 0,122,123
 206 101 206 101 206 138 c 0,124,125
 206 177 206 177 243 177 c 0,126,127
 282 177 282 177 282 138 c 0,120,121
EndSplineSet
EndChar

StartChar: afii62819
Encoding: 65246 65246 442
Width: 852
GlyphClass: 2
Flags: W
AnchorPoint: "Anchor-3" 390 -855 basechar 0
AnchorPoint: "Anchor-2" 435 1215 basechar 0
LayerCount: 2
Fore
SplineSet
870 0 m 1,0,-1
 838 0 l 2,1,2
 769 0 769 0 752 14 c 1,3,4
 752 -118 752 -118 697 -202 c 0,5,6
 645 -282 645 -282 524 -344 c 0,7,8
 407 -403 407 -403 320 -403 c 0,9,10
 222 -403 222 -403 145 -350 c 0,11,12
 61 -292 61 -292 55 -198 c 0,13,14
 54 -179 54 -179 54 -161 c 0,15,16
 54 -13 54 -13 183 115 c 0,17,18
 210 142 210 142 273 177 c 1,19,20
 293 170 293 170 293 156 c 0,21,22
 293 140 293 140 224 62 c 0,23,24
 221 59 221 59 155 -23 c 0,25,26
 127 -56 127 -56 127 -114 c 0,27,28
 127 -125 127 -125 144 -158 c 0,29,30
 182 -233 182 -233 350 -233 c 0,31,32
 423 -233 423 -233 543 -174 c 0,33,34
 675 -108 675 -108 675 -42 c 0,35,36
 675 -3 675 -3 638 178 c 0,37,38
 554 592 554 592 501 916 c 1,39,-1
 531 1042 l 1,40,-1
 555 1058 l 1,41,42
 569 1020 569 1020 607 808 c 0,43,44
 618 750 618 750 650 578 c 2,45,-1
 684 388 l 2,46,47
 704 280 704 280 734 232 c 0,48,49
 776 167 776 167 870 167 c 1,50,-1
 870 0 l 1,0,-1
EndSplineSet
EndChar

StartChar: braceright
Encoding: 125 125 445
Width: 685
GlyphClass: 2
Flags: W
LayerCount: 2
Fore
SplineSet
77 -351 m 1,0,-1
 77 -312 l 1,1,2
 161 -296 161 -296 202 -252.5 c 128,-1,3
 243 -209 243 -209 243 -153 c 0,4,5
 243 -96 243 -96 222 -12 c 128,-1,6
 201 72 201 72 201 135 c 0,7,8
 201 193 201 193 235 253 c 128,-1,9
 269 313 269 313 335 355 c 0,10,11
 379 384 379 384 478 411 c 1,12,13
 373 444 373 444 325 477 c 0,14,15
 262 519 262 519 230.5 578 c 128,-1,16
 199 637 199 637 199 689 c 0,17,18
 199 740 199 740 220 824.5 c 128,-1,19
 241 909 241 909 241 972 c 0,20,21
 241 1032 241 1032 202.5 1075.5 c 128,-1,22
 164 1119 164 1119 77 1137 c 1,23,-1
 77 1177 l 1,24,-1
 107 1177 l 2,25,26
 193 1178 193 1178 271 1137 c 128,-1,27
 349 1096 349 1096 388 1032.5 c 128,-1,28
 427 969 427 969 427 907 c 0,29,30
 427 850 427 850 401 748 c 0,31,32
 382 672 382 672 382 613 c 0,33,34
 382 546 382 546 423.5 499 c 128,-1,35
 465 452 465 452 548 439 c 1,36,-1
 548 387 l 1,37,38
 465 373 465 373 423.5 324 c 128,-1,39
 382 275 382 275 382 205 c 0,40,41
 382 146 382 146 401 74 c 0,42,43
 426 -27 426 -27 426 -78 c 0,44,45
 426 -135 426 -135 393 -191.5 c 128,-1,46
 360 -248 360 -248 310.5 -283.5 c 128,-1,47
 261 -319 261 -319 201 -335 c 0,48,49
 155 -348 155 -348 77 -351 c 1,0,-1
EndSplineSet
EndChar

StartChar: uni0656
Encoding: 1622 1622 452
Width: 0
GlyphClass: 4
Flags: W
AnchorPoint: "Anchor-3" 0 0 mark 0
AnchorPoint: "Anchor-1" 0 0 mark 0
LayerCount: 2
Fore
SplineSet
21 86 m 1,0,-1
 -20 2 l 1,1,2
 -16 57 -16 57 -28.5 155 c 128,-1,3
 -41 253 -41 253 -52 310 c 1,4,5
 6 385 6 385 11 385 c 0,6,7
 33 367 33 367 21 86 c 1,0,-1
EndSplineSet
EndChar

StartChar: E005
Encoding: 65578 -1 470
Width: 476
GlyphClass: 3
Flags: W
LayerCount: 2
Fore
SplineSet
-43 0 m 1,0,-1
 -43 207 l 1,1,-1
 581 207 l 1,2,-1
 581 0 l 1,3,-1
 -43 0 l 1,0,-1
EndSplineSet
EndChar

StartChar: afii57470
Encoding: 1726 1726 480
Width: 819
Flags: W
AnchorPoint: "Anchor-3" 390 -705 basechar 0
AnchorPoint: "Anchor-2" 360 1125 basechar 0
LayerCount: 2
Fore
SplineSet
803 184 m 0,0,1
 803 113 803 113 757 56 c 0,2,3
 708 -5 708 -5 638 -5 c 0,4,5
 589 -5 589 -5 481.5 47.5 c 128,-1,6
 374 100 374 100 333 100 c 1,7,-1
 184 29 l 2,8,9
 125 0 125 0 30 0 c 2,10,-1
 -12 0 l 1,11,-1
 -12 167 l 1,12,13
 95 167 95 167 105 183 c 1,14,15
 102 221 102 221 102 227 c 0,16,17
 102 298 102 298 145.5 401.5 c 128,-1,18
 189 505 189 505 240 552 c 1,19,-1
 244 575 l 2,20,21
 244 557 244 557 233 659 c 1,22,23
 258 772 258 772 288 795 c 1,24,25
 305 800 305 800 322 803 c 0,26,27
 335 803 335 803 346 800 c 0,28,29
 403 782 403 782 535 644 c 0,30,31
 765 405 765 405 782 328 c 0,32,33
 803 230 803 230 803 184 c 0,0,1
690 213 m 0,34,35
 690 232 690 232 682 243 c 0,36,37
 529 444 529 444 440 487 c 1,38,-1
 434 481 l 1,39,-1
 433 476 l 1,40,41
 439 456 439 456 439 425 c 0,42,43
 436 401 436 401 416 269 c 1,44,45
 626 164 626 164 657 164 c 0,46,47
 664 164 664 164 682 178 c 1,48,49
 690 198 690 198 690 213 c 0,34,35
359 356 m 0,50,51
 359 379 359 379 345 412 c 0,52,53
 329 450 329 450 309 450 c 0,54,55
 276 450 276 450 240.5 402 c 128,-1,56
 205 354 205 354 205 319 c 0,57,58
 205 297 205 297 238 286 c 1,59,-1
 338 288 l 1,60,61
 359 314 359 314 359 356 c 0,50,51
EndSplineSet
Substitution2: "'medi' Medial Forms in Arabic lookup 3 subtable" afii62827
Substitution2: "'fina' Terminal Forms in Arabic lookup 2 subtable" afii62827
Substitution2: "'init' Initial Forms in Arabic lookup 1 subtable" afii57470
EndChar

StartChar: at
Encoding: 64 64 489
Width: 1600
Flags: W
LayerCount: 2
Fore
SplineSet
1194 812 m 1,0,-1
 1095 474 l 2,1,2
 1040 284 1040 284 1027.5 233 c 128,-1,3
 1015 182 1015 182 1015 152 c 0,4,5
 1015 125 1015 125 1034 106 c 128,-1,6
 1053 87 1053 87 1079 87 c 0,7,8
 1142 87 1142 87 1228.5 149 c 128,-1,9
 1315 211 1315 211 1377 350.5 c 128,-1,10
 1439 490 1439 490 1439 640 c 0,11,12
 1439 785 1439 785 1369.5 908 c 128,-1,13
 1300 1031 1300 1031 1172 1097 c 128,-1,14
 1044 1163 1044 1163 889 1163 c 0,15,16
 693 1163 693 1163 525.5 1059 c 128,-1,17
 358 955 358 955 260 760 c 128,-1,18
 162 565 162 565 162 354 c 0,19,20
 162 159 162 159 248 0 c 128,-1,21
 334 -159 334 -159 490.5 -241 c 128,-1,22
 647 -323 647 -323 826 -323 c 0,23,24
 1049 -323 1049 -323 1229.5 -203.5 c 128,-1,25
 1410 -84 1410 -84 1507 146 c 1,26,-1
 1557 146 l 1,27,28
 1481 -87 1481 -87 1280 -231 c 128,-1,29
 1079 -375 1079 -375 821 -375 c 0,30,31
 620 -375 620 -375 446.5 -279.5 c 128,-1,32
 273 -184 273 -184 178 -9 c 128,-1,33
 83 166 83 166 83 376 c 0,34,35
 83 600 83 600 188 794 c 128,-1,36
 293 988 293 988 482.5 1097 c 128,-1,37
 672 1206 672 1206 884 1206 c 0,38,39
 1060 1206 1060 1206 1201 1133.5 c 128,-1,40
 1342 1061 1342 1061 1416 921.5 c 128,-1,41
 1490 782 1490 782 1490 625 c 0,42,43
 1490 470 1490 470 1420.5 317.5 c 128,-1,44
 1351 165 1351 165 1244.5 95.5 c 128,-1,45
 1138 26 1138 26 1022 26 c 0,46,47
 957 26 957 26 925 56.5 c 128,-1,48
 893 87 893 87 893 142 c 0,49,50
 893 190 893 190 907 267 c 1,51,52
 782 116 782 116 706.5 70.5 c 128,-1,53
 631 25 631 25 573 25 c 0,54,55
 513 25 513 25 466.5 79.5 c 128,-1,56
 420 134 420 134 420 223 c 0,57,58
 420 346 420 346 500 498.5 c 128,-1,59
 580 651 580 651 712 747 c 0,60,61
 810 817 810 817 887 817 c 0,62,63
 943 817 943 817 981.5 788 c 128,-1,64
 1020 759 1020 759 1032 701 c 1,65,-1
 1061 794 l 1,66,-1
 1194 812 l 1,0,-1
897 778 m 0,67,68
 833 778 833 778 767 710 c 0,69,70
 672 613 672 613 604 445 c 0,71,72
 553 323 553 323 553 248 c 0,73,74
 553 195 553 195 583.5 161.5 c 128,-1,75
 614 128 614 128 651 128 c 0,76,77
 701 128 701 128 755 165 c 128,-1,78
 809 202 809 202 868 280 c 128,-1,79
 927 358 927 358 955 436 c 0,80,81
 1003 570 1003 570 1003 655 c 0,82,83
 1003 711 1003 711 971.5 744.5 c 128,-1,84
 940 778 940 778 897 778 c 0,67,68
EndSplineSet
EndChar

StartChar: A
Encoding: 65 65 490
Width: 1254
Flags: W
LayerCount: 2
Fore
SplineSet
795 385 m 1,0,-1
 350 385 l 1,1,-1
 271 204 l 2,2,3
 243 137 243 137 243 104 c 0,4,5
 243 77 243 77 268 57 c 128,-1,6
 293 37 293 37 375 32 c 1,7,-1
 375 0 l 1,8,-1
 14 0 l 1,9,-1
 14 32 l 1,10,11
 86 45 86 45 107 65 c 0,12,13
 151 105 151 105 202 230 c 2,14,-1
 607 1177 l 1,15,-1
 637 1177 l 1,16,-1
 1037 219 l 2,17,18
 1085 104 1085 104 1124.5 70 c 128,-1,19
 1164 36 1164 36 1235 32 c 1,20,-1
 1235 0 l 1,21,-1
 781 0 l 1,22,-1
 781 32 l 1,23,24
 850 35 850 35 874 54.5 c 128,-1,25
 898 74 898 74 898 102 c 0,26,27
 898 139 898 139 864 219 c 2,28,-1
 795 385 l 1,0,-1
771 447 m 1,29,-1
 576 913 l 1,30,-1
 375 447 l 1,31,-1
 771 447 l 1,29,-1
EndSplineSet
EndChar

StartChar: B
Encoding: 66 66 491
Width: 1159
Flags: W
LayerCount: 2
Fore
SplineSet
802 587 m 1,0,1
 922 562 922 562 982 506 c 0,2,3
 1063 427 1063 427 1063 315 c 0,4,5
 1063 229 1063 229 1009 150.5 c 128,-1,6
 955 72 955 72 860 36 c 128,-1,7
 765 0 765 0 571 0 c 2,8,-1
 29 0 l 1,9,-1
 29 32 l 1,10,-1
 72 32 l 2,11,12
 144 32 144 32 176 77 c 0,13,14
 195 107 195 107 195 204 c 2,15,-1
 195 947 l 2,16,17
 195 1054 195 1054 171 1081 c 0,18,19
 138 1118 138 1118 72 1118 c 2,20,-1
 29 1118 l 1,21,-1
 29 1150 l 1,22,-1
 526 1150 l 2,23,24
 665 1150 665 1150 748 1130 c 0,25,26
 876 1099 876 1099 943 1021 c 128,-1,27
 1010 943 1010 943 1010 843 c 0,28,29
 1010 757 1010 757 957.5 688.5 c 128,-1,30
 905 620 905 620 802 587 c 1,0,1
358 633 m 1,31,32
 389 626 389 626 429.5 623.5 c 128,-1,33
 470 621 470 621 518 621 c 0,34,35
 642 621 642 621 704 647.5 c 128,-1,36
 766 674 766 674 799.5 729 c 128,-1,37
 833 784 833 784 833 850 c 0,38,39
 833 951 833 951 750.5 1022 c 128,-1,40
 668 1093 668 1093 511 1093 c 0,41,42
 426 1093 426 1093 358 1075 c 1,43,-1
 358 633 l 1,31,32
358 83 m 1,44,45
 456 60 456 60 552 60 c 0,46,47
 706 60 706 60 786.5 129 c 128,-1,48
 867 198 867 198 867 300 c 0,49,50
 867 367 867 367 830.5 429 c 128,-1,51
 794 491 794 491 712 526.5 c 128,-1,52
 630 562 630 562 508 562 c 0,53,54
 456 562 456 562 418.5 560.5 c 128,-1,55
 381 559 381 559 358 554 c 1,56,-1
 358 83 l 1,44,45
EndSplineSet
EndChar

